<svg width="80" height="95" viewBox="0 0 80 95" fill="none" xmlns="http://www.w3.org/2000/svg">
<g clip-path="url(#clip0_745_1496)">
<path d="M4.095 89.7719C2.46875 89.7719 1.99594 88.8251 1.99594 87.4066C1.99594 86.9338 2.05531 86.4004 2.12844 85.8386C2.48469 83.3855 3.35438 81.9819 5.45344 81.9819C6.87313 81.9819 7.56531 82.6169 7.56531 83.7698V84.332H8.97375C8.98938 84.332 8.98938 83.8145 8.98938 83.6967C8.98938 82.0119 7.96906 80.414 5.45563 80.414C2.04031 80.414 0.635938 82.2691 0.118437 85.9058C0.044375 86.3939 0 86.8495 0 87.3356C0 89.4791 0.843438 91.4289 3.85906 91.4289C6.15031 91.4289 7.51125 90.3118 8.30906 88.937L6.96344 88.0309C6.09156 89.406 5.14469 89.7719 4.095 89.7719ZM13.3356 83.0015C10.6 83.0015 9.41813 84.4051 9.01906 87.1985C8.97221 87.5218 8.94715 87.8479 8.94406 88.1746C8.94406 89.9775 9.78687 91.4123 12.1222 91.4123C14.8578 91.4123 16.0556 89.9484 16.4547 87.1985C16.4991 86.8441 16.5287 86.5189 16.5287 86.1939C16.5294 84.3613 15.6575 83.0015 13.3356 83.0015ZM14.4741 87.1994C14.1781 89.2251 13.5431 89.846 12.3447 89.846C11.3844 89.846 10.9116 89.4466 10.9116 88.2493C10.9116 87.9534 10.9416 87.599 11.0003 87.1994C11.2963 85.1893 11.8875 84.5685 13.0997 84.5685C14.0756 84.5685 14.5628 84.9675 14.5628 86.1795C14.5628 86.4751 14.5328 86.8154 14.4741 87.1994ZM23.4053 80.5609L22.9475 83.2746C22.9181 83.5105 22.9331 83.4321 23.0225 83.6539C22.5938 83.329 21.8244 83.114 21.3069 83.114C18.8525 83.114 17.4781 84.2248 17.035 87.3291C16.9833 87.6568 16.9585 87.9882 16.9609 88.3199C16.9609 90.5824 18.2912 91.4258 20.0797 91.4258C20.8347 91.4258 21.5734 91.4414 22.1494 90.9543L22.2966 91.8738H23.7162L25.3719 80.5609H23.4053ZM22.0009 89.4166C21.3363 89.8147 20.6862 89.9047 20.2872 89.9047C19.2078 89.9047 18.9122 89.3426 18.9122 88.4414C18.9122 88.1012 18.9566 87.7031 19.0163 87.2731C19.3556 84.9231 20.11 84.5085 21.0859 84.5085C21.7209 84.5085 22.2084 84.6125 22.6678 84.8644L22.0009 89.4166ZM29.6894 83.0015C26.9831 83.0015 25.7128 84.2867 25.2834 87.1985C25.2384 87.5537 25.2087 87.894 25.2087 88.219C25.2087 90.2147 26.2294 91.4123 28.4756 91.4123C30.2203 91.4123 31.5225 90.6874 32.2169 89.3569L30.7234 88.7508C30.2953 89.4007 29.7188 89.8444 28.6984 89.8444C27.6047 89.8444 27.1609 89.55 27.1609 88.5742C27.1609 88.3818 27.1759 88.1021 27.2056 88.1021H32.5419C32.6169 87.3478 32.7044 86.8148 32.7044 86.3726C32.7044 84.8953 32.1431 83.0012 29.6894 83.0012V83.0015ZM30.7091 86.5945H27.4566C27.7825 85.8402 28.3284 84.6729 29.4525 84.6729C30.3244 84.6729 30.7537 85.1825 30.7537 86.0546C30.7528 86.2023 30.7394 86.5945 30.7091 86.5945ZM38.3937 82.8234L38.5709 81.3151H34.4012L34.2247 82.8234H35.3184L34.1366 90.3653H33.0413L32.865 91.8738H37.0338L37.2119 90.3653H36.1172L37.2994 82.8234H38.3937ZM46.8656 85.0859L47.3984 83.5777H45.9644L44.9303 83.7911C44.3534 83.4224 43.5697 83.1455 42.8312 83.1455C40.7162 83.1455 38.9134 84.1667 38.9134 86.4879C38.9134 87.1391 39.1497 87.6647 39.43 88.0199C38.9875 88.2558 38.6028 88.6511 38.6028 89.1842C38.6028 89.4204 38.6909 89.6622 38.8691 89.8834C37.9813 90.4165 37.4359 91.2998 37.4359 92.3338C37.4359 94.3304 39.52 94.7563 41.1166 94.7563C43.1269 94.7563 45.5225 94.297 45.5225 91.7395C45.5225 90.8677 44.9756 90.1865 43.3937 89.891L40.5406 89.3579C40.2156 89.2982 40.1416 89.1948 40.1416 89.047C40.1416 88.8251 40.2759 88.7077 40.4966 88.7077L40.6891 88.737C41.0734 88.8255 41.5172 88.8704 41.975 88.8704C44.0306 88.8704 45.8634 87.9831 45.8634 85.6771C45.8634 85.3515 45.8047 85.1312 45.6569 84.776C45.9078 84.8947 46.2337 85.0869 46.3656 85.0869H46.8656V85.0859ZM42.8009 91.2048C43.3622 91.3089 43.5541 91.5154 43.5541 91.8851C43.5541 93.0827 42.2678 93.2305 41.3369 93.2305C39.9175 93.2305 39.3856 92.8912 39.3856 92.1363C39.3856 91.4707 39.5772 91.1611 40.0216 90.6874L42.8009 91.2048ZM42.1938 87.3328C41.3363 87.3328 40.8631 87.0229 40.8631 86.283C40.8631 85.1894 41.4991 84.5535 42.6078 84.5535C43.495 84.5535 43.9241 84.9231 43.9241 85.6465C43.9241 86.7407 43.3025 87.3328 42.1938 87.3328ZM52.1178 83.0015C51.2897 83.0015 50.5512 83.4077 49.6341 84.1314L49.5013 83.5777H47.8744L46.7363 91.8735H48.7025L49.5603 85.5824C50.1372 85.2278 50.8462 84.7128 51.4525 84.7128C52.1912 84.7128 52.4581 85.0694 52.4581 85.749C52.4581 85.9118 52.4425 86.3939 52.4128 86.5711L51.6894 91.8735H53.6559L54.3794 86.5279C54.4094 86.278 54.4387 85.8658 54.4387 85.6299C54.4397 84.2238 53.7734 83.0015 52.1178 83.0015ZM58.1741 89.7953L58.1891 89.5922L59.0459 83.5777H55.7784L55.5725 85.0859H57.0056C56.8872 85.0859 56.8134 85.2181 56.7991 85.3371L56.2075 89.3429C56.1781 89.5357 56.1637 89.9369 56.1637 90.0984C56.1637 91.133 56.725 91.8738 57.8775 91.8738H58.8831L59.105 90.3653H58.4697C58.2472 90.3653 58.1741 89.9725 58.1741 89.7953ZM59.445 80.5609H57.5231C57.4047 80.5609 57.4047 80.1256 57.3903 80.2734L57.1234 82.3988C57.1081 82.5325 57.1081 82.8237 57.2266 82.8237H59.1494C59.2678 82.8237 59.2678 82.3069 59.2822 82.1725L59.5491 80.5321C59.5641 80.3843 59.5641 80.5609 59.445 80.5609ZM63.4547 89.8456C62.9675 89.8456 62.7306 89.6385 62.7306 89.1957L62.7456 89.1654L63.3666 85.0859H65.6134L66.2931 83.5777H63.5731L64.0309 80.2584L61.9622 80.9199L61.5919 83.5777H60.3947L60.1881 85.0859H61.5775C61.4447 85.8402 61.3112 85.3509 61.2969 85.4993L60.7644 89.0764C60.735 89.2395 60.735 89.3576 60.735 89.5047C60.735 90.9093 61.7697 91.4348 63.0128 91.4348C64.1653 91.4348 65.0969 91.0983 65.8219 90.4912L64.9047 89.3632C64.4453 89.6435 64.1353 89.8456 63.4547 89.8456ZM70.6694 83.0015C67.9641 83.0015 66.6928 84.2867 66.2637 87.1985C66.2194 87.5537 66.1897 87.894 66.1897 88.219C66.1897 90.2147 67.2097 91.4123 69.4566 91.4123C71.2012 91.4123 72.5034 90.6874 73.1972 89.3569L71.7044 88.7508C71.2762 89.4007 70.6991 89.8444 69.6784 89.8444C68.5853 89.8444 68.1409 89.55 68.1409 88.5742C68.1409 88.3818 68.1569 88.1021 68.1866 88.1021H73.5231C73.5969 87.3478 73.6856 86.8148 73.6856 86.3726C73.6856 84.8953 73.1241 83.0012 70.6694 83.0012V83.0015ZM71.69 86.5945H68.4375C68.7625 85.8402 69.3087 84.6729 70.4334 84.6729C71.3053 84.6729 71.7347 85.1825 71.7347 86.0546C71.7337 86.2023 71.7194 86.5945 71.69 86.5945ZM79.1266 83.0012C78.4169 83.0012 77.7516 83.408 77.0859 84.0423L76.9678 83.5777H75.3422L74.2034 91.8735H76.1847L77.0566 85.4493C77.5744 85.1397 78.1656 84.875 78.7275 84.875C79.0828 84.875 79.4222 84.8185 79.7472 84.8625L80 83.1487C79.7028 83.0896 79.4072 83.0015 79.1266 83.0015V83.0012ZM28.9188 74.6188C24.4438 72.6847 20.2563 67.769 20.2463 62.7393C20.2341 57.2557 23.7097 52.6 28.0325 49.5404C27.5128 51.5036 27.2294 53.2993 28.5169 55.0553C29.7137 56.6879 31.81 57.4813 33.7894 57.0507C38.4144 56.0383 38.6266 50.9546 35.8847 47.9927C33.1738 45.0597 30.5513 41.7467 31.5831 37.4931C32.0997 35.3609 33.4091 33.3636 35.0678 31.936C33.7928 35.2862 37.4159 38.5902 39.8031 40.2359C43.9441 43.0912 48.4875 45.249 52.295 48.5961C56.3 52.1138 59.2575 56.8701 58.6603 62.3866C58.0131 68.3658 53.2613 72.5244 47.9313 74.6238C59.1944 72.1382 70.8322 63.3977 71.0706 50.908C71.2681 40.6327 64.2184 32.725 55.4856 28.1977L55.0294 27.9487C55.2691 28.5302 55.3475 29.0248 55.3384 29.4676C55.4166 29.141 55.4697 28.8055 55.4847 28.4593C55.4826 28.8705 55.4288 29.2799 55.3247 29.6779L55.3384 29.4676C55.2088 30.0131 54.9903 30.5336 54.6919 31.0083L54.82 30.8705C53.0778 33.7598 48.3613 34.3873 46.0312 31.3954C42.2856 26.5829 46.1097 21.3942 46.6447 16.298C47.3144 9.91095 43.3084 3.71047 38.3416 0C41.0772 4.42476 37.4731 10.2787 34.5897 13.5514C31.7937 16.7238 28.3934 19.3726 25.3069 22.255C21.9913 25.3509 18.8037 28.612 16.0784 32.2457C10.6278 39.5185 7.29094 48.6655 9.74312 57.7387C12.1937 66.8057 20.0487 72.5775 28.9191 74.6185L28.9188 74.6188Z" fill="#EE4323"/>
</g>
<defs>
<clipPath id="clip0_745_1496">
<rect width="80" height="95" fill="white"/>
</clipPath>
</defs>
</svg>
