<svg width="70" height="20" viewBox="0 0 70 20" fill="none" xmlns="http://www.w3.org/2000/svg">
<g clip-path="url(#clip0_745_1548)">
<path d="M35.6455 5.24273C37.1708 6.6479 37.9329 8.57461 37.9329 11.0782C37.9329 13.5818 37.1891 15.5677 35.7024 17.0266C34.2157 18.4855 31.9468 19.2196 28.8957 19.2196H23.5273V3.19348H29.0795C31.9314 3.19321 34.1206 3.84003 35.6461 5.24576L35.6455 5.24273ZM33.026 14.7648C33.9024 13.9351 34.3385 12.7271 34.3385 11.1443C34.3385 9.56151 33.8999 8.32128 33.026 7.46876C32.1521 6.61624 30.803 6.16685 28.9846 6.16685H26.9352V16.0138H29.2594C30.891 16.0138 32.1455 15.5941 33.023 14.765L33.026 14.7648ZM50.5916 19.2196H47.4083V17.6864C46.4988 18.8076 45.4395 19.368 44.1352 19.368C42.8309 19.368 41.7413 18.988 40.854 18.228C39.9667 17.468 39.5295 16.4536 39.5295 15.1863C39.5295 13.9191 39.9883 12.99 40.9032 12.3597C41.8181 11.7294 43.0705 11.434 44.6567 11.434H47.1778V11.3271C47.1778 10.0065 46.5046 9.3459 45.1171 9.3459C44.5216 9.3459 43.9031 9.46486 43.2386 9.7025C42.5758 9.94096 42.0202 10.2359 41.5625 10.5892L40.032 8.35405C41.6486 7.17109 43.4965 6.57989 45.5705 6.57989C47.0648 6.57989 48.2546 6.95631 49.2018 7.70887C50.1465 8.46116 50.5886 9.65156 50.5886 11.2798V19.2185L50.5916 19.2196ZM47.1811 14.4613V13.9533H45.0482C43.6761 13.9533 42.9898 14.3377 42.9898 15.1979C42.9898 15.6432 43.153 15.962 43.4809 16.2002C43.8088 16.4384 44.2782 16.5461 44.8886 16.5461C45.4733 16.5519 46.0413 16.35 46.4928 15.9758C46.9571 15.5994 47.1811 15.0905 47.1811 14.4613ZM59.6402 9.83082C58.6184 9.83082 57.8088 10.1948 57.3056 10.9246C56.8025 11.6543 56.5036 12.618 56.5036 13.8159V19.2198H53.093V6.85415H56.5036V8.42371C56.9584 7.91705 57.5791 7.48693 58.2419 7.13364C58.9005 6.79041 59.6279 6.6021 60.3692 6.58292V9.83329H59.6405L59.6402 9.83082ZM65.8265 9.37316V14.8297C65.8265 15.3061 65.9632 15.6787 66.2098 15.9469C66.4565 16.2151 66.7523 16.3506 67.0848 16.3506C67.7261 16.3506 68.2716 16.0587 68.7134 15.4749L70.0002 17.8934C68.9319 18.877 67.8084 19.368 66.6271 19.368C65.4459 19.368 64.4495 18.977 63.6346 18.193C62.8176 17.4099 62.4151 16.3426 62.4151 14.9906V3.19293H65.8262V6.62753H69.4629L67.5877 9.37564H65.8289L65.8265 9.37316Z" fill="#231F20"/>
<path d="M4.99379 5.69265L3.80078 4.49042L3.80543 13.1753L3.81992 13.5807C3.82539 13.7726 3.86176 13.9877 3.91945 14.2107L13.3722 17.5701L15.7347 16.516L15.7366 16.5127L4.99488 5.69485L4.99379 5.69265Z" fill="#00C4B3"/>
<path d="M3.9193 14.211H3.92012C3.9193 14.2074 3.91793 14.2033 3.91602 14.1989C3.91793 14.2033 3.91793 14.2071 3.9193 14.211ZM15.734 16.5141L13.3715 17.5682L3.92012 14.2088C4.10059 14.9068 4.50063 15.6919 4.9302 16.1203L8.01184 19.2107L14.8751 19.2195L15.7343 16.5135L15.734 16.5141Z" fill="#22D3C5"/>
<path d="M3.83233 4.49042L0.15733 10.077C-0.147553 10.4052 0.00420456 11.082 0.495572 11.581L2.61745 13.7349L3.951 14.208C3.89631 13.9877 3.85694 13.7674 3.85147 13.5779L3.8367 13.1726L3.83233 4.48767V4.49042Z" fill="#0075C9"/>
<path d="M13.4498 4.60222C13.2311 4.54549 13.0123 4.5097 12.8231 4.50447L12.3966 4.48877L3.80078 4.4907L15.7382 16.5108L16.7869 14.1289L13.4498 4.60222Z" fill="#0075C9"/>
<path d="M13.4375 4.59723C13.4413 4.59861 13.4457 4.59943 13.4484 4.60053V4.59943C13.4446 4.59861 13.4413 4.59861 13.4375 4.59723ZM15.3453 5.61607C14.9113 5.17604 14.143 4.77621 13.4484 4.59723L16.7885 14.1289L15.7385 16.5108L18.3 15.6866L18.3055 8.61394L15.3453 5.62158V5.61607Z" fill="#00A8E1"/>
<path d="M12.9812 3.26727L10.8437 1.12963C10.3496 0.637559 9.67641 0.483356 9.35047 0.79011L3.80078 4.49043L12.3966 4.4885L12.8231 4.5042C13.0145 4.5097 13.2278 4.5455 13.4498 4.60195L12.9812 3.26727Z" fill="#00C4B3"/>
</g>
<defs>
<clipPath id="clip0_745_1548">
<rect width="70" height="19" fill="white" transform="translate(0 0.5)"/>
</clipPath>
</defs>
</svg>
