<svg width="80" height="41" viewBox="0 0 80 41" fill="none" xmlns="http://www.w3.org/2000/svg">
<mask id="mask0_745_1558" style="mask-type:luminance" maskUnits="userSpaceOnUse" x="2" y="6" width="23" height="28">
<path d="M24.4556 18.8812L17.2198 26.1196L24.4556 33.3581H16.1872L8.94873 26.1196L16.1872 18.8812H24.4556ZM16.1872 6.47723L2.74805 19.9164L6.88356 24.0519L24.4556 6.47723H16.1872Z" fill="white"/>
</mask>
<g mask="url(#mask0_745_1558)">
<path d="M13.0841 30.2552L24.4555 18.8812H16.187L8.95117 26.1197L13.0841 30.2552Z" fill="#39CEFD"/>
</g>
<mask id="mask1_745_1558" style="mask-type:luminance" maskUnits="userSpaceOnUse" x="2" y="6" width="23" height="28">
<path d="M24.4556 18.8812L17.2198 26.1196L24.4556 33.3581H16.1872L8.94873 26.1196L16.1872 18.8812H24.4556ZM16.1872 6.47723L2.74805 19.9164L6.88356 24.0519L24.4556 6.47723H16.1872Z" fill="white"/>
</mask>
<g mask="url(#mask1_745_1558)">
<path d="M2.74805 19.9164L16.1872 6.47723H24.4556L6.88356 24.0519L2.74805 19.9164Z" fill="#39CEFD"/>
</g>
<mask id="mask2_745_1558" style="mask-type:luminance" maskUnits="userSpaceOnUse" x="2" y="6" width="23" height="28">
<path d="M24.4556 18.8812L17.2198 26.1196L24.4556 33.3581H16.1872L8.94873 26.1196L16.1872 18.8812H24.4556ZM16.1872 6.47723L2.74805 19.9164L6.88356 24.0519L24.4556 6.47723H16.1872Z" fill="white"/>
</mask>
<g mask="url(#mask2_745_1558)">
<path d="M16.1869 33.3555H24.4554L17.2195 26.1196L13.084 30.2551L16.1869 33.3555Z" fill="#03569B"/>
</g>
<mask id="mask3_745_1558" style="mask-type:luminance" maskUnits="userSpaceOnUse" x="2" y="6" width="23" height="28">
<path d="M24.4556 18.8812L17.2198 26.1196L24.4556 33.3581H16.1872L8.94873 26.1196L16.1872 18.8812H24.4556ZM16.1872 6.47723L2.74805 19.9164L6.88356 24.0519L24.4556 6.47723H16.1872Z" fill="white"/>
</mask>
<g mask="url(#mask3_745_1558)">
<path d="M17.2195 26.1196L13.084 30.2551L19.2174 28.1305L17.2195 26.1196Z" fill="url(#paint0_linear_745_1558)"/>
</g>
<mask id="mask4_745_1558" style="mask-type:luminance" maskUnits="userSpaceOnUse" x="2" y="6" width="23" height="28">
<path d="M24.4556 18.8812L17.2198 26.1196L24.4556 33.3581H16.1872L8.94873 26.1196L16.1872 18.8812H24.4556ZM16.1872 6.47723L2.74805 19.9164L6.88356 24.0519L24.4556 6.47723H16.1872Z" fill="white"/>
</mask>
<g mask="url(#mask4_745_1558)">
<path d="M8.95117 26.1183L13.0868 21.9826L17.2227 26.1183L13.0868 30.2539L8.95117 26.1183Z" fill="#16B9FD"/>
</g>
<path d="M24.4556 18.8812L17.2198 26.1196L24.4556 33.3581H16.1872L8.94873 26.1196L16.1872 18.8812H24.4556ZM16.1872 6.47723L2.74805 19.9164L6.88356 24.0519L24.4556 6.47723H16.1872Z" fill="url(#paint1_radial_745_1558)"/>
<path d="M27.0801 13.6827H34.3067V15.096H28.5467V19.372H33.7467V20.768H28.5467V26.178H27.0801V13.6827ZM36.0554 13.6827H37.5387V26.1787H36.0554V13.6827ZM42.9654 26.458C41.8952 26.458 41.073 26.1438 40.4987 25.5153C39.9441 24.8829 39.6667 24.0045 39.6667 22.88V17.278H41.1501V22.6533C41.1501 23.4978 41.3421 24.12 41.7261 24.52C42.1101 24.92 42.6279 25.12 43.2794 25.12C43.7799 25.12 44.2243 24.9862 44.6127 24.7187C45.0127 24.4511 45.315 24.1022 45.5194 23.672C45.7403 23.2409 45.8507 22.7871 45.8507 22.3107V17.284H47.3334V26.184H45.9201V24.8867H45.8501C45.6056 25.3289 45.2159 25.7011 44.6807 26.0033C44.1456 26.3056 43.5754 26.4567 42.9701 26.4567L42.9654 26.458Z" fill="black"/>
<path d="M53.0431 26.3186C52.6822 26.3186 52.3448 26.2604 52.0311 26.144C51.7288 26.0275 51.4728 25.8704 51.2631 25.6726C51.0302 25.4518 50.8557 25.1958 50.7397 24.9046C50.6233 24.614 50.5651 24.2591 50.5651 23.84V18.622H49.0117V17.278H50.5651V14.7646H52.0484V17.278H54.2124V18.622H52.0484V23.474C52.0484 23.9629 52.1417 24.3235 52.3284 24.556C52.5493 24.812 52.8693 24.94 53.2884 24.94C53.6262 24.94 53.9519 24.8411 54.2657 24.6433V26.092C54.0911 26.1733 53.9106 26.2315 53.7244 26.2666C53.5497 26.3022 53.3231 26.32 53.0444 26.32L53.0431 26.3186Z" fill="black"/>
<path d="M59.3341 26.3186C58.9732 26.3186 58.6358 26.2604 58.3221 26.144C58.0198 26.0275 57.7638 25.8704 57.5541 25.6726C57.3212 25.4518 57.1467 25.1958 57.0307 24.9046C56.9143 24.614 56.8561 24.2591 56.8561 23.84V18.622H55.3027V17.278H56.8561V14.7646H58.3394V17.278H60.5034V18.622H58.3394V23.474C58.3394 23.9629 58.4327 24.3235 58.6194 24.556C58.8403 24.812 59.1603 24.94 59.5794 24.94C59.9172 24.94 60.243 24.8411 60.5567 24.6433V26.092C60.3821 26.1733 60.2016 26.2315 60.0154 26.2666C59.8407 26.3022 59.6141 26.32 59.3354 26.32L59.3341 26.3186Z" fill="black"/>
<path d="M65.8669 26.458C65.0225 26.458 64.2603 26.2545 63.5803 25.8474C62.9056 25.4403 62.3763 24.8818 61.9923 24.172C61.6198 23.4507 61.4336 22.6418 61.4336 21.7454C61.4336 20.8845 61.608 20.0934 61.9569 19.372C62.3178 18.6507 62.824 18.0747 63.4756 17.644C64.1271 17.2129 64.8834 16.9974 65.7443 16.9974C66.6167 16.9974 67.3729 17.1974 68.0129 17.5974C68.6529 17.9814 69.1418 18.5165 69.4796 19.2027C69.8285 19.8894 70.0029 20.6747 70.0029 21.5587C70.0029 21.7334 69.9852 21.8845 69.9496 22.012H62.9163C62.9518 22.6867 63.1147 23.2569 63.4049 23.7227C63.6956 24.188 64.0623 24.5369 64.5049 24.7694C64.9583 25.0023 65.4294 25.1187 65.9183 25.1187C67.0587 25.1187 67.9371 24.5836 68.5536 23.5134L69.8103 24.124C69.4263 24.8454 68.9027 25.4156 68.2396 25.8347C67.588 26.2534 66.7969 26.4627 65.8663 26.4627L65.8669 26.458ZM68.4323 20.786C68.4091 20.4136 68.3047 20.0414 68.1189 19.6694C67.9323 19.2969 67.6356 18.9827 67.2289 18.7267C66.8289 18.4707 66.3289 18.3427 65.7289 18.3427C65.0311 18.3427 64.4378 18.5694 63.9489 19.0227C63.472 19.4649 63.1578 20.0525 63.0063 20.7854H68.4343L68.4323 20.786ZM71.7216 17.278H73.1349V18.7094H73.2049C73.3796 18.2205 73.7169 17.8192 74.2169 17.5054C74.7174 17.1796 75.2409 17.0167 75.7876 17.0167C76.1947 17.0167 76.5436 17.0749 76.8343 17.1914V18.7967C76.4618 18.61 76.0429 18.5167 75.5776 18.5167C75.1465 18.5167 74.7509 18.6389 74.3909 18.8834C74.03 19.1278 73.7411 19.4594 73.5243 19.878C73.3154 20.2852 73.2109 20.7296 73.2109 21.2114V26.1847H71.7276V17.2847L71.7216 17.278Z" fill="black"/>
<defs>
<linearGradient id="paint0_linear_745_1558" x1="14.2909" y1="31.0532" x2="17.3709" y2="27.9732" gradientUnits="userSpaceOnUse">
<stop stop-color="#1A237E" stop-opacity="0.4"/>
<stop offset="1" stop-color="#1A237E" stop-opacity="0"/>
</linearGradient>
<radialGradient id="paint1_radial_745_1558" cx="0" cy="0" r="1" gradientUnits="userSpaceOnUse" gradientTransform="translate(3.35789 8.30936) scale(32.8854 32.8854)">
<stop stop-color="white" stop-opacity="0.1"/>
<stop offset="1" stop-color="white" stop-opacity="0"/>
</radialGradient>
</defs>
</svg>
