<svg width="111" height="32" viewBox="0 0 111 32" fill="none" xmlns="http://www.w3.org/2000/svg">
<g clip-path="url(#clip0_745_1536)">
<path d="M11.3098 31.9594C8.63077 31.8459 6.76817 31.4935 5.28167 30.8186C5.06469 30.7201 5.09724 30.7861 4.86323 29.9711C4.45566 28.5518 4.14588 27.2658 3.81401 25.6157C3.64577 24.7791 3.56699 24.4294 3.17848 22.7948C2.48134 19.8615 2.21657 18.5127 2.06421 17.1188C2.02563 16.7658 2.09509 16.2831 2.20423 16.1458C2.26883 16.0646 2.27014 15.8571 2.20616 15.8406C2.16883 15.8309 2.15957 15.7997 2.14592 15.6376C2.13459 15.5029 2.11694 15.4298 2.08656 15.3916C2.05725 15.3547 2.04332 15.3003 2.04332 15.2227C2.04332 15.1597 2.03297 15.1019 2.02033 15.0941C2.00651 15.0857 1.99733 14.9313 1.99733 14.7074C1.99733 14.4835 1.98816 14.3291 1.97434 14.3207C1.96169 14.3129 1.95135 14.3271 1.95135 14.3521C1.95135 14.6325 1.74766 14.1218 1.62893 13.5437C1.32422 12.06 0.824134 10.5857 0.939177 11.5102C0.97965 11.8355 1.05423 12.1552 1.26836 12.9216C1.51991 13.8219 1.6345 14.4593 1.58334 14.6737C1.51023 14.9801 1.03782 13.1401 0.765546 11.4884C0.696449 11.0692 0.592699 10.4396 0.53499 10.0893C0.406041 9.30649 0.286095 8.71862 0.122211 8.0662C-0.0418303 7.41316 -0.0371952 7.30724 0.166661 7.05038C0.586872 6.52092 1.81997 6.10931 1.95326 6.45401C2.04462 6.69026 1.77536 6.85392 1.0431 7.00721C0.408445 7.14006 0.349745 7.23505 0.694272 7.57168C1.03872 7.90823 3.03659 8.20903 5.40039 8.28023C9.58696 8.40634 12.2411 8.43954 12.9883 8.37516C13.1717 8.35935 13.4324 8.34046 13.5677 8.33317C13.8136 8.31991 13.8136 8.31991 13.8024 8.26051C13.794 8.21553 13.8136 8.17351 13.8832 8.08737C13.9338 8.02481 14.0093 7.92756 14.051 7.87125C14.1928 7.67973 14.431 7.60673 14.5298 7.7245C14.6534 7.87185 14.5442 8.21288 14.34 8.31736C14.2457 8.3656 14.2728 8.38045 14.4905 8.39988C14.5938 8.4091 14.7376 8.42283 14.81 8.43039C15.0291 8.45326 15.1962 8.37494 15.1041 8.29251C14.9013 8.11093 15.283 7.74466 15.874 7.55365C15.9625 7.52504 16.0448 7.49266 16.0568 7.4817C16.0688 7.47074 16.095 7.46176 16.115 7.46176C16.1904 7.46176 16.4062 7.29634 16.646 7.0546C16.7825 6.91704 16.9358 6.7785 16.9867 6.74673C17.0375 6.71495 17.0903 6.66833 17.104 6.64312C17.1453 6.56667 17.0647 6.58727 16.8857 6.69892C16.7972 6.75413 16.673 6.83057 16.6098 6.86881C16.4785 6.94818 16.1864 7.13983 15.9053 7.33093C15.7996 7.40285 15.6872 7.47904 15.6555 7.50023C15.6239 7.52142 15.5793 7.55434 15.5563 7.57338C15.5055 7.61555 15.2695 7.62568 15.1382 7.59132C14.7972 7.5021 14.7727 7.20593 15.0637 6.69158C15.1911 6.46639 15.5423 6.00581 15.5865 6.00581C15.5975 6.00581 15.6357 5.96307 15.6713 5.91082C15.7357 5.81626 15.7766 5.78573 15.9817 5.67866C16.1293 5.60166 16.2155 5.59329 16.2389 5.65368C16.2528 5.68956 16.1494 5.91471 16.0329 6.10218C15.7887 6.49513 15.7674 6.5351 15.7903 6.55768C15.8228 6.58991 16.0714 6.44233 16.1083 6.3689C16.1237 6.33811 16.165 6.25178 16.2001 6.17704C16.4372 5.67141 17.0048 5.62162 17.3539 6.07582C17.4462 6.19587 17.4719 6.20947 17.4724 6.13852C17.474 5.9165 17.7864 5.73434 18.1676 5.73321C18.3256 5.73275 18.336 5.70717 18.1992 5.65547C18.0121 5.58481 18.0014 5.54946 18.1247 5.41003C18.2956 5.21672 18.2145 5.17915 17.8898 5.30121C17.5765 5.41899 17.272 5.48275 17.0638 5.47417C16.9532 5.46961 16.8379 5.4751 16.8075 5.48635C16.7771 5.49761 16.696 5.51156 16.6273 5.51734C16.5585 5.52313 16.4939 5.53298 16.4837 5.53924C16.4734 5.54549 16.4149 5.54382 16.3535 5.53553C16.0122 5.48944 16.0439 5.19669 16.4713 4.44749C16.5283 4.34739 16.6071 4.19895 16.6463 4.11762C16.6855 4.0363 16.8449 3.71383 17.0004 3.40102C17.1559 3.08822 17.3259 2.74016 17.3781 2.62755C17.4304 2.51494 17.4987 2.37417 17.5301 2.31473C17.5614 2.2553 17.587 2.19638 17.587 2.18382C17.587 2.17125 17.6135 2.10727 17.6459 2.04164C17.8549 1.61803 18.1883 0.57236 18.1477 0.467646C18.1394 0.446399 18.1463 0.432246 18.1649 0.432246C18.182 0.432246 18.2478 0.398119 18.3111 0.356409C18.3745 0.314698 18.4545 0.263452 18.4889 0.242528C18.5403 0.211319 18.5492 0.192919 18.5385 0.140095C18.4792 -0.153313 19.0268 0.0342349 19.7082 0.540689C20.7106 1.28568 21.6003 2.54456 22.3438 4.26962C23.0045 5.80275 23.178 8.40288 22.7495 10.3509C22.4492 11.7167 22.2447 13.8126 22.025 17.7785C21.8851 20.3036 21.8052 21.4431 21.6898 22.5559C21.6587 22.8562 21.618 23.3066 21.5993 23.5569C21.5057 24.8133 21.3646 25.9798 21.1246 27.4811C21.0426 27.9944 21.0311 28.115 21.0248 28.5276C21.0012 30.0832 20.4248 30.9667 19.3318 31.1224C19.2258 31.1376 19.0046 31.189 18.8402 31.2367C17.5075 31.6238 16.0859 31.8291 14.138 31.9156C12.5583 31.9858 12.1015 31.9929 11.3098 31.9594ZM5.88314 29.6064C5.59948 28.4621 5.43354 27.9188 5.234 27.4811C5.02041 27.0126 4.97187 26.9505 4.99825 27.1797C5.11952 28.2331 5.41178 29.21 5.88748 30.152C6.13831 30.6488 6.1382 30.6354 5.88314 29.6064ZM5.3859 30.3646C5.46869 30.0589 5.33628 29.416 4.95075 28.2517C4.73085 27.5876 4.5688 27.01 4.53828 26.7816C4.51827 26.6319 4.49749 26.6192 4.41141 26.7044C4.27335 26.841 4.31509 27.1236 4.62603 28.1576C4.7097 28.4358 4.79 28.7531 4.80447 28.8628C4.88954 29.5072 5.31822 30.6144 5.3859 30.3646ZM13.1825 26.9767C13.6021 26.7017 13.547 25.9003 13.091 25.6448C12.6805 25.4148 12.4601 25.916 12.6344 26.6832C12.7125 27.0273 12.9287 27.143 13.1825 26.9767ZM11.9458 26.9161C12.2587 26.7574 12.3626 26.2278 12.1665 25.791C11.9733 25.3604 11.5856 25.5787 11.5157 26.1573C11.5056 26.241 11.4817 26.4078 11.4627 26.5279C11.3944 26.9586 11.5754 27.104 11.9458 26.9161ZM4.33259 26.1243C4.38275 25.7271 4.27872 25.1533 3.94218 23.9706C3.84671 23.6351 3.73664 23.2 3.69757 23.0037C3.56983 22.362 3.37643 22.0493 3.46984 22.6355C3.51518 22.9201 3.77115 24.2187 3.82633 24.4441C3.85696 24.5692 3.9087 24.8848 3.94131 25.1454C4.02252 25.7945 4.09376 26.0517 4.23385 26.2015C4.30329 26.2757 4.31458 26.2669 4.33259 26.1243ZM9.65416 23.9292C11.4057 23.5321 11.9705 21.3651 10.588 20.3461C9.69662 19.689 9.13838 19.6413 7.74574 20.103C7.46119 20.1973 7.20503 20.289 7.17648 20.3068C7.075 20.37 6.918 20.594 6.91798 20.6757C6.91798 20.7176 6.87735 20.8515 6.8277 20.9734C6.16982 22.5878 7.84479 24.3394 9.65416 23.9292ZM7.43533 22.689C6.74631 22.5872 6.59781 22.0068 7.1252 21.4768C7.50831 21.0919 7.9544 21.0586 8.2819 21.3904C8.92992 22.0471 8.41691 22.8341 7.43533 22.689ZM16.1714 23.6101C17.3745 23.4102 18.1288 22.0417 17.6327 20.9592C16.471 18.4244 12.2989 19.642 13.2139 22.2489C13.6051 23.3634 14.6797 23.858 16.1714 23.6101ZM13.8276 22.5581C13.2913 22.4275 13.1173 21.9426 13.4047 21.3794C13.764 20.6752 14.5327 20.6835 14.912 21.3957C15.141 21.8258 15.0891 21.9691 14.7176 21.9321C14.3835 21.8988 14.2739 21.946 14.4373 22.0529C14.5563 22.1309 14.7085 22.2665 14.7378 22.3208C14.8296 22.4903 14.2112 22.6516 13.8276 22.5581ZM8.17384 13.1529C8.26376 13.14 8.32756 13.1093 8.44429 13.0231C8.52832 12.961 8.66161 12.8633 8.7405 12.8061C9.45171 12.2896 9.68048 12.1087 9.94163 11.8559C10.0302 11.7702 10.2888 11.5393 10.5165 11.3429C10.7441 11.1464 10.9728 10.9477 11.0248 10.9015C11.0767 10.8552 11.1698 10.7729 11.2317 10.7187C11.4259 10.5487 11.7697 10.2377 12.0341 9.99312C12.3443 9.706 13.015 9.0349 13.0103 9.01621C12.9992 8.97156 12.8014 8.93421 12.5629 8.93173C12.3154 8.92915 12.31 8.92799 12.3119 8.87738C12.3144 8.80875 12.3172 8.80911 11.6432 8.79371C6.25072 8.67052 2.63742 8.48655 0.684515 8.23576C0.457062 8.20655 0.433767 8.20726 0.433767 8.24341C0.433767 8.30667 0.61994 8.48165 0.767094 8.55669C0.952266 8.65113 0.955058 8.6925 0.778405 8.72435C0.589012 8.75849 0.594723 8.73636 0.669079 9.14804C0.967368 10.7995 1.4059 11.1734 2.33168 10.5654C2.86413 10.2158 6.2759 9.85361 8.52752 9.90774C8.914 9.91703 9.18048 9.91306 9.30931 9.89609C9.4168 9.88193 9.56372 9.86498 9.6358 9.85843C9.70787 9.85187 9.77898 9.83204 9.79382 9.81435C9.80866 9.79666 9.86024 9.78219 9.90846 9.78219C9.95667 9.78219 10.0252 9.77035 10.0609 9.75588C10.3046 9.65683 12.1605 9.61879 12.1605 9.71285C12.1605 9.72935 12.065 9.81942 11.8435 10.0118C11.7917 10.0568 11.5237 10.2614 11.2479 10.4666C10.8297 10.7777 10.5503 10.9924 10.4245 11.0996C10.4119 11.1103 10.2736 11.2539 10.1172 11.4185C9.47408 12.0957 8.80248 12.5617 8.2253 12.7313C8.14458 12.755 8.11188 12.7783 8.09343 12.8251C8.06235 12.9041 7.96204 13.0807 7.9306 13.1118C7.87828 13.1635 7.90387 13.2003 7.98143 13.1848C8.02253 13.1765 8.10911 13.1622 8.17384 13.1529ZM9.27482 12.9443C9.28347 12.9305 9.45781 12.9216 9.72097 12.9216C10.2307 12.9216 10.6429 12.8997 10.6429 12.8726C10.6429 12.862 10.6282 12.8533 10.6101 12.8533C10.5122 12.8533 10.4816 12.7402 10.5434 12.6065C10.62 12.4407 10.6916 12.3609 11.4749 11.568C11.7839 11.2552 12.0785 10.9481 12.1296 10.8855C12.5719 10.3443 12.9285 9.82923 12.8885 9.78959C12.8712 9.7725 12.5318 10.0868 12.4799 10.1679C12.4595 10.1997 12.3612 10.3057 12.2614 10.4033C12.0658 10.5947 12.0545 10.6072 11.6878 11.0334C11.5532 11.1898 11.4138 11.3485 11.3779 11.386C11.3421 11.4235 11.2617 11.5106 11.1992 11.5794C10.9936 11.8058 10.6162 12.1674 10.4475 12.2995C10.0684 12.5965 9.48287 12.8891 9.29781 12.8741C9.23537 12.8691 9.10236 12.9007 9.10236 12.9206C9.10236 12.9686 9.24721 12.9885 9.27482 12.9443ZM14.5489 12.8548C14.5782 12.8112 14.6029 12.8078 14.8938 12.8075C15.3208 12.807 15.5493 12.7191 15.3907 12.6163C15.3584 12.5954 15.3335 12.5573 15.3334 12.5286C15.3326 12.3523 15.201 12.2068 15.1281 12.3017C14.9163 12.5776 14.8768 12.6184 14.77 12.6713C14.0766 13.0152 13.6648 12.2245 14.0115 11.2149C14.3105 10.3441 14.3344 10.2653 14.4051 9.91868C14.4393 9.75078 14.4076 9.42066 14.3564 9.4121C14.2484 9.39404 13.7496 10.9567 13.5411 11.9661C13.4513 12.4008 13.4494 12.4053 13.3283 12.4812C12.903 12.7477 12.7323 12.6246 12.8667 12.1481C12.9088 11.999 13.0435 11.6296 13.1053 11.4943C13.1294 11.4413 13.1492 11.3921 13.1492 11.385C13.1492 11.3779 13.1705 11.3241 13.1965 11.2653C13.4991 10.5812 13.5703 10.3319 13.4712 10.3036C13.1853 10.2221 12.7924 10.4393 12.6209 10.7738C12.6022 10.8102 12.5636 10.8779 12.5351 10.9242C12.4702 11.0296 12.3572 11.2368 12.1654 11.6021C11.9039 12.1 11.8463 12.1949 11.6701 12.4182C11.4833 12.6548 11.2889 12.7706 10.9763 12.8314C10.7529 12.8748 10.7566 12.886 10.9993 12.9016C11.6299 12.942 14.5159 12.904 14.5489 12.8548ZM11.9583 12.7385C11.8598 12.6994 11.8093 12.496 11.8642 12.3596C11.9726 12.0902 12.1184 11.866 12.6225 11.1926C12.7302 11.0488 12.8576 10.8722 12.9056 10.8002C13.1613 10.4166 13.1996 11.0946 12.954 11.659C12.6917 12.262 12.2608 12.7768 12.0318 12.7609C12.0204 12.7601 11.9873 12.75 11.9583 12.7385ZM18.065 12.6468C18.1931 12.6327 18.3038 12.6085 18.3246 12.5899C18.3497 12.5676 18.4186 12.5576 18.5474 12.5576C18.65 12.5576 18.7404 12.5474 18.7482 12.5348C18.756 12.5223 18.7813 12.5121 18.8043 12.5121C18.8427 12.5121 18.8877 12.4264 18.8624 12.4014C18.8566 12.3957 18.7976 12.4031 18.7311 12.4177C18.6135 12.4437 18.5127 12.4591 18.2998 12.4835C18.0174 12.5159 17.23 12.4942 17.0132 12.448C16.9371 12.4317 16.9327 12.4252 16.9084 12.2922C16.8645 12.0523 16.7361 11.9396 16.5716 11.9967C16.4089 12.0532 16.3997 12.0828 16.529 12.134C16.6229 12.1711 16.7133 12.2446 16.7133 12.2838C16.7133 12.3255 16.5704 12.4666 16.5283 12.4666C16.505 12.4666 16.4803 12.4758 16.4732 12.4871C16.4577 12.512 16.1873 12.5949 16.0522 12.6163C15.7982 12.6563 16.0291 12.6713 16.8981 12.6713C17.4198 12.6713 17.9416 12.6604 18.065 12.6468ZM19.5593 11.4097C19.6832 11.3889 19.8174 11.2713 19.8174 11.1836C19.8174 11.1179 19.7651 11.0832 19.7194 11.1186C19.6909 11.1406 19.5146 11.1865 19.4495 11.1889C19.4305 11.1896 19.3714 11.1972 19.318 11.2057C18.9653 11.262 17.9842 10.9544 17.5254 10.6435C17.4725 10.6077 17.4233 10.5784 17.4159 10.5784C17.3945 10.5784 17.1674 10.4188 17.0984 10.3552C16.8606 10.136 17.3052 10.1148 17.8859 10.3176C18.2531 10.4459 18.3014 10.4644 18.4 10.5148C18.5522 10.5925 18.5699 10.6001 18.7321 10.6569C19.1056 10.7876 19.1366 10.7564 18.8402 10.548C18.3986 10.2376 17.9288 10.0454 17.7527 10.1029C17.5617 10.1652 17.1255 10.0527 16.7133 9.83466C15.975 9.4442 15.6958 9.37339 15.9476 9.64052C16.285 9.99847 16.7226 10.3979 16.9985 10.5996C17.17 10.7251 17.404 10.8833 17.4491 10.9042C17.468 10.913 17.5301 10.947 17.587 10.9797C17.7197 11.056 18.1588 11.2512 18.271 11.2838C18.4905 11.3476 18.6002 11.3732 18.7155 11.3877C18.7841 11.3963 18.8528 11.4099 18.8683 11.418C18.9053 11.4373 19.4331 11.4309 19.5593 11.4097ZM16.8512 8.06063C16.9081 8.05585 17.0012 8.04729 17.0582 8.04159C17.1688 8.03053 17.5102 7.96222 17.7365 7.90587C17.8123 7.88697 18.1383 7.83582 18.4608 7.7922C19.653 7.63093 20.0058 7.49942 20.302 7.10582C20.4318 6.93344 20.4323 6.91134 20.3126 6.68167C20.0729 6.22208 20.3245 6.08049 20.8866 6.35861C21.0836 6.45611 21.082 6.4561 21.082 6.35977C21.082 6.27236 21.0645 6.2559 20.9459 6.23181C20.2998 6.10067 20.0013 5.61737 20.3405 5.25167C20.4015 5.18595 20.3965 5.11371 20.3097 4.80579C20.2714 4.67019 20.2493 4.66241 20.138 4.74547C20.0945 4.77799 20.014 4.82404 19.9593 4.84782C19.8597 4.89104 19.8597 4.89104 19.9615 4.9918C20.2862 5.31301 19.8756 5.71059 19.1736 5.75486C18.7137 5.78385 18.6739 5.79787 18.8819 5.85771C19.2335 5.95883 19.2861 6.17528 18.9933 6.31611C18.7206 6.44727 18.7327 6.4573 19.0717 6.3808C19.6155 6.2581 20.0337 6.27599 20.0863 6.42421C20.2314 6.83253 19.9489 7.25083 19.3805 7.46944C19.2445 7.52174 19.1632 7.54621 18.8862 7.61813C18.7461 7.6545 18.3418 7.71565 18.3285 7.70249C18.3221 7.69609 18.2996 7.69997 18.2785 7.71111C18.2575 7.72225 18.158 7.73809 18.0574 7.74633C17.4686 7.7945 17.1581 7.83508 16.5012 7.94967C16.1375 8.01311 16.0924 8.02471 16.0924 8.05491C16.0924 8.07697 16.5437 8.09678 16.6673 8.08015C16.7115 8.07419 16.7943 8.06541 16.8512 8.06063ZM18.8135 4.82732C18.9041 4.76732 19.0972 4.6403 19.2428 4.54505C19.7025 4.24421 20.0154 3.92005 20.0806 3.67715C20.0979 3.61286 20.1188 3.5436 20.127 3.52323C20.1523 3.46086 20.0677 3.23537 20.0375 3.28465C19.8986 3.51125 19.7941 3.64091 19.588 3.84229C19.2461 4.1765 19.1215 4.29229 19.08 4.31445C19.0115 4.35097 18.6409 4.76609 18.6084 4.84269C18.5441 4.99368 18.5649 4.99212 18.8135 4.82732ZM2.41122 6.50957C2.41122 6.48634 2.44588 6.42236 2.48823 6.36738C2.59458 6.22937 2.64116 6.13385 2.64116 6.05378C2.64116 5.96485 2.61051 5.97628 3.16119 5.85986C4.3933 5.59939 4.92103 5.53243 5.86426 5.51694C10.8395 5.4352 12.2999 5.39003 13.8811 5.26898C14.2835 5.23818 14.2828 5.23798 14.3933 5.41036C14.6321 5.78295 13.9559 6.02785 12.9078 5.94834C12.8066 5.94067 12.3255 5.93143 11.8386 5.92781C10.9534 5.92122 10.9534 5.92122 10.4726 5.82544C9.77089 5.68563 9.56539 5.69374 9.36336 5.86924C9.26861 5.95155 9.29891 5.95126 9.07178 5.87205C8.49758 5.67181 7.78723 5.65954 6.64205 5.83011C6.25633 5.88756 5.80623 5.94585 5.64182 5.95964C4.78764 6.03129 3.98658 6.17775 2.95895 6.45014C2.53174 6.56338 2.41122 6.57646 2.41122 6.50957Z" fill="#F3D71D"/>
<path d="M11.3098 31.9594C8.63077 31.8459 6.76817 31.4935 5.28167 30.8186C5.06469 30.7201 5.09724 30.786 4.86323 29.9711C4.45566 28.5518 4.14588 27.2658 3.81401 25.6157C3.64577 24.7791 3.56699 24.4294 3.17848 22.7947C2.48134 19.8615 2.21657 18.5127 2.06421 17.1188C2.02563 16.7658 2.09509 16.2831 2.20423 16.1458C2.26883 16.0646 2.27014 15.8571 2.20616 15.8406C2.16883 15.8309 2.15957 15.7997 2.14592 15.6375C2.13459 15.5029 2.11694 15.4298 2.08656 15.3916C2.05725 15.3547 2.04332 15.3003 2.04332 15.2227C2.04332 15.1597 2.03297 15.1019 2.02033 15.0941C2.00651 15.0857 1.99733 14.9313 1.99733 14.7074C1.99733 14.4835 1.98816 14.3291 1.97434 14.3206C1.96169 14.3129 1.95135 14.3271 1.95135 14.3521C1.95135 14.6325 1.74766 14.1218 1.62893 13.5436C1.32422 12.06 0.824134 10.5857 0.939177 11.5102C0.97965 11.8355 1.05423 12.1552 1.26836 12.9216C1.51991 13.8219 1.6345 14.4593 1.58334 14.6737C1.51023 14.9801 1.03782 13.14 0.765546 11.4884C0.696449 11.0692 0.592699 10.4396 0.53499 10.0893C0.406041 9.30648 0.286095 8.7186 0.122211 8.06618C-0.0418303 7.41315 -0.0371952 7.30722 0.166661 7.05037C0.586872 6.52091 1.81997 6.1093 1.95326 6.45399C2.04462 6.69025 1.77536 6.85391 1.0431 7.00719C0.408445 7.14004 0.349745 7.23503 0.694272 7.57166C1.03872 7.90822 3.03659 8.20902 5.40039 8.28022C9.58696 8.40632 12.2411 8.43952 12.9883 8.37514C13.1717 8.35934 13.4324 8.34044 13.5677 8.33315C13.8136 8.31989 13.8136 8.31989 13.8024 8.2605C13.794 8.21551 13.8136 8.1735 13.8832 8.08735C13.9338 8.02479 14.0093 7.92754 14.051 7.87123C14.2016 7.66778 14.443 7.60416 14.5407 7.74215C14.6054 7.8335 14.5755 7.85961 14.5042 7.77405C14.391 7.63823 14.2196 7.69265 14.0575 7.91581C14.0196 7.96805 13.9549 8.05202 13.9138 8.10241C13.7537 8.29862 13.8991 8.4376 14.1804 8.35741C14.3792 8.30075 14.5519 8.09945 14.5519 7.92429C14.5519 7.88268 14.5595 7.86969 14.5749 7.88498C14.6404 7.94978 14.4795 8.24598 14.34 8.31734C14.2457 8.36558 14.2728 8.38043 14.4905 8.39986C14.5938 8.40909 14.7376 8.42282 14.81 8.43038C15.0291 8.45324 15.1962 8.37493 15.1041 8.2925C14.9013 8.11091 15.283 7.74464 15.874 7.55363C15.9625 7.52502 16.0448 7.49265 16.0568 7.48168C16.0688 7.47072 16.095 7.46175 16.115 7.46175C16.1904 7.46175 16.4061 7.29642 16.6453 7.05536C16.8894 6.80926 17.0019 6.71602 17.0259 6.73977C17.0327 6.74646 16.9987 6.78073 16.9504 6.81594C16.5936 7.07631 16.5788 7.17652 16.9233 6.99939C17.424 6.74197 17.6328 6.68907 17.4706 6.86072C17.2623 7.08113 16.5744 7.40622 16.4909 7.32365C16.4734 7.30635 16.4298 7.32236 16.3404 7.37897C16.2712 7.42279 16.112 7.49418 15.9868 7.53761C15.557 7.68665 15.4451 7.74881 15.1961 7.97684C14.3997 8.70634 18.6774 8.40273 21.0277 7.56295C21.4219 7.42208 21.4972 7.33803 21.4656 7.07404C21.4113 6.62027 20.5139 6.05463 20.2667 6.31837C20.2078 6.3812 20.1836 6.36381 20.237 6.29702C20.3289 6.18205 20.5774 6.20561 20.8866 6.3586C21.0838 6.45615 21.082 6.45614 21.082 6.35921C21.082 6.27454 21.0376 6.2347 20.9398 6.2316C20.8882 6.22997 20.683 6.14737 20.7221 6.14398C20.7328 6.14305 20.7988 6.15876 20.8688 6.17888C21.3659 6.32186 21.5506 6.07501 21.3118 5.58662C21.2869 5.53565 21.2154 5.29431 21.1529 5.05033C20.8251 3.77019 20.1595 2.38874 19.8705 2.38868C19.8022 2.38866 19.8035 2.39194 19.6896 1.9564C19.4941 1.20894 19.3498 0.933877 19.0709 0.77689C18.4649 0.435755 18.3166 -0.184293 18.8976 0.0526389C20.1447 0.561103 21.4159 2.11666 22.3438 4.26961C23.0045 5.80273 23.178 8.40286 22.7495 10.3509C22.4492 11.7166 22.2447 13.8126 22.025 17.7785C21.8851 20.3036 21.8052 21.4431 21.6898 22.5559C21.6587 22.8562 21.618 23.3066 21.5993 23.5568C21.5057 24.8132 21.3646 25.9797 21.1246 27.4811C21.0426 27.9943 21.0311 28.1149 21.0248 28.5276C21.0012 30.0832 20.4248 30.9666 19.3318 31.1224C19.2258 31.1375 19.0046 31.189 18.8402 31.2367C17.5075 31.6238 16.0859 31.8291 14.138 31.9156C12.5583 31.9858 12.1015 31.9929 11.3098 31.9594ZM5.88314 29.6064C5.59948 28.4621 5.43354 27.9188 5.234 27.4811C5.02041 27.0125 4.97187 26.9505 4.99825 27.1797C5.11952 28.233 5.41178 29.21 5.88748 30.152C6.13831 30.6487 6.1382 30.6353 5.88314 29.6064ZM5.3859 30.3646C5.46869 30.0589 5.33628 29.416 4.95075 28.2517C4.73085 27.5876 4.5688 27.01 4.53828 26.7816C4.51827 26.6319 4.49749 26.6192 4.41141 26.7044C4.27335 26.841 4.31509 27.1236 4.62603 28.1576C4.7097 28.4358 4.79 28.7531 4.80447 28.8628C4.88954 29.5072 5.31822 30.6144 5.3859 30.3646ZM13.1825 26.9767C13.6021 26.7017 13.547 25.9003 13.091 25.6448C12.6805 25.4148 12.4601 25.916 12.6344 26.6831C12.7125 27.0272 12.9287 27.143 13.1825 26.9767ZM11.9458 26.9161C12.2587 26.7573 12.3626 26.2277 12.1665 25.791C11.9733 25.3604 11.5856 25.5786 11.5157 26.1573C11.5056 26.241 11.4817 26.4078 11.4627 26.5279C11.3944 26.9585 11.5754 27.104 11.9458 26.9161ZM4.33259 26.1243C4.38275 25.7271 4.27872 25.1532 3.94218 23.9706C3.84671 23.6351 3.73664 23.2 3.69757 23.0037C3.56983 22.362 3.37643 22.0493 3.46984 22.6355C3.51518 22.9201 3.77115 24.2186 3.82633 24.4441C3.85696 24.5692 3.9087 24.8848 3.94131 25.1454C4.02252 25.7945 4.09376 26.0516 4.23385 26.2014C4.30329 26.2757 4.31458 26.2669 4.33259 26.1243ZM9.65416 23.9292C11.4057 23.5321 11.9705 21.3651 10.588 20.3461C9.69662 19.689 9.13838 19.6413 7.74574 20.1029C7.46119 20.1973 7.20503 20.289 7.17648 20.3068C7.075 20.37 6.918 20.594 6.91798 20.6756C6.91798 20.7175 6.87735 20.8515 6.8277 20.9733C6.16982 22.5877 7.84479 24.3394 9.65416 23.9292ZM7.43533 22.689C6.74631 22.5872 6.59781 22.0068 7.1252 21.4768C7.50831 21.0919 7.9544 21.0585 8.2819 21.3904C8.92992 22.0471 8.41691 22.834 7.43533 22.689ZM16.1714 23.6101C17.3745 23.4102 18.1288 22.0417 17.6327 20.9592C16.471 18.4243 12.2989 19.642 13.2139 22.2489C13.6051 23.3634 14.6797 23.858 16.1714 23.6101ZM13.8276 22.5581C13.2913 22.4275 13.1173 21.9426 13.4047 21.3794C13.764 20.6752 14.5327 20.6835 14.912 21.3957C15.141 21.8258 15.0891 21.9691 14.7176 21.9321C14.3835 21.8987 14.2739 21.946 14.4373 22.0529C14.5563 22.1308 14.7085 22.2665 14.7378 22.3207C14.8296 22.4903 14.2112 22.6516 13.8276 22.5581ZM8.17418 13.1528C8.26479 13.1398 8.32741 13.1097 8.44383 13.023C8.52723 12.961 8.65519 12.8671 8.7282 12.8145C9.12957 12.525 9.47485 12.2651 9.59673 12.1607C9.75483 12.0252 9.79217 12.0003 9.79217 12.0302C9.79217 12.0419 9.73268 12.0994 9.65996 12.1579C9.58724 12.2164 9.50978 12.2788 9.48781 12.2967C9.42659 12.3464 8.99572 12.6639 8.74854 12.8414C8.48353 13.0317 8.48046 13.0422 8.69423 13.0272C8.9967 13.0059 9.05972 12.9906 9.0441 12.9419C9.02832 12.8927 9.12238 12.8448 9.20433 12.8602C9.24157 12.8673 9.2355 12.873 9.1762 12.887C9.1346 12.8968 9.10436 12.9163 9.10899 12.9303C9.12043 12.9648 9.23997 12.9765 9.27072 12.9461C9.28667 12.9303 9.44835 12.9216 9.72421 12.9216C10.231 12.9216 10.6429 12.8996 10.6429 12.8726C10.6429 12.862 10.6282 12.8533 10.6101 12.8533C10.5733 12.8533 10.505 12.7931 10.505 12.7607C10.505 12.7491 10.5257 12.76 10.551 12.7851C10.5836 12.8174 10.6276 12.8306 10.7029 12.8306C10.784 12.8306 10.8059 12.838 10.7965 12.8623C10.7628 12.9491 14.4895 12.9408 14.5489 12.8539C14.578 12.8114 14.605 12.8078 14.8938 12.8075C15.3208 12.807 15.5493 12.7191 15.3907 12.6163C15.3584 12.5953 15.3335 12.5573 15.3334 12.5286C15.3333 12.5008 15.3079 12.4242 15.277 12.3585C15.2461 12.2928 15.23 12.2391 15.2414 12.2391C15.2709 12.2391 15.2884 12.2729 15.3457 12.4413C15.3952 12.5865 15.3995 12.5916 15.4973 12.6164C15.5953 12.6413 15.5962 12.6423 15.5291 12.6532C15.4911 12.6594 15.5532 12.6647 15.667 12.6649C15.8123 12.6652 15.85 12.6603 15.7935 12.6486C15.7492 12.6394 15.72 12.6305 15.7286 12.6288C15.7372 12.6272 15.8247 12.6147 15.9231 12.6012C16.2337 12.5585 16.456 12.4773 16.4646 12.4035C16.4711 12.3475 16.4808 12.3415 16.5634 12.3415C16.7239 12.3415 16.6841 12.1888 16.5155 12.1575C16.4317 12.142 16.3789 12.0955 16.4023 12.0579C16.4251 12.0215 16.5519 11.962 16.5826 11.9734C16.5981 11.9792 16.59 11.9903 16.5638 11.9992C16.4194 12.0484 16.4092 12.0865 16.528 12.1336C16.6227 12.171 16.7133 12.2445 16.7133 12.2838C16.7133 12.3254 16.5704 12.4666 16.5283 12.4666C16.505 12.4666 16.4803 12.4758 16.4732 12.4871C16.4577 12.512 16.1873 12.5949 16.0522 12.6162C15.7982 12.6563 16.0291 12.6713 16.8981 12.6713C17.8587 12.6713 18.2589 12.6485 18.3246 12.5899C18.3497 12.5676 18.4186 12.5576 18.5474 12.5576C18.65 12.5576 18.7404 12.5473 18.7482 12.5348C18.756 12.5223 18.7813 12.5121 18.8043 12.5121C18.8427 12.5121 18.8877 12.4264 18.8624 12.4014C18.8566 12.3957 18.7976 12.4023 18.7311 12.4161C18.4891 12.4662 18.4608 12.4699 18.4608 12.4506C18.4608 12.4398 18.5346 12.4174 18.6249 12.4009C19.4275 12.2541 20.0432 11.8095 20.3012 11.1904C20.337 11.1045 20.441 10.8984 20.5324 10.7324C21.0909 9.71716 21.4172 8.8399 21.3338 8.57717C21.3237 8.5455 21.3094 8.48298 21.302 8.43823C21.2762 8.28348 21.2633 8.27838 20.9901 8.31435C19.7684 8.47517 17.3942 8.7156 15.943 8.82547C14.9238 8.90264 13.5373 8.98543 13.2578 8.9858C13.1479 8.98594 13.1479 8.98594 12.7413 9.37163C12.2325 9.85425 12.1898 9.8563 12.6758 9.37477C12.8758 9.17662 13.0305 9.00935 13.0196 9.00305C12.9454 8.96013 12.6697 8.91742 12.5018 8.92286C12.3153 8.9289 12.31 8.92764 12.3119 8.87736C12.3144 8.80873 12.3172 8.80909 11.6432 8.79369C6.25072 8.6705 2.63742 8.48654 0.684515 8.23574C0.457062 8.20653 0.433767 8.20725 0.433767 8.24339C0.433767 8.30665 0.61994 8.48163 0.767094 8.55668C0.952266 8.65111 0.955058 8.69249 0.778405 8.72433C0.589012 8.75847 0.594723 8.73634 0.669079 9.14802C0.967368 10.7995 1.4059 11.1734 2.33168 10.5654C2.86413 10.2157 6.2759 9.85359 8.52752 9.90773C8.914 9.91702 9.18048 9.91305 9.30931 9.89608C9.4168 9.88192 9.56372 9.86497 9.6358 9.85841C9.70787 9.85186 9.77898 9.83202 9.79382 9.81433C9.80866 9.79664 9.86024 9.78217 9.90846 9.78217C9.95667 9.78217 10.0252 9.77033 10.0609 9.75587C10.3046 9.65682 12.1605 9.61878 12.1605 9.71283C12.1605 9.72934 12.065 9.8194 11.8435 10.0118C11.7917 10.0568 11.5237 10.2614 11.2479 10.4666C10.8297 10.7776 10.5503 10.9924 10.4245 11.0996C10.4119 11.1103 10.2736 11.2539 10.1172 11.4185C9.47408 12.0957 8.80248 12.5617 8.2253 12.7313C8.14458 12.755 8.11188 12.7783 8.09343 12.8251C8.06235 12.9041 7.96204 13.0807 7.9306 13.1118C7.87828 13.1635 7.90387 13.2003 7.98143 13.1847C8.02253 13.1765 8.10926 13.1621 8.17418 13.1528ZM2.41122 6.50955C2.41122 6.48633 2.44588 6.42234 2.48823 6.36737C2.59458 6.22935 2.64116 6.13383 2.64116 6.05377C2.64116 5.96484 2.61051 5.97627 3.16119 5.85985C4.3933 5.59937 4.92103 5.53242 5.86426 5.51692C10.8395 5.43519 12.2999 5.39002 13.8811 5.26897C14.2835 5.23816 14.2828 5.23796 14.3933 5.41035C14.6321 5.78293 13.9559 6.02783 12.9078 5.94833C12.8066 5.94065 12.3255 5.93141 11.8386 5.92779C10.9534 5.92121 10.9534 5.92121 10.4726 5.82543C9.77089 5.68561 9.56539 5.69373 9.36336 5.86923C9.26861 5.95154 9.29891 5.95124 9.07178 5.87204C8.49758 5.67179 7.78723 5.65953 6.64205 5.83009C6.25633 5.88754 5.80623 5.94583 5.64182 5.95962C4.78764 6.03127 3.98658 6.17773 2.95895 6.45012C2.53174 6.56337 2.41122 6.57644 2.41122 6.50955Z" fill="#D5AD2D"/>
<path d="M11.3098 31.9594C8.63077 31.8459 6.76817 31.4935 5.28167 30.8186C5.06469 30.7201 5.09724 30.7861 4.86323 29.9711C4.45566 28.5518 4.14588 27.2658 3.81401 25.6157C3.64577 24.7791 3.56699 24.4294 3.17848 22.7948C2.48134 19.8615 2.21657 18.5127 2.06421 17.1188C2.02563 16.7658 2.09509 16.2831 2.20423 16.1458C2.26883 16.0646 2.27014 15.8571 2.20616 15.8406C2.16883 15.8309 2.15957 15.7997 2.14592 15.6376C2.13459 15.5029 2.11694 15.4298 2.08656 15.3916C2.05725 15.3547 2.04332 15.3003 2.04332 15.2227C2.04332 15.1597 2.03297 15.1019 2.02033 15.0941C2.00651 15.0857 1.99733 14.9313 1.99733 14.7074C1.99733 14.4835 1.98816 14.3291 1.97434 14.3207C1.96169 14.3129 1.95135 14.3271 1.95135 14.3521C1.95135 14.6325 1.74766 14.1218 1.62893 13.5437C1.32422 12.06 0.824134 10.5857 0.939177 11.5102C0.97965 11.8355 1.05423 12.1552 1.26836 12.9216C1.51991 13.8219 1.6345 14.4593 1.58334 14.6737C1.51023 14.9801 1.03782 13.1401 0.765546 11.4884C0.696449 11.0692 0.592699 10.4396 0.53499 10.0893C0.406041 9.30649 0.286095 8.71862 0.122211 8.0662C-0.0418303 7.41316 -0.0371952 7.30724 0.166661 7.05038C0.586872 6.52092 1.81997 6.10931 1.95326 6.45401C2.04462 6.69026 1.77536 6.85392 1.0431 7.00721C0.408445 7.14006 0.349745 7.23505 0.694272 7.57168C1.03872 7.90824 3.03659 8.20903 5.40039 8.28024C9.58335 8.40623 12.2396 8.43951 12.9883 8.37529C13.7278 8.31186 13.7723 8.31229 13.896 8.38397C14.0062 8.44788 14.0062 8.44788 14.1468 8.41332C14.2875 8.37873 14.3213 8.3796 14.8117 8.43049C14.9185 8.44157 14.9698 8.43439 15.0692 8.3945C15.1794 8.35026 15.2031 8.3479 15.2807 8.37344C15.4418 8.42645 16.9772 8.41115 17.518 8.35115C19.022 8.18431 20.8022 7.77804 21.3942 7.46656C21.4639 7.42989 21.9218 7.32009 22.2202 7.26848C22.5068 7.21891 22.692 7.17522 22.8296 7.12472C22.956 7.07829 22.956 7.07829 22.9709 7.27572C23.0369 8.15342 22.9382 9.56981 22.7605 10.294C22.7138 10.484 22.659 10.7871 22.5772 11.3064C22.5506 11.4753 22.5176 11.6359 22.5037 11.6632C22.4898 11.6905 22.4848 11.7366 22.4924 11.7655C22.5001 11.7945 22.4809 12.0229 22.4498 12.2732C22.2861 13.59 22.1831 14.9255 22.025 17.7786C21.8851 20.3036 21.8052 21.4431 21.6898 22.5559C21.6587 22.8562 21.618 23.3066 21.5993 23.5569C21.5057 24.8133 21.3646 25.9798 21.1246 27.4811C21.0426 27.9944 21.0311 28.115 21.0248 28.5276C21.0012 30.0832 20.4248 30.9667 19.3318 31.1224C19.2258 31.1376 19.0046 31.189 18.8402 31.2367C17.5075 31.6238 16.0859 31.8291 14.138 31.9156C12.5583 31.9858 12.1015 31.9929 11.3098 31.9594ZM5.88314 29.6064C5.59948 28.4621 5.43354 27.9188 5.234 27.4811C5.02041 27.0126 4.97187 26.9505 4.99826 27.1797C5.11952 28.2331 5.41178 29.21 5.88748 30.152C6.13831 30.6488 6.1382 30.6354 5.88314 29.6064ZM5.3859 30.3646C5.46869 30.0589 5.33628 29.416 4.95075 28.2517C4.73085 27.5876 4.5688 27.01 4.53828 26.7816C4.51828 26.6319 4.49749 26.6192 4.41141 26.7044C4.27335 26.841 4.31509 27.1236 4.62603 28.1576C4.7097 28.4358 4.79 28.7531 4.80447 28.8628C4.88954 29.5072 5.31822 30.6144 5.3859 30.3646ZM13.1825 26.9767C13.6021 26.7017 13.547 25.9003 13.091 25.6448C12.6805 25.4148 12.4601 25.916 12.6344 26.6832C12.7126 27.0273 12.9287 27.143 13.1825 26.9767ZM11.9458 26.9161C12.2587 26.7574 12.3626 26.2278 12.1665 25.791C11.9733 25.3604 11.5856 25.5787 11.5157 26.1573C11.5056 26.241 11.4817 26.4078 11.4627 26.5279C11.3944 26.9586 11.5754 27.104 11.9458 26.9161ZM4.33259 26.1243C4.38275 25.7271 4.27872 25.1533 3.94218 23.9706C3.84671 23.6351 3.73664 23.2 3.69757 23.0037C3.56983 22.362 3.37643 22.0493 3.46984 22.6355C3.51518 22.9201 3.77115 24.2187 3.82633 24.4441C3.85696 24.5692 3.9087 24.8848 3.94131 25.1454C4.02252 25.7945 4.09376 26.0517 4.23385 26.2015C4.30329 26.2757 4.31458 26.2669 4.33259 26.1243ZM11.2468 25.3882C11.481 25.2632 11.7201 25.2061 12.009 25.2063C12.2313 25.2065 12.3989 25.2291 13.0343 25.3452C13.8097 25.4868 14.2655 25.3802 14.2117 25.0698C14.0898 24.3666 13.7284 24.2123 12.6186 24.3895C11.9713 24.4929 11.5025 24.4977 11.239 24.4038C11.0309 24.3296 11.0436 24.3302 10.8892 24.3874C10.3306 24.5941 10.3552 25.2529 10.9281 25.4326C11.0052 25.4568 11.0701 25.4772 11.0723 25.4779C11.0745 25.4786 11.153 25.4382 11.2468 25.3882ZM9.65416 23.9292C11.4057 23.5321 11.9705 21.3651 10.588 20.3461C9.69662 19.689 9.13838 19.6413 7.74574 20.103C7.46119 20.1973 7.20503 20.289 7.17648 20.3068C7.075 20.37 6.918 20.594 6.91798 20.6757C6.91798 20.7176 6.87735 20.8515 6.8277 20.9734C6.16982 22.5878 7.8448 24.3394 9.65416 23.9292ZM7.43533 22.689C6.74631 22.5872 6.59781 22.0068 7.1252 21.4768C7.50831 21.0919 7.9544 21.0586 8.2819 21.3904C8.92992 22.0471 8.41691 22.8341 7.43533 22.689ZM16.1714 23.6101C17.3745 23.4102 18.1288 22.0417 17.6327 20.9592C16.471 18.4244 12.2989 19.642 13.2139 22.2489C13.6051 23.3634 14.6797 23.858 16.1714 23.6101ZM13.8276 22.5581C13.2913 22.4275 13.1173 21.9426 13.4047 21.3794C13.764 20.6752 14.5327 20.6835 14.912 21.3957C15.141 21.8258 15.0891 21.9691 14.7176 21.9321C14.3835 21.8988 14.2739 21.946 14.4373 22.0529C14.5563 22.1309 14.7085 22.2665 14.7378 22.3208C14.8296 22.4903 14.2112 22.6516 13.8276 22.5581ZM8.04331 13.1725C8.06621 13.1604 8.14946 13.148 8.22832 13.1449C8.34383 13.1404 8.37478 13.1311 8.38749 13.0971C8.40128 13.0602 8.43487 13.054 8.65509 13.0473C8.98619 13.0374 9.11735 13.0191 9.22883 12.9675C9.32838 12.9214 10.2855 12.8844 10.9189 12.9021C12.0452 12.9338 14.5174 12.9018 14.5487 12.8552C14.5783 12.8111 14.6021 12.8078 14.8938 12.8075C15.2216 12.8071 15.3553 12.7812 15.4099 12.7073C15.4377 12.6696 15.5163 12.6673 16.6341 12.6699C17.8513 12.6729 18.2528 12.6539 18.3246 12.5899C18.3497 12.5676 18.4186 12.5576 18.5475 12.5576C18.65 12.5576 18.7404 12.5474 18.7482 12.5348C18.7573 12.5203 19.0969 12.5121 19.6915 12.5121C20.5871 12.5121 20.6214 12.5105 20.6444 12.468C20.665 12.4299 20.7018 12.4223 20.9154 12.4117C21.4237 12.3866 21.5529 12.3724 21.5918 12.3378C21.6217 12.3112 21.6804 12.305 21.8551 12.31C22.0798 12.3165 22.0798 12.3165 22.1077 12.2152C22.123 12.1596 22.1563 12.0577 22.1816 11.9889C22.2184 11.889 22.231 11.7789 22.2437 11.4429C22.2612 10.9832 22.2774 10.8365 22.3391 10.5784C22.3886 10.3714 22.3899 8.99088 22.341 8.45136C22.3106 8.11465 21.6826 7.98819 21.2178 8.22513C21.141 8.26424 19.2793 8.48258 17.8399 8.62129C16.3846 8.76153 14.5487 8.89475 13.5631 8.93163C13.3009 8.94145 13.1395 8.9573 13.0998 8.97714C13.0476 9.00318 13.021 9.002 12.9158 8.96895C12.8333 8.94303 12.7134 8.93012 12.5514 8.9297C12.3153 8.92911 12.31 8.92796 12.3119 8.87738C12.3144 8.80875 12.3172 8.80911 11.6432 8.79371C6.25072 8.67052 2.63742 8.48655 0.684515 8.23576C0.457062 8.20655 0.433767 8.20726 0.433767 8.24341C0.433767 8.30667 0.61994 8.48165 0.767094 8.5567C0.952267 8.65113 0.955058 8.6925 0.778405 8.72435C0.589012 8.75849 0.594723 8.73636 0.669079 9.14804C0.967368 10.7995 1.4059 11.1734 2.33168 10.5654C2.86413 10.2158 6.2759 9.85361 8.52752 9.90774C8.914 9.91704 9.18048 9.91306 9.30931 9.89609C9.4168 9.88193 9.56372 9.86498 9.6358 9.85843C9.70787 9.85188 9.77898 9.83204 9.79382 9.81435C9.80866 9.79666 9.86025 9.78219 9.90846 9.78219C9.95667 9.78219 10.0253 9.77035 10.0609 9.75588C10.3046 9.65684 12.1605 9.6188 12.1605 9.71285C12.1605 9.72936 12.065 9.81942 11.8435 10.0118C11.7917 10.0568 11.5237 10.2614 11.2479 10.4666C10.8297 10.7777 10.5503 10.9924 10.4245 11.0996C10.4119 11.1103 10.2736 11.2539 10.1172 11.4185C9.47408 12.0957 8.80248 12.5617 8.2253 12.7313C8.14458 12.755 8.11188 12.7783 8.09343 12.8251C8.06235 12.9041 7.96204 13.0807 7.9306 13.1118C7.86379 13.1779 7.94774 13.2231 8.04331 13.1725ZM2.41122 6.50957C2.41122 6.48634 2.44588 6.42236 2.48823 6.36739C2.59458 6.22937 2.64116 6.13385 2.64116 6.05379C2.64116 5.96486 2.61051 5.97629 3.16119 5.85987C4.3933 5.59939 4.92103 5.53244 5.86426 5.51694C10.8395 5.4352 12.2999 5.39004 13.8811 5.26899C14.2835 5.23818 14.2828 5.23798 14.3933 5.41037C14.6321 5.78295 13.9559 6.02785 12.9078 5.94834C12.8066 5.94067 12.3255 5.93143 11.8386 5.92781C10.9534 5.92122 10.9534 5.92122 10.4726 5.82544C9.7709 5.68563 9.5654 5.69374 9.36337 5.86924C9.26861 5.95155 9.29891 5.95126 9.07178 5.87205C8.49758 5.67181 7.78723 5.65955 6.64205 5.83011C6.25633 5.88756 5.80623 5.94585 5.64182 5.95964C4.78764 6.03129 3.98658 6.17775 2.95896 6.45014C2.53174 6.56338 2.41122 6.57646 2.41122 6.50957Z" fill="#28A8DD"/>
<path d="M11.3098 31.9594C8.63077 31.8459 6.76817 31.4935 5.28167 30.8186C5.06469 30.7201 5.09724 30.7861 4.86323 29.9711C4.45566 28.5518 4.14588 27.2658 3.81401 25.6157C3.64577 24.7791 3.56699 24.4294 3.17848 22.7948C2.48134 19.8615 2.21657 18.5127 2.06421 17.1188C2.02157 16.7287 2.10084 16.2508 2.22928 16.1237C2.31315 16.0408 2.3242 15.8838 2.25092 15.8162C2.21741 15.7853 2.20006 15.7255 2.18435 15.5866C2.17215 15.4787 2.14836 15.3823 2.12847 15.3602C2.08438 15.3111 2.06723 15.167 2.04759 14.6808C2.03892 14.4659 2.0235 14.282 2.01333 14.272C1.99115 14.2501 1.95219 14.3052 1.9517 14.3591C1.94924 14.6278 1.74628 14.1151 1.62893 13.5437C1.32422 12.06 0.824134 10.5857 0.939177 11.5102C0.97965 11.8355 1.05423 12.1552 1.26836 12.9216C1.51991 13.8219 1.6345 14.4593 1.58334 14.6737C1.51023 14.9801 1.03782 13.1401 0.765546 11.4884C0.696449 11.0692 0.592699 10.4396 0.53499 10.0893C0.406041 9.30649 0.286095 8.71862 0.122211 8.0662C-0.0418303 7.41316 -0.0371952 7.30724 0.166661 7.05038C0.586872 6.52092 1.81997 6.10931 1.95326 6.45401C2.04462 6.69026 1.77536 6.85392 1.0431 7.00721C0.408445 7.14006 0.349745 7.23505 0.694272 7.57168C1.03872 7.90824 3.03659 8.20903 5.40039 8.28024C9.58335 8.40623 12.2396 8.43951 12.9883 8.37529C13.7278 8.31186 13.7723 8.31229 13.896 8.38397C14.0062 8.44788 14.0062 8.44788 14.1468 8.41332C14.2875 8.37873 14.3213 8.3796 14.8117 8.43049C14.9185 8.44157 14.9698 8.43439 15.0692 8.3945C15.1794 8.35026 15.2031 8.3479 15.2807 8.37344C15.4418 8.42645 16.9772 8.41115 17.518 8.35115C19.022 8.18431 20.8022 7.77804 21.3942 7.46656C21.4639 7.42989 21.9218 7.32009 22.2202 7.26848C22.5068 7.21891 22.692 7.17522 22.8296 7.12472C22.956 7.07829 22.956 7.07829 22.9709 7.27572C23.0369 8.15342 22.9382 9.56981 22.7605 10.294C22.7138 10.484 22.659 10.7871 22.5772 11.3064C22.5506 11.4753 22.5176 11.6359 22.5037 11.6632C22.4898 11.6905 22.4848 11.7366 22.4924 11.7655C22.5001 11.7945 22.4809 12.0229 22.4498 12.2732C22.2861 13.59 22.1831 14.9255 22.025 17.7786C21.8851 20.3036 21.8052 21.4431 21.6898 22.5559C21.6587 22.8562 21.618 23.3066 21.5993 23.5569C21.5057 24.8133 21.3646 25.9798 21.1246 27.4811C21.0426 27.9944 21.0311 28.115 21.0248 28.5276C21.0012 30.0832 20.4248 30.9667 19.3318 31.1224C19.2258 31.1376 19.0046 31.189 18.8402 31.2367C17.5075 31.6238 16.0859 31.8291 14.138 31.9156C12.5583 31.9858 12.1015 31.9929 11.3098 31.9594ZM5.88314 29.6064C5.59948 28.4621 5.43354 27.9188 5.234 27.4811C5.02041 27.0126 4.97187 26.9505 4.99826 27.1797C5.11952 28.2331 5.41178 29.21 5.88748 30.152C6.13831 30.6488 6.1382 30.6354 5.88314 29.6064ZM5.3859 30.3646C5.46869 30.0589 5.33628 29.416 4.95075 28.2517C4.73085 27.5876 4.5688 27.01 4.53828 26.7816C4.51828 26.6319 4.49749 26.6192 4.41141 26.7044C4.27335 26.841 4.31509 27.1236 4.62603 28.1576C4.7097 28.4358 4.79 28.7531 4.80447 28.8628C4.88954 29.5072 5.31822 30.6144 5.3859 30.3646ZM13.1825 26.9767C13.6021 26.7017 13.547 25.9003 13.091 25.6448C12.6805 25.4148 12.4601 25.916 12.6344 26.6832C12.7126 27.0273 12.9287 27.143 13.1825 26.9767ZM11.9458 26.9161C12.2587 26.7574 12.3626 26.2278 12.1665 25.791C11.9733 25.3604 11.5856 25.5787 11.5157 26.1573C11.5056 26.241 11.4817 26.4078 11.4627 26.5279C11.3944 26.9586 11.5754 27.104 11.9458 26.9161ZM4.33259 26.1243C4.38275 25.7271 4.27872 25.1533 3.94218 23.9706C3.84671 23.6351 3.73664 23.2 3.69757 23.0037C3.56983 22.362 3.37643 22.0493 3.46984 22.6355C3.51518 22.9201 3.77115 24.2187 3.82633 24.4441C3.85696 24.5692 3.9087 24.8848 3.94131 25.1454C4.02252 25.7945 4.09376 26.0517 4.23385 26.2015C4.30329 26.2757 4.31458 26.2669 4.33259 26.1243ZM11.2468 25.3882C11.481 25.2632 11.7201 25.2061 12.009 25.2063C12.2313 25.2065 12.3989 25.2291 13.0343 25.3452C13.8097 25.4868 14.2655 25.3802 14.2117 25.0698C14.0898 24.3666 13.7284 24.2123 12.6186 24.3895C11.9713 24.4929 11.5025 24.4977 11.239 24.4038C11.0309 24.3296 11.0436 24.3302 10.8892 24.3874C10.3306 24.5941 10.3552 25.2529 10.9281 25.4326C11.0052 25.4568 11.0701 25.4772 11.0723 25.4779C11.0745 25.4786 11.153 25.4382 11.2468 25.3882ZM9.65416 23.9292C11.4057 23.5321 11.9705 21.3651 10.588 20.3461C9.674 19.6723 9.09138 19.6341 7.60282 20.1503C7.2906 20.2586 7.14208 20.3002 7.1257 20.284C7.10932 20.2678 7.10192 20.2728 7.10192 20.2999C7.10192 20.3215 7.08727 20.3448 7.06937 20.3516C7.00145 20.3774 6.92424 20.5287 6.9197 20.6448C6.91695 20.7155 6.88162 20.841 6.82635 20.9767C6.16981 22.5878 7.84696 24.3389 9.65416 23.9292ZM7.43533 22.689C6.74631 22.5872 6.59781 22.0068 7.1252 21.4768C7.50831 21.0919 7.9544 21.0586 8.2819 21.3904C8.92992 22.0471 8.41691 22.8341 7.43533 22.689ZM16.1714 23.6101C17.3745 23.4102 18.1288 22.0417 17.6327 20.9592C16.471 18.4244 12.2989 19.642 13.2139 22.2489C13.6051 23.3634 14.6797 23.858 16.1714 23.6101ZM13.8276 22.5581C13.2913 22.4275 13.1173 21.9426 13.4047 21.3794C13.764 20.6752 14.5327 20.6835 14.912 21.3957C15.141 21.8258 15.0891 21.9691 14.7176 21.9321C14.3835 21.8988 14.2739 21.946 14.4373 22.0529C14.5563 22.1309 14.7085 22.2665 14.7378 22.3208C14.8296 22.4903 14.2112 22.6516 13.8276 22.5581ZM12.4895 14.7741C12.5065 14.7154 12.4984 14.6867 12.4393 14.5945C11.9875 13.8895 12.4916 12.9099 13.2054 13.106C13.4974 13.1862 13.4984 13.3457 13.2108 13.9676C12.9392 14.555 12.96 14.6619 13.346 14.6619C13.6194 14.6619 13.6067 14.6806 13.6323 14.2386C13.698 13.1025 14.0442 12.7191 14.7818 12.9659C14.9732 13.03 14.9765 13.0338 15.0343 13.2595C15.2559 14.1255 15.5583 14.3712 16.3569 14.3344C16.9233 14.3083 17.0493 14.1895 17.2662 13.4772C17.4509 12.8707 17.5789 12.7221 17.9609 12.6704C18.0525 12.658 18.1739 12.6383 18.2308 12.6265C18.4722 12.5766 18.7112 12.6117 18.7739 12.7064C18.8273 12.787 18.8586 12.7508 18.8462 12.6229C18.8354 12.5121 18.8354 12.5121 19.728 12.5121C20.5874 12.5121 20.6214 12.5105 20.6444 12.468C20.665 12.4299 20.7018 12.4223 20.9154 12.4117C21.4237 12.3866 21.5529 12.3724 21.5918 12.3378C21.6217 12.3112 21.6804 12.305 21.8551 12.31C22.0798 12.3165 22.0798 12.3165 22.1077 12.2152C22.123 12.1596 22.1563 12.0577 22.1816 11.9889C22.2184 11.889 22.231 11.7789 22.2437 11.4429C22.2612 10.9832 22.2774 10.8365 22.3391 10.5784C22.3886 10.3714 22.3899 8.99088 22.341 8.45136C22.3106 8.11465 21.6826 7.98819 21.2178 8.22513C21.141 8.26424 19.2793 8.48258 17.8399 8.62129C16.3846 8.76153 14.5487 8.89475 13.5631 8.93163C13.3009 8.94145 13.1395 8.9573 13.0998 8.97714C13.0476 9.00318 13.021 9.002 12.9158 8.96895C12.8333 8.94303 12.7134 8.93012 12.5514 8.9297C12.3153 8.92911 12.31 8.92796 12.3119 8.87738C12.3144 8.80875 12.3172 8.80911 11.6432 8.79371C6.25072 8.67052 2.63742 8.48655 0.684515 8.23576C0.457062 8.20655 0.433767 8.20726 0.433767 8.24341C0.433767 8.30667 0.61994 8.48165 0.767094 8.5567C0.952267 8.65113 0.955058 8.6925 0.778405 8.72435C0.589012 8.75849 0.594723 8.73636 0.669079 9.14804C0.967368 10.7995 1.4059 11.1734 2.33168 10.5654C2.77223 10.2761 4.55112 10.0393 7.10477 9.93001C9.14051 9.84288 8.68375 9.97084 6.00972 10.2368C4.69251 10.3678 4.07334 10.4524 3.43444 10.5887C3.29532 10.6184 3.10885 10.6479 3.02005 10.6543C2.24655 10.7099 1.508 11.6316 1.89623 12.0567C2.01099 12.1824 2.17698 12.239 2.49465 12.2609C2.63538 12.2706 2.76027 12.2845 2.77219 12.2917C2.78411 12.299 2.93282 12.3302 3.10265 12.3609C3.46438 12.4264 3.53813 12.4511 3.55431 12.5124C3.56521 12.5536 3.58606 12.5576 3.79071 12.5576C3.99446 12.5576 4.01817 12.5621 4.04779 12.6062C4.07505 12.6468 4.10943 12.6567 4.25666 12.666C4.3897 12.6745 4.44245 12.6877 4.47183 12.7198C4.49681 12.7471 4.54197 12.7623 4.59782 12.7623C4.6457 12.7623 4.69127 12.7726 4.69909 12.7851C4.7069 12.7976 4.76634 12.8078 4.83117 12.8078C4.92179 12.8078 4.96178 12.8197 5.00407 12.859C5.05669 12.908 5.07903 12.9105 5.51514 12.9176C5.93072 12.9243 5.97474 12.9288 6.01126 12.9688C6.05292 13.0143 6.27415 13.0344 6.27415 12.9926C6.27415 12.9129 6.67107 12.8466 7.1824 12.8409C7.54904 12.8368 7.68646 12.8262 7.86027 12.7884C8.14905 12.7256 8.1586 12.7402 7.99971 13.0012C7.96163 13.0638 7.92052 13.1372 7.90837 13.1643C7.89621 13.1914 7.85801 13.2273 7.82349 13.2439C7.78896 13.2606 7.71969 13.3338 7.66955 13.4067C7.60014 13.5076 7.55032 13.5523 7.46086 13.5942C7.075 13.7748 6.7618 14.0818 6.96347 14.0818C7.01521 14.0818 7.08227 14.0978 7.11247 14.1174C7.16231 14.1497 7.17384 14.1497 7.23699 14.1174C7.27526 14.0978 7.32114 14.0818 7.33894 14.0818C7.35674 14.0818 7.41103 14.0178 7.45957 13.9396C7.61248 13.6933 8.24853 13.1091 8.3301 13.1401C8.35396 13.1492 8.37257 13.137 8.38477 13.1044C8.40195 13.0584 8.42112 13.0543 8.65509 13.0471C8.95169 13.0379 9.15009 13.0158 9.18467 12.9879C9.19966 12.9759 9.27069 12.9914 9.36412 13.0271C9.62997 13.1287 9.6494 13.2422 9.42146 13.3619C9.01838 13.5735 8.95014 14.0315 9.26838 14.3892C9.54262 14.6974 10.0033 14.6356 9.74255 14.3255C9.24541 13.7345 9.59369 13.2403 10.643 13.0478C11.3119 12.9251 12.2934 13.1351 12.1128 13.3623C11.956 13.5595 11.9561 13.8344 12.1132 14.468C12.1518 14.6241 12.1835 14.7755 12.1835 14.8046C12.1835 14.8984 12.4617 14.8707 12.4895 14.7741ZM15.8598 13.9594C15.1933 13.7238 15.201 12.996 15.8698 13.0152C16.0564 13.0205 16.097 13.0142 16.2189 12.9606C16.6945 12.7515 17.1416 13.0954 17.0035 13.5642C16.9222 13.8399 16.7597 13.9438 16.3684 13.9701C16.0074 13.9944 15.9557 13.9933 15.8598 13.9594ZM2.41122 6.50957C2.41122 6.48634 2.44588 6.42236 2.48823 6.36739C2.59458 6.22937 2.64116 6.13385 2.64116 6.05379C2.64116 5.96486 2.61051 5.97629 3.16119 5.85987C4.3933 5.59939 4.92103 5.53244 5.86426 5.51694C10.8395 5.4352 12.2999 5.39004 13.8811 5.26899C14.2835 5.23818 14.2828 5.23798 14.3933 5.41037C14.6321 5.78295 13.9559 6.02785 12.9078 5.94834C12.8066 5.94067 12.3255 5.93143 11.8386 5.92781C10.9534 5.92122 10.9534 5.92122 10.4726 5.82544C9.7709 5.68563 9.5654 5.69374 9.36337 5.86924C9.26861 5.95155 9.29891 5.95126 9.07178 5.87205C8.49758 5.67181 7.78723 5.65955 6.64205 5.83011C6.25633 5.88756 5.80623 5.94585 5.64182 5.95964C4.78764 6.03129 3.98658 6.17775 2.95896 6.45014C2.53174 6.56338 2.41122 6.57646 2.41122 6.50957Z" fill="#3698A6"/>
<path d="M11.7346 31.971C8.70895 31.8107 7.26855 31.5753 5.76776 30.9957C5.115 30.7436 5.1133 30.7425 5.04661 30.526C4.64239 29.2136 4.22077 27.5136 3.86841 25.7753C3.66347 24.7643 3.59272 24.4494 3.18309 22.7251C2.14397 18.3511 1.8826 16.5546 2.2286 16.1647C2.31351 16.069 2.32502 15.885 2.2504 15.8162C2.21688 15.7853 2.19953 15.7255 2.18382 15.5866C2.17163 15.4787 2.14783 15.3823 2.12794 15.3601C2.08377 15.311 2.06666 15.1667 2.04707 14.678C2.03476 14.3712 2.02396 14.2803 1.9979 14.2644C1.951 14.2358 1.92795 14.2564 1.92709 14.3277C1.92459 14.5374 1.73745 13.9844 1.62834 13.4448C1.29368 11.7897 0.701925 10.3035 0.952511 11.7474C0.993747 11.985 1.11442 12.4604 1.29237 13.0863C1.44462 13.6218 1.52986 14.0296 1.55751 14.3547C1.64561 15.3909 1.08317 13.3087 0.789393 11.5111C0.386814 9.04773 0.272832 8.46538 0.0502504 7.73472C-0.0458402 7.41929 5.56083e-05 7.25437 0.258202 6.98748C0.801366 6.42591 2.03142 6.11323 1.94117 6.55966C1.90392 6.74397 1.6573 6.86004 1.03241 6.98739C0.385999 7.11913 0.320528 7.22919 0.679691 7.58033C0.962686 7.857 2.50787 8.14603 4.29617 8.2568C4.62873 8.2774 5.01729 8.29047 7.0554 8.3496C9.79907 8.4292 12.3348 8.4497 12.9763 8.39748C13.7222 8.33674 13.8082 8.33647 13.9126 8.39456C13.9966 8.44123 14.0177 8.44414 14.1122 8.42197C14.2131 8.3983 14.2908 8.40176 14.8304 8.45394C14.9388 8.46443 14.9807 8.4568 15.0864 8.40729C15.1947 8.3566 15.2223 8.35183 15.2787 8.37408C15.4081 8.42512 16.9981 8.40884 17.5175 8.35116C19.0224 8.18405 20.8017 7.77796 21.3937 7.46652C21.4634 7.42985 21.9212 7.32006 22.2197 7.26844C22.5102 7.21819 22.6937 7.1752 22.8129 7.12947C23.0146 7.05204 23.0623 8.10819 22.9086 9.24606C22.8245 9.8679 22.8058 9.98842 22.7618 10.1916C22.736 10.3105 22.7005 10.4743 22.6828 10.5556C22.428 11.7296 22.2085 14.0634 22.0015 17.8013C21.8512 20.515 21.7789 21.5201 21.634 22.9085C21.6099 23.1399 21.5838 23.4266 21.5761 23.5454C21.5081 24.5935 21.3559 25.856 21.0924 27.5551C21.0107 28.0824 20.9936 28.2435 21.0044 28.3855C21.1159 29.8455 20.4348 30.9328 19.2995 31.1072C19.1857 31.1246 18.9104 31.1912 18.6878 31.2552C17.5631 31.5781 16.2871 31.7709 14.6088 31.8714C13.5224 31.9364 12.0472 31.9875 11.7346 31.971ZM11.6349 31.6495C11.7193 31.566 11.4701 31.5263 10.3895 31.4509C10.1302 31.4328 9.78877 31.4028 9.63069 31.3842C8.76702 31.2824 8.08268 31.2766 8.33591 31.3732C8.79492 31.5482 11.5076 31.7755 11.6349 31.6495ZM6.11267 30.4755C6.11267 30.4167 5.70215 28.7898 5.59817 28.4365C5.40633 27.7847 5.06571 26.9806 4.98146 26.9806C4.90268 26.9806 5.09813 28.0872 5.28684 28.7095C5.53562 29.53 6.11267 30.764 6.11267 30.4755ZM5.40289 30.3797C5.48267 30.0152 5.36706 29.4428 4.97368 28.2545C4.75745 27.6014 4.59283 27.018 4.55965 26.7872C4.53843 26.6396 4.51613 26.6117 4.44499 26.6438C4.23963 26.7363 4.27134 27.0613 4.5865 28.0937C4.66836 28.3619 4.75117 28.6843 4.77054 28.8103C4.89471 29.618 5.33205 30.7034 5.40289 30.3797ZM13.1743 27.0066C13.5408 26.7767 13.6049 26.2505 13.3159 25.8441C12.8368 25.1702 12.3437 25.8337 12.6301 26.767C12.7168 27.0497 12.9453 27.1503 13.1743 27.0066ZM11.9453 26.9387C12.3436 26.736 12.4104 25.9623 12.061 25.5986C11.8522 25.3812 11.5458 25.6954 11.4906 26.1835C11.4789 26.2865 11.4595 26.4133 11.4474 26.4653C11.3391 26.9291 11.557 27.1362 11.9453 26.9387ZM4.3517 26.1257C4.40516 25.7835 4.29311 25.1417 3.99586 24.0876C3.88179 23.6831 3.75264 23.1752 3.70886 22.9589C3.60246 22.4333 3.42241 22.0767 3.42241 22.3915C3.42241 22.5504 3.67758 23.9245 3.80146 24.4327C3.83348 24.564 3.886 24.8814 3.91817 25.1379C4.00353 25.8186 4.05774 26.0222 4.19618 26.1822C4.30015 26.3024 4.32553 26.2932 4.3517 26.1257ZM11.2489 25.3882C11.6588 25.1656 12.0026 25.1524 12.9073 25.3243C14.1055 25.5521 14.5852 25.2085 13.9874 24.5506C13.7426 24.2812 13.4866 24.2521 12.5969 24.3922C12.0031 24.4857 11.4915 24.4936 11.2747 24.4126C11.011 24.3139 10.8452 24.3482 10.6417 24.5434C10.2937 24.8773 10.5265 25.3797 11.0746 25.4779C11.0784 25.4786 11.1568 25.4382 11.2489 25.3882ZM9.68188 23.9457C9.93477 23.8822 9.99907 23.8527 10.3969 23.6174C11.7154 22.8376 11.7177 20.9473 10.401 20.1959C10.3125 20.1453 10.1831 20.0708 10.1136 20.0303C9.48187 19.6622 8.87501 19.6821 7.65324 20.1112C7.43192 20.189 7.22188 20.2519 7.18648 20.2512C7.13872 20.2501 7.11661 20.2641 7.10082 20.3052C7.08911 20.3356 7.07069 20.3606 7.05987 20.3606C7.00813 20.3606 6.89445 20.564 6.89445 20.6566C6.89445 20.7147 6.85907 20.8386 6.80369 20.9745C6.14136 22.5998 7.88257 24.3973 9.68188 23.9457ZM7.37598 22.6581C6.76496 22.5557 6.64912 22.0093 7.13136 21.5043C7.50429 21.1138 7.92214 21.0762 8.2518 21.4036C8.9241 22.0712 8.39512 22.8288 7.37598 22.6581ZM16.2072 23.6251C17.6678 23.3377 18.2602 21.7489 17.3732 20.4982C16.0252 18.5976 12.7069 19.7029 13.1039 21.9204C13.3412 23.2459 14.6053 23.9403 16.2072 23.6251ZM13.8479 22.5438C13.2102 22.4187 13.0934 21.6457 13.6312 21.11C14.1055 20.6376 14.7796 20.91 14.9993 21.6628C15.0677 21.8973 15.0252 21.93 14.674 21.913C14.269 21.8933 14.2367 21.9298 14.492 22.1193C14.6943 22.2695 14.7548 22.3459 14.7119 22.3971C14.6066 22.5225 14.1419 22.6015 13.8479 22.5438ZM13.873 17.0514C14.0374 17.0448 14.2081 17.0333 14.2524 17.026C14.2967 17.0187 14.3639 17.0092 14.4019 17.0049C14.4398 17.0006 14.5174 16.9912 14.5743 16.9841C14.6312 16.9769 14.714 16.9665 14.7583 16.9609C14.8025 16.9554 14.875 16.9451 14.9192 16.938C14.9635 16.9309 15.0307 16.9207 15.0687 16.9153C15.1386 16.9054 15.3686 16.8659 15.724 16.8029C17.2484 16.5324 18.3115 16.0464 19.4518 15.0988C19.485 15.0712 19.5561 15.0128 19.6098 14.969C19.6634 14.9252 19.751 14.8484 19.8045 14.7984C19.858 14.7483 19.9715 14.6459 20.0569 14.5709C20.1423 14.4958 20.2664 14.3832 20.3327 14.3206C20.57 14.0967 20.8243 13.8695 21.0383 13.6903C21.0937 13.6439 21.17 13.5798 21.208 13.5477C21.2459 13.5157 21.3257 13.4513 21.3853 13.4046C21.4612 13.3451 21.4981 13.2972 21.5087 13.2446C21.5224 13.1772 21.531 13.1703 21.5948 13.1764C21.6504 13.1817 21.6717 13.1713 21.6938 13.1281C21.7093 13.0979 21.7382 13.0641 21.7581 13.0531C21.7838 13.0388 21.7943 12.9987 21.7943 12.9144C21.7943 12.8133 21.8019 12.7925 21.8461 12.7734C21.8745 12.761 21.9009 12.7293 21.9047 12.7029C21.9085 12.6764 21.9362 12.6437 21.9661 12.6302C22.011 12.61 22.0235 12.5822 22.0368 12.4736C22.0457 12.4009 22.0605 12.3312 22.0697 12.3187C22.0789 12.3062 22.0974 12.255 22.1107 12.2049C22.124 12.1549 22.1557 12.0576 22.1811 11.9888C22.2179 11.8889 22.2304 11.779 22.2432 11.4428C22.2607 10.9831 22.2768 10.8365 22.3386 10.5784C22.3881 10.3714 22.3894 8.99084 22.3405 8.45132C22.31 8.11461 21.6821 7.98815 21.2172 8.22509C21.1405 8.26421 19.2778 8.48266 17.8394 8.62124C16.7301 8.72811 15.3087 8.83817 14.2984 8.89542C14.0518 8.90939 13.6845 8.93081 13.4821 8.94301C13.0028 8.97192 12.9214 8.97092 12.8784 8.93565C12.8532 8.91498 12.765 8.90731 12.5797 8.9097C12.3293 8.91294 12.3174 8.91098 12.3285 8.86864C12.3473 8.79758 12.2834 8.78882 11.6311 8.77299C5.92006 8.63441 2.8123 8.47563 0.652282 8.21207C0.411308 8.18267 0.410245 8.18276 0.410245 8.23274C0.410245 8.3027 0.603519 8.49465 0.753711 8.57385C0.921716 8.66244 0.926533 8.68291 0.783892 8.70208C0.556571 8.73264 0.563205 8.70289 0.664 9.23974C0.959998 10.8163 1.45818 11.2119 2.34979 10.5784C2.62072 10.3859 4.1367 10.1266 5.53782 10.0332C6.1498 9.99239 6.26399 9.98638 7.0784 9.95212C8.01905 9.91256 8.24577 9.91024 8.21516 9.94053C8.18499 9.97037 7.35239 10.0861 6.65301 10.1577C4.59981 10.3679 4.32652 10.4022 3.58337 10.543C3.36205 10.5849 3.08785 10.6306 2.97403 10.6446C1.74205 10.7959 1.31845 12.1948 2.47967 12.2772C2.89419 12.3067 3.53738 12.4569 3.53738 12.5242C3.53738 12.5514 3.58177 12.5576 3.77601 12.5576C3.99423 12.5576 4.01743 12.5617 4.04726 12.6062C4.07452 12.6468 4.1089 12.6566 4.25613 12.666C4.38917 12.6744 4.44192 12.6876 4.47131 12.7197C4.49628 12.747 4.54144 12.7623 4.59729 12.7623C4.64517 12.7623 4.69074 12.7725 4.69856 12.7851C4.70637 12.7976 4.76581 12.8078 4.83065 12.8078C4.92126 12.8078 4.96125 12.8196 5.00354 12.859C5.05612 12.9079 5.07862 12.9105 5.51088 12.9175C5.91421 12.9241 5.96819 12.9295 6.00919 12.9673C6.07229 13.0254 6.2712 13.0377 6.32285 12.9866C6.40456 12.9057 6.76243 12.8483 7.16237 12.8519C7.49268 12.8549 7.86822 12.82 8.02688 12.7715C8.13415 12.7388 7.90009 13.1952 7.78545 13.2423C7.75067 13.2566 7.72202 13.2799 7.72178 13.294C7.72042 13.3741 7.57725 13.5396 7.46323 13.5929C6.48069 14.052 6.46328 15.0503 7.42701 15.6701C8.0513 16.0716 8.16769 16.1416 8.43502 16.2757C9.06458 16.5916 9.89526 16.8481 10.5734 16.9362C10.6303 16.9435 10.7028 16.9542 10.7344 16.9597C10.802 16.9717 10.975 16.9921 11.1368 17.0071C11.2 17.013 11.3035 17.023 11.3667 17.0293C11.4299 17.0356 11.5772 17.0436 11.6939 17.0471C11.8106 17.0505 11.9106 17.0578 11.9161 17.0633C11.9295 17.0765 13.4905 17.067 13.873 17.0514ZM2.43368 6.49816C2.43368 6.48119 2.46834 6.42232 2.5107 6.36735C2.61665 6.22984 2.66362 6.13386 2.66362 6.05487C2.66362 6.00435 2.6763 5.98489 2.71536 5.97545C3.81474 5.7096 4.91613 5.55372 5.80225 5.53855C11.2001 5.44619 12.3414 5.41105 13.8615 5.29039C14.2659 5.2583 14.2735 5.26006 14.3689 5.40899C14.6155 5.79362 14.2421 5.92684 12.9418 5.91823C10.8646 5.90448 11.0077 5.91105 10.4752 5.80508C9.77439 5.66561 9.5545 5.67518 9.3398 5.85451C9.26735 5.91503 9.26735 5.91503 9.0282 5.83585C8.43404 5.63915 7.8437 5.63536 6.56104 5.82004C6.11841 5.88377 5.61614 5.94608 5.44488 5.9585C4.84826 6.00178 4.19916 6.12093 3.19413 6.37167C2.5456 6.53346 2.43368 6.55208 2.43368 6.49816Z" fill="#008ECF"/>
<path d="M11.7346 31.971C8.70895 31.8107 7.26855 31.5753 5.76776 30.9957C5.115 30.7436 5.1133 30.7425 5.04661 30.526C4.64239 29.2136 4.22077 27.5136 3.86841 25.7753C3.66347 24.7643 3.59272 24.4494 3.18309 22.7251C2.14654 18.3619 1.8821 16.5489 2.2266 16.1674C2.34088 16.0409 2.43279 16.1893 2.53397 16.6638C3.11098 19.3696 4.05408 22.912 4.75976 25.0241C5.02373 25.8142 4.97901 25.7385 5.1719 25.7225C5.37188 25.7059 5.3751 25.7127 5.27532 25.9426C5.09019 26.369 5.18157 26.585 5.76201 27.093C6.00814 27.3084 5.98539 27.3715 5.67753 27.3277C5.46432 27.2973 5.47861 27.2677 5.55812 27.5744C5.59509 27.717 5.64686 27.936 5.67318 28.0612C6.0781 29.9863 6.48469 30.67 7.32624 30.8407C9.927 31.3685 12.8949 31.4596 16.8189 31.132C18.3606 31.0032 19.5617 30.5293 19.946 29.8979C20.0453 29.7347 20.048 29.7422 19.8839 29.7253C19.619 29.6979 19.626 29.6344 19.9065 29.5193C20.3221 29.3489 20.4518 29.2148 20.4454 28.9623C20.4426 28.8528 20.4587 28.7635 20.507 28.6196C20.671 28.1315 20.7043 27.7527 20.6662 26.8087C20.6341 26.0123 20.6438 25.6962 20.7096 25.3995C20.8112 24.9412 20.8655 24.4842 20.9553 23.3293C21.0162 22.5463 21.0612 22.1057 21.1156 21.7596C21.1668 21.4339 21.1931 21.0865 21.2302 20.2468C21.2722 19.2955 21.2988 18.9306 21.3588 18.4837C21.4334 17.928 21.4461 17.8863 21.5819 17.7519C21.7766 17.5593 21.7708 17.4243 21.5547 17.1121C21.2248 16.6354 21.2245 16.3856 21.5537 16.0853C21.6798 15.9704 21.6838 15.8033 21.5872 14.7074C21.4848 13.5472 21.4867 13.1661 21.5949 13.1764C21.6504 13.1817 21.6717 13.1713 21.6938 13.1281C21.7093 13.0979 21.7382 13.0641 21.7581 13.0531C21.7838 13.0388 21.7943 12.9987 21.7943 12.9144C21.7943 12.8133 21.8019 12.7925 21.8461 12.7734C21.8745 12.761 21.9009 12.7293 21.9047 12.7029C21.9085 12.6764 21.9362 12.6437 21.9661 12.6302C22.011 12.61 22.0235 12.5822 22.0368 12.4736C22.0457 12.4009 22.0605 12.3312 22.0697 12.3187C22.0789 12.3062 22.0974 12.255 22.1107 12.2049C22.124 12.1549 22.1557 12.0576 22.1811 11.9888C22.2179 11.8889 22.2304 11.779 22.2432 11.4428C22.2607 10.9831 22.2768 10.8365 22.3386 10.5784C22.3881 10.3714 22.3894 8.99084 22.3405 8.45132C22.31 8.11461 21.6821 7.98815 21.2172 8.22509C21.1405 8.26421 19.2778 8.48266 17.8394 8.62124C16.7301 8.72811 15.3087 8.83817 14.2984 8.89542C14.0518 8.90939 13.6845 8.93081 13.4821 8.94301C13.0028 8.97192 12.9214 8.97092 12.8784 8.93565C12.8532 8.91498 12.765 8.90731 12.5797 8.9097C12.3293 8.91294 12.3174 8.91098 12.3285 8.86864C12.3473 8.79758 12.2834 8.78882 11.6311 8.77299C5.92006 8.63441 2.8123 8.47563 0.652282 8.21207C0.411308 8.18267 0.410245 8.18276 0.410245 8.23274C0.410245 8.3027 0.603519 8.49465 0.753711 8.57385C0.921716 8.66244 0.926533 8.68291 0.783892 8.70208C0.556571 8.73264 0.563205 8.70289 0.664 9.23974C0.959998 10.8163 1.45818 11.2119 2.34979 10.5784C2.62072 10.3859 4.1367 10.1266 5.53782 10.0332C6.1498 9.99239 6.26399 9.98638 7.0784 9.95212C8.01905 9.91256 8.24577 9.91024 8.21516 9.94053C8.18499 9.97037 7.35239 10.0861 6.65301 10.1577C4.59981 10.3679 4.32652 10.4022 3.58337 10.543C3.36205 10.5849 3.08785 10.6306 2.97403 10.6446C1.74205 10.7959 1.31845 12.1948 2.47967 12.2772C2.6809 12.2915 3.42271 12.4302 3.49081 12.4663C3.57001 12.5082 3.54861 12.5775 3.44271 12.622C3.34804 12.6617 3.34804 12.6617 3.44435 12.7248C3.52321 12.7764 3.53569 12.7938 3.51321 12.8206C3.47142 12.8704 3.45118 12.8664 2.7643 12.6708C1.90127 12.4251 1.71514 12.407 1.95082 12.5917C2.13135 12.7332 2.10759 12.7916 1.89543 12.7279C1.70397 12.6705 1.71529 12.6134 1.80282 13.1945C1.8245 13.3384 1.84134 13.4946 1.84026 13.5415C1.83917 13.5885 1.85356 13.696 1.87223 13.7804C1.9593 14.174 1.9675 14.4474 1.88906 14.3416C1.83479 14.2683 1.70368 13.8173 1.62834 13.4448C1.29368 11.7897 0.701925 10.3035 0.952511 11.7474C0.993747 11.985 1.11442 12.4604 1.29237 13.0863C1.44462 13.6218 1.52986 14.0296 1.55751 14.3547C1.64561 15.3909 1.08317 13.3087 0.789393 11.5111C0.386814 9.04773 0.272832 8.46538 0.0502504 7.73472C-0.0458402 7.41929 5.56083e-05 7.25437 0.258202 6.98748C0.801366 6.42591 2.03142 6.11323 1.94117 6.55966C1.90392 6.74397 1.6573 6.86004 1.03241 6.98739C0.385999 7.11913 0.320528 7.22919 0.679691 7.58033C0.962686 7.857 2.50787 8.14603 4.29617 8.2568C4.62873 8.2774 5.01729 8.29047 7.0554 8.3496C9.79907 8.4292 12.3348 8.4497 12.9763 8.39748C13.7222 8.33674 13.8082 8.33647 13.9126 8.39456C13.9966 8.44123 14.0177 8.44414 14.1122 8.42197C14.2131 8.3983 14.2908 8.40176 14.8304 8.45394C14.9388 8.46443 14.9807 8.4568 15.0864 8.40729C15.1947 8.3566 15.2223 8.35183 15.2787 8.37408C15.4081 8.42512 16.9981 8.40884 17.5175 8.35116C19.0224 8.18405 20.8017 7.77796 21.3937 7.46652C21.4634 7.42985 21.9212 7.32006 22.2197 7.26844C22.5102 7.21819 22.6937 7.1752 22.8129 7.12947C23.0146 7.05204 23.0623 8.10819 22.9086 9.24606C22.8245 9.8679 22.8058 9.98842 22.7618 10.1916C22.736 10.3105 22.7005 10.4743 22.6828 10.5556C22.428 11.7296 22.2085 14.0634 22.0015 17.8013C21.8512 20.515 21.7789 21.5201 21.634 22.9085C21.6099 23.1399 21.5838 23.4266 21.5761 23.5454C21.5081 24.5935 21.3559 25.856 21.0924 27.5551C21.0107 28.0824 20.9936 28.2435 21.0044 28.3855C21.1159 29.8455 20.4348 30.9328 19.2995 31.1072C19.1857 31.1246 18.9104 31.1912 18.6878 31.2552C17.5631 31.5781 16.2871 31.7709 14.6088 31.8714C13.5224 31.9364 12.0472 31.9875 11.7346 31.971ZM11.6349 31.6495C11.7193 31.566 11.4701 31.5263 10.3895 31.4509C10.1302 31.4328 9.78877 31.4028 9.63069 31.3842C8.76702 31.2824 8.08268 31.2766 8.33591 31.3732C8.79492 31.5482 11.5076 31.7755 11.6349 31.6495ZM6.11267 30.4755C6.11267 30.4167 5.70215 28.7898 5.59817 28.4365C5.40633 27.7847 5.06571 26.9806 4.98146 26.9806C4.90268 26.9806 5.09813 28.0872 5.28684 28.7095C5.53562 29.53 6.11267 30.764 6.11267 30.4755ZM5.40289 30.3797C5.48267 30.0152 5.36706 29.4428 4.97368 28.2545C4.75745 27.6014 4.59283 27.018 4.55965 26.7872C4.53843 26.6396 4.51613 26.6117 4.44499 26.6438C4.23963 26.7363 4.27134 27.0613 4.5865 28.0937C4.66836 28.3619 4.75117 28.6843 4.77054 28.8103C4.89471 29.618 5.33205 30.7034 5.40289 30.3797ZM4.3517 26.1257C4.40516 25.7835 4.29311 25.1417 3.99586 24.0876C3.88179 23.6831 3.75264 23.1752 3.70886 22.9589C3.60246 22.4333 3.42241 22.0767 3.42241 22.3915C3.42241 22.5504 3.67758 23.9245 3.80146 24.4327C3.83348 24.564 3.886 24.8814 3.91817 25.1379C4.00353 25.8186 4.05774 26.0222 4.19618 26.1822C4.30015 26.3024 4.32553 26.2932 4.3517 26.1257ZM9.40075 28.3766C9.36914 28.3721 9.25014 28.3573 9.13633 28.3437C9.02251 28.3302 8.5931 28.2529 8.18209 28.1721C7.32786 28.004 6.88888 27.9369 6.64089 27.9364C6.3663 27.9358 6.276 27.8165 6.43281 27.6613C6.54774 27.5476 6.77015 27.573 7.45814 27.7783C7.92962 27.9189 8.28073 28.0034 8.4917 28.027C8.58067 28.0369 8.75693 28.067 8.8834 28.0939C9.07194 28.134 10.416 28.3 10.5523 28.3C10.5736 28.3 10.5965 28.3205 10.6031 28.3455C10.6145 28.3886 9.65754 28.4133 9.40075 28.3766ZM11.5736 27.3588C11.2669 27.216 11.1549 27.0008 11.0905 26.4299C11.0034 25.6589 10.8807 25.4869 10.3401 25.3779C10.2121 25.3522 10.1929 24.9388 10.308 24.69C10.43 24.4265 10.7077 24.123 11.1578 23.7616C11.2824 23.6615 11.451 23.5159 11.5323 23.4381C11.7115 23.2668 11.736 23.2603 12.1945 23.2635C13.2238 23.2707 14.2747 24.0751 14.5946 25.1005C14.6791 25.3711 14.6699 25.385 14.2179 25.674C13.6569 26.0326 13.5381 26.2154 13.6079 26.613C13.7158 27.2271 13.4353 27.4168 12.6979 27.2285C12.2062 27.1029 11.9807 27.1313 11.8207 27.3388C11.7528 27.4269 11.7246 27.4291 11.5736 27.3588ZM13.1743 27.0066C13.5408 26.7767 13.6049 26.2505 13.3159 25.8441C12.8368 25.1702 12.3437 25.8337 12.6301 26.767C12.7168 27.0497 12.9453 27.1503 13.1743 27.0066ZM11.9453 26.9387C12.3436 26.736 12.4104 25.9623 12.061 25.5986C11.8522 25.3812 11.5458 25.6954 11.4906 26.1835C11.4789 26.2865 11.4595 26.4133 11.4474 26.4653C11.3391 26.9291 11.557 27.1362 11.9453 26.9387ZM11.2489 25.3882C11.6588 25.1656 12.0026 25.1524 12.9073 25.3243C14.1055 25.5521 14.5852 25.2085 13.9874 24.5506C13.7426 24.2812 13.4866 24.2521 12.5969 24.3922C12.0031 24.4857 11.4915 24.4936 11.2747 24.4126C11.011 24.3139 10.8452 24.3482 10.6417 24.5434C10.2937 24.8773 10.5265 25.3797 11.0746 25.4779C11.0784 25.4786 11.1568 25.4382 11.2489 25.3882ZM8.57113 24.2732C6.95726 24.0029 5.85564 22.2292 6.50112 20.9403C6.76852 20.4063 7.02349 20.4352 6.80369 20.9745C6.09095 22.7235 8.27961 24.686 10.001 23.8414C11.683 23.0161 11.8987 21.0506 10.401 20.1959C10.3125 20.1453 10.1831 20.0708 10.1136 20.0303C9.4842 19.6635 8.87934 19.6823 7.66473 20.1064C7.2784 20.2413 7.23235 20.2548 7.17612 20.2495C7.1256 20.2448 7.14422 20.2148 7.29115 20.0642C8.64127 18.6811 11.5629 19.671 11.7446 21.5733C11.9036 23.2385 10.3394 24.5693 8.57113 24.2732ZM15.2641 24.0989C13.2334 23.8962 12.0076 21.9695 12.9599 20.4773C14.2281 18.4902 17.1492 18.7522 17.9885 20.9284C18.612 22.5448 17.1176 24.2839 15.2641 24.0989ZM16.2072 23.6251C17.6678 23.3377 18.2602 21.7489 17.3732 20.4982C16.0252 18.5976 12.7069 19.7029 13.1039 21.9204C13.3412 23.2459 14.6053 23.9403 16.2072 23.6251ZM13.8479 22.5438C13.2102 22.4187 13.0934 21.6457 13.6312 21.11C14.1055 20.6376 14.7796 20.91 14.9993 21.6628C15.0677 21.8973 15.0252 21.93 14.674 21.913C14.269 21.8933 14.2367 21.9298 14.492 22.1193C14.6943 22.2695 14.7548 22.3459 14.7119 22.3971C14.6066 22.5225 14.1419 22.6015 13.8479 22.5438ZM7.37598 22.6581C6.76496 22.5557 6.64912 22.0093 7.13136 21.5043C7.50429 21.1138 7.92214 21.0762 8.2518 21.4036C8.9241 22.0712 8.39512 22.8288 7.37598 22.6581ZM2.43368 6.49816C2.43368 6.48119 2.46834 6.42232 2.5107 6.36735C2.61665 6.22984 2.66362 6.13386 2.66362 6.05487C2.66362 6.00435 2.6763 5.98489 2.71536 5.97545C3.81474 5.7096 4.91613 5.55372 5.80225 5.53855C11.2001 5.44619 12.3414 5.41105 13.8615 5.29039C14.2659 5.2583 14.2735 5.26006 14.3689 5.40899C14.6155 5.79362 14.2421 5.92684 12.9418 5.91823C10.8646 5.90448 11.0077 5.91105 10.4752 5.80508C9.77439 5.66561 9.5545 5.67518 9.3398 5.85451C9.26735 5.91503 9.26735 5.91503 9.0282 5.83585C8.43404 5.63915 7.8437 5.63536 6.56104 5.82004C6.11841 5.88377 5.61614 5.94608 5.44488 5.9585C4.84826 6.00178 4.19916 6.12093 3.19413 6.37167C2.5456 6.53346 2.43368 6.55208 2.43368 6.49816Z" fill="#1B6F95"/>
<path d="M11.7007 31.9629C8.69379 31.7987 7.19916 31.5487 5.71711 30.9618C5.11242 30.7224 5.12312 30.7294 5.06002 30.5295C4.70126 29.3927 4.24037 27.5305 3.8701 25.7218C3.65455 24.6689 3.57568 24.3189 3.16695 22.6014C2.15407 18.3453 1.85044 16.1634 2.27108 16.1634C2.37065 16.1634 2.39997 16.2476 2.58393 17.062C3.32529 20.3438 4.13915 23.3601 4.80146 25.2805C4.98902 25.8244 4.9608 25.7832 5.13644 25.7692C5.32277 25.7544 5.32122 25.7511 5.22624 25.9642C5.05775 26.3422 5.16211 26.6 5.66667 27.0524C5.95069 27.3071 5.94975 27.3364 5.6589 27.2944C5.42864 27.2612 5.43236 27.2575 5.4898 27.462C5.51559 27.5538 5.58919 27.8644 5.65334 28.1522C6.08172 30.074 6.46928 30.7058 7.32692 30.8805C9.88293 31.4013 13.0904 31.4884 17.0582 31.145C18.4358 31.0257 19.6998 30.4764 20.0126 29.8609C20.0815 29.7253 20.0785 29.7196 19.9268 29.7009C19.689 29.6715 19.6922 29.6539 19.9554 29.5417C20.3489 29.3739 20.4712 29.2459 20.4758 28.9971C20.4778 28.884 20.5004 28.767 20.5491 28.6166C20.7039 28.1384 20.7403 27.6798 20.696 26.7645C20.6623 26.0679 20.6708 25.7874 20.7348 25.4785C20.8439 24.9524 20.8983 24.4813 21.0028 23.1588C21.0349 22.7521 21.0914 22.1942 21.1282 21.9189C21.1987 21.3916 21.2331 21.0044 21.2543 20.4971C21.3141 19.0675 21.3579 18.5571 21.4639 18.0532C21.4927 17.9163 21.5119 17.8801 21.6096 17.7779C21.8247 17.5529 21.8174 17.4357 21.5648 17.0566C21.2654 16.6074 21.2653 16.4462 21.5647 16.1224C21.704 15.9717 21.7121 15.7042 21.6117 14.5836C21.5372 13.7528 21.5369 13.2125 21.6108 13.1949C21.6423 13.1874 21.6803 13.1569 21.6953 13.1272C21.7103 13.0975 21.7388 13.0641 21.7587 13.0531C21.7839 13.0392 21.7949 12.9994 21.7949 12.9227C21.7949 12.8205 21.8 12.8105 21.8639 12.7885C21.9018 12.7754 21.9329 12.7486 21.9329 12.7289C21.9329 12.7092 21.9574 12.682 21.9875 12.6685C22.0531 12.6389 22.1059 12.4977 22.0867 12.4031C22.0728 12.3342 22.1026 12.2046 22.1818 11.9889C22.2185 11.8892 22.2311 11.7782 22.2438 11.4429C22.2613 10.9832 22.2774 10.8365 22.3392 10.5784C22.3887 10.3714 22.39 8.99088 22.3411 8.45136C22.3106 8.11465 21.6827 7.98819 21.2178 8.22513C21.1411 8.26424 19.2794 8.48258 17.84 8.62129C16.3879 8.76122 14.5567 8.89418 13.5632 8.93182C13.3419 8.94021 13.1414 8.95398 13.1176 8.96242C13.0938 8.97087 13.0214 8.96329 12.9566 8.94558C12.7404 8.88642 12.656 8.87595 12.4997 8.8888C12.3517 8.90098 12.3445 8.89928 12.3445 8.85206C12.3445 8.77685 12.5653 8.78747 8.73454 8.67843C5.23736 8.57889 3.12076 8.46207 1.2961 8.26789C0.328421 8.16492 0.339791 8.16431 0.433103 8.31369C0.497708 8.41711 0.617093 8.51834 0.757448 8.58871C0.895989 8.65817 0.888747 8.67992 0.720137 8.70076C0.55428 8.72126 0.556153 8.71024 0.640093 9.17173C0.942636 10.8351 1.39819 11.2156 2.34436 10.5951C2.65769 10.3897 4.05954 10.1489 5.54992 10.0446C6.48291 9.97928 8.027 9.92106 7.99535 9.95237C7.96394 9.98345 7.09178 10.0881 5.81435 10.214C4.6978 10.3241 3.98456 10.4228 3.48049 10.5369C3.36667 10.5627 3.18384 10.5917 3.07419 10.6014C1.734 10.7199 1.22311 12.209 2.48936 12.306C2.6298 12.3168 2.76022 12.3317 2.77919 12.3391C2.79816 12.3466 2.94988 12.3775 3.11635 12.4078C3.54473 12.4858 3.58905 12.5181 3.38598 12.6042C3.26235 12.6566 3.26236 12.6563 3.38277 12.7332C3.53765 12.8321 3.43633 12.8237 3.02025 12.7031C1.85923 12.3666 1.61163 12.3419 1.89655 12.5911C2.03104 12.7087 2.02417 12.7263 1.86213 12.6793C1.77754 12.6548 1.73269 12.6512 1.7161 12.6676C1.69079 12.6926 1.74975 13.1445 1.91692 14.2069C1.97393 14.5692 1.75833 14.0327 1.67423 13.603C1.41196 12.2628 0.997149 10.9859 0.883277 11.1682C0.830307 11.253 0.984141 12.0313 1.21665 12.855C1.45357 13.6942 1.56053 14.2132 1.56053 14.5237C1.56053 15.0424 1.04794 13.0104 0.803457 11.5225C0.752059 11.2097 0.653628 10.6108 0.584723 10.1917C0.436897 9.29245 0.330602 8.75729 0.191608 8.21249C0.0570534 7.6851 0.0628281 7.70507 0.0346419 7.66961C-0.0569905 7.55432 0.0409671 7.23739 0.236629 7.0161C0.710862 6.47974 1.92843 6.14053 1.92843 6.54477C1.92843 6.72305 1.67018 6.84516 0.997185 6.98511C0.366306 7.11629 0.310755 7.22583 0.683002 7.60463C0.803035 7.72677 0.852209 7.74514 1.42257 7.88088C2.56783 8.15343 3.74377 8.27195 5.83734 8.32582C6.33688 8.33868 7.08705 8.35967 7.50438 8.37247C9.6591 8.43854 12.0863 8.459 12.7814 8.41693C13.6665 8.36336 13.8321 8.36171 13.9302 8.40546C14.0099 8.44102 14.0349 8.44262 14.124 8.41793C14.1803 8.40234 14.2392 8.39739 14.2548 8.40693C14.2704 8.41647 14.3772 8.43275 14.4923 8.44311C14.6073 8.45346 14.7501 8.46823 14.8097 8.47593C14.9214 8.49037 15.0976 8.44346 15.1753 8.37861C15.2046 8.35417 15.2262 8.35318 15.2788 8.3739C15.4088 8.42516 16.9971 8.40906 17.5181 8.3512C19.023 8.1841 20.8023 7.778 21.3943 7.46656C21.4637 7.43007 21.92 7.32054 22.2203 7.26829C22.5635 7.20859 22.657 7.18699 22.7793 7.13915C22.8699 7.10368 22.908 7.098 22.9273 7.11708C22.9912 7.18024 23.0035 8.47224 22.9442 8.8836C22.9315 8.97118 22.9003 9.21176 22.8749 9.4182C22.8494 9.62465 22.7824 10.0188 22.726 10.2941C22.6407 10.7104 22.5135 11.4543 22.4712 11.7841C22.2838 13.2464 22.1528 14.8459 22.0138 17.3691C21.8435 20.461 21.7818 21.3356 21.6236 22.8971C21.5932 23.1974 21.5617 23.5506 21.5536 23.682C21.4966 24.6037 21.339 25.8957 21.0811 27.5542C21.0045 28.0469 20.9901 28.1949 20.9901 28.4918C20.9901 30.0691 20.4157 30.9369 19.2647 31.0984C19.1705 31.1116 18.9965 31.1531 18.8778 31.1907C17.643 31.5821 15.84 31.8289 13.6552 31.9055C13.4465 31.9128 13.1568 31.9283 13.0114 31.9399C12.6276 31.9705 12.0316 31.981 11.7007 31.9629ZM11.6239 31.6656C11.8569 31.5779 11.4846 31.5097 10.3891 31.4394C10.1925 31.4268 9.85418 31.3964 9.63717 31.3719C8.68517 31.2642 8.09156 31.2621 8.28977 31.3671C8.61837 31.541 11.3135 31.7824 11.6239 31.6656ZM6.13626 30.5064C6.13626 30.1081 5.35945 27.5862 5.087 27.1001C4.78559 26.5622 5.07148 28.2321 5.45407 29.2442C5.7498 30.0264 6.13626 30.7415 6.13626 30.5064ZM5.4262 30.2692C5.43694 29.7303 5.37289 29.4347 4.99709 28.2887C4.73372 27.4856 4.66401 27.2434 4.59532 26.8927C4.53497 26.5846 4.50469 26.5514 4.3922 26.6699C4.24024 26.8299 4.26979 27.0823 4.54884 28.0081C4.71351 28.5544 4.76324 28.7574 4.79037 28.9939C4.83587 29.3909 5.15668 30.2593 5.32668 30.4457C5.38391 30.5085 5.42281 30.4395 5.4262 30.2692ZM4.35179 26.2394C4.44737 25.993 4.32165 25.1955 4.01724 24.1173C3.81465 23.3997 3.743 23.1134 3.68933 22.8072C3.63111 22.4751 3.45919 22.1684 3.41262 22.3136C3.38704 22.3933 3.68842 24.0713 3.80139 24.4782C3.8205 24.547 3.86283 24.8132 3.89547 25.0697C4.00949 25.9658 4.23435 26.5422 4.35179 26.2394ZM9.49333 28.3526C9.26005 28.3351 8.71126 28.2442 8.1482 28.1298C7.43412 27.9847 7.17284 27.9431 6.74559 27.9067C6.42368 27.8792 6.42368 27.8792 6.41692 27.811C6.39392 27.5788 6.63771 27.5782 7.42397 27.8087C8.02149 27.9838 8.19402 28.0259 8.37814 28.0414C8.46666 28.0488 8.6167 28.0744 8.71155 28.0982C8.89634 28.1447 9.33883 28.2069 9.89572 28.2647C10.3764 28.3146 10.4359 28.3248 10.3786 28.3471C10.3341 28.3645 9.70419 28.3684 9.49333 28.3526ZM11.5743 27.3183C11.2829 27.1695 11.185 26.9639 11.1151 26.3546C11.0615 25.8874 11.0165 25.7405 10.8812 25.5923C10.7796 25.4811 10.6139 25.3927 10.4706 25.3733C9.95724 25.3037 10.2868 24.5327 11.1259 23.8404C11.284 23.7099 11.4818 23.5399 11.5656 23.4624C11.7444 23.2972 11.7985 23.2821 12.1951 23.2869C13.1833 23.2988 14.2185 24.093 14.5506 25.0939C14.6397 25.3625 14.6444 25.3558 14.1561 25.669C13.6076 26.0209 13.4871 26.2408 13.588 26.706C13.6895 27.1745 13.3381 27.3764 12.7354 27.1958C12.3079 27.0677 11.9549 27.1079 11.8105 27.3012C11.7524 27.379 11.7003 27.3827 11.5743 27.3183ZM13.0965 27.0598C13.7387 26.7943 13.5255 25.4341 12.8611 25.5574C12.4754 25.629 12.41 26.7794 12.778 27.0179C12.8974 27.0953 12.9833 27.1066 13.0965 27.0598ZM11.9298 26.9543C12.3589 26.7719 12.4362 25.9025 12.0529 25.5696C11.8682 25.4092 11.5657 25.6669 11.5058 26.0356C11.4996 26.0736 11.4737 26.2293 11.4482 26.3814C11.3469 26.9855 11.481 27.145 11.9298 26.9543ZM11.2707 25.3898C11.663 25.1781 12.0086 25.1635 12.8432 25.3233C13.6775 25.483 14.2528 25.415 14.2342 25.1589C14.2151 24.8952 14.1001 24.6209 13.9564 24.496C13.6806 24.2565 13.4495 24.2462 12.2986 24.4224C11.8361 24.4932 11.365 24.4637 11.1429 24.35C11.0042 24.2791 10.6673 24.4428 10.5441 24.6409C10.2635 25.0919 10.7993 25.6442 11.2707 25.3898ZM8.65601 24.2498C6.93171 23.9816 5.76874 22.0176 6.61753 20.8073C6.86883 20.449 6.96571 20.5338 6.796 20.9637C6.07546 22.7889 8.28409 24.7155 10.0686 23.8185C11.765 22.9658 11.886 20.9849 10.2946 20.1193C10.189 20.0619 10.0509 19.9855 9.98769 19.9494C9.45798 19.6477 8.78572 19.6987 7.55431 20.1344C7.13581 20.2824 7.12597 20.2772 7.37217 20.0379C8.26833 19.1669 10.0527 19.2916 11.06 20.2957C12.6964 21.9268 11.057 24.6233 8.65601 24.2498ZM15.3337 24.0656C13.4068 23.9037 12.1343 22.1539 12.8793 20.6905C14.0386 18.4131 17.3355 18.7674 18.0533 21.2465C18.4582 22.6447 16.956 24.2019 15.3337 24.0656ZM15.6834 23.6777C17.6679 23.734 18.5268 21.5302 17.0692 20.1217C16.0265 19.1141 13.9509 19.4197 13.2892 20.6782C12.5774 22.0318 13.6979 23.7891 15.2072 23.6864C15.3337 23.6778 15.548 23.6739 15.6834 23.6777ZM13.7767 22.5115C13.283 22.3589 13.1543 21.8164 13.4898 21.3029C13.9219 20.6414 14.6858 20.7952 14.9657 21.6001C15.0646 21.8844 15.0338 21.9191 14.7025 21.8968C14.286 21.8687 14.2068 21.9294 14.4427 22.0961C14.7207 22.2927 14.7704 22.3775 14.645 22.4416C14.4578 22.5374 13.9838 22.5756 13.7767 22.5115ZM7.52737 22.6593C6.9101 22.5995 6.69595 22.2784 6.94267 21.7826C7.22665 21.2119 7.8687 21.0263 8.24869 21.4051C8.8693 22.0237 8.45227 22.7488 7.52737 22.6593ZM2.44717 6.50852C2.44011 6.49723 2.48051 6.42722 2.53694 6.35295C2.64681 6.20835 2.68722 6.12476 2.68722 6.04209C2.68722 5.99272 2.71398 5.98491 3.26781 5.87268C4.8311 5.5559 4.60774 5.57202 8.34365 5.50636C11.193 5.45628 12.6968 5.40013 13.9304 5.29779C14.266 5.26994 14.3545 5.30998 14.4111 5.51536C14.5041 5.85246 14.2336 5.90433 12.4135 5.89857C10.8661 5.89367 11.1123 5.91205 10.1601 5.73042C9.76161 5.6544 9.48406 5.69318 9.34606 5.84415C9.29045 5.90499 9.26872 5.9043 9.0761 5.83555C8.73148 5.71256 8.48851 5.67845 7.96425 5.67947C7.46196 5.68045 7.40042 5.68662 6.32021 5.8445C6.06096 5.88239 5.70915 5.9242 5.53843 5.9374C4.79754 5.99471 4.02942 6.1389 2.87376 6.4376C2.49503 6.53549 2.46694 6.54016 2.44717 6.50852Z" fill="#0C0E0E"/>
</g>
<path d="M38.8823 13.668C38.6583 13.2573 38.3503 12.9447 37.9583 12.73C37.5663 12.5153 37.109 12.408 36.5863 12.408C36.0076 12.408 35.4943 12.5387 35.0463 12.8C34.5983 13.0613 34.2483 13.4347 33.9963 13.92C33.7443 14.4053 33.6183 14.9653 33.6183 15.6C33.6183 16.2533 33.7443 16.8227 33.9963 17.308C34.2576 17.7933 34.617 18.1667 35.0743 18.428C35.5316 18.6893 36.0636 18.82 36.6703 18.82C37.417 18.82 38.0283 18.624 38.5043 18.232C38.9803 17.8307 39.293 17.2753 39.4423 16.566H36.0823V15.068H41.3743V16.776C41.2436 17.4573 40.9636 18.0873 40.5343 18.666C40.105 19.2447 39.5496 19.7113 38.8683 20.066C38.1963 20.4113 37.4403 20.584 36.6003 20.584C35.6576 20.584 34.8036 20.374 34.0383 19.954C33.2823 19.5247 32.685 18.932 32.2463 18.176C31.817 17.42 31.6023 16.5613 31.6023 15.6C31.6023 14.6387 31.817 13.78 32.2463 13.024C32.685 12.2587 33.2823 11.666 34.0383 11.246C34.8036 10.8167 35.653 10.602 36.5863 10.602C37.6876 10.602 38.6443 10.8727 39.4563 11.414C40.2683 11.946 40.8283 12.6973 41.1363 13.668H38.8823ZM44.7844 10.728V20.5H42.8244V10.728H44.7844ZM55.0789 20.5H53.1189L48.6809 13.794V20.5H46.7209V10.714H48.6809L53.1189 17.434V10.714H55.0789V20.5ZM62.9798 14.676V16.328H57.0438V14.676H62.9798ZM71.9819 13.668C71.7579 13.2573 71.4499 12.9447 71.0579 12.73C70.6659 12.5153 70.2086 12.408 69.6859 12.408C69.1072 12.408 68.5939 12.5387 68.1459 12.8C67.6979 13.0613 67.3479 13.4347 67.0959 13.92C66.8439 14.4053 66.7179 14.9653 66.7179 15.6C66.7179 16.2533 66.8439 16.8227 67.0959 17.308C67.3572 17.7933 67.7166 18.1667 68.1739 18.428C68.6312 18.6893 69.1632 18.82 69.7699 18.82C70.5166 18.82 71.1279 18.624 71.6039 18.232C72.0799 17.8307 72.3926 17.2753 72.5419 16.566H69.1819V15.068H74.4739V16.776C74.3432 17.4573 74.0632 18.0873 73.6339 18.666C73.2046 19.2447 72.6492 19.7113 71.9679 20.066C71.2959 20.4113 70.5399 20.584 69.6999 20.584C68.7572 20.584 67.9032 20.374 67.1379 19.954C66.3819 19.5247 65.7846 18.932 65.3459 18.176C64.9166 17.42 64.7019 16.5613 64.7019 15.6C64.7019 14.6387 64.9166 13.78 65.3459 13.024C65.7846 12.2587 66.3819 11.666 67.1379 11.246C67.9032 10.8167 68.7526 10.602 69.6859 10.602C70.7872 10.602 71.7439 10.8727 72.5559 11.414C73.3679 11.946 73.9279 12.6973 74.2359 13.668H71.9819ZM80.46 20.598C79.5453 20.598 78.7053 20.3833 77.94 19.954C77.1747 19.5247 76.568 18.932 76.12 18.176C75.672 17.4107 75.448 16.5473 75.448 15.586C75.448 14.634 75.672 13.78 76.12 13.024C76.568 12.2587 77.1747 11.6613 77.94 11.232C78.7053 10.8027 79.5453 10.588 80.46 10.588C81.384 10.588 82.224 10.8027 82.98 11.232C83.7453 11.6613 84.3473 12.2587 84.786 13.024C85.234 13.78 85.458 14.634 85.458 15.586C85.458 16.5473 85.234 17.4107 84.786 18.176C84.3473 18.932 83.7453 19.5247 82.98 19.954C82.2147 20.3833 81.3747 20.598 80.46 20.598ZM80.46 18.848C81.048 18.848 81.566 18.7173 82.014 18.456C82.462 18.1853 82.812 17.8027 83.064 17.308C83.316 16.8133 83.442 16.2393 83.442 15.586C83.442 14.9327 83.316 14.3633 83.064 13.878C82.812 13.3833 82.462 13.0053 82.014 12.744C81.566 12.4827 81.048 12.352 80.46 12.352C79.872 12.352 79.3493 12.4827 78.892 12.744C78.444 13.0053 78.094 13.3833 77.842 13.878C77.59 14.3633 77.464 14.9327 77.464 15.586C77.464 16.2393 77.59 16.8133 77.842 17.308C78.094 17.8027 78.444 18.1853 78.892 18.456C79.3493 18.7173 79.872 18.848 80.46 18.848ZM95.2742 20.5H93.3142L88.8762 13.794V20.5H86.9162V10.714H88.8762L93.3142 17.434V10.714H95.2742V20.5ZM99.1711 10.728V20.5H97.2111V10.728H99.1711ZM100.632 15.6C100.632 14.6387 100.846 13.78 101.276 13.024C101.714 12.2587 102.307 11.666 103.054 11.246C103.81 10.8167 104.654 10.602 105.588 10.602C106.68 10.602 107.636 10.882 108.458 11.442C109.279 12.002 109.853 12.7767 110.18 13.766H107.926C107.702 13.2993 107.384 12.9493 106.974 12.716C106.572 12.4827 106.106 12.366 105.574 12.366C105.004 12.366 104.496 12.5013 104.048 12.772C103.609 13.0333 103.264 13.4067 103.012 13.892C102.769 14.3773 102.648 14.9467 102.648 15.6C102.648 16.244 102.769 16.8133 103.012 17.308C103.264 17.7933 103.609 18.1713 104.048 18.442C104.496 18.7033 105.004 18.834 105.574 18.834C106.106 18.834 106.572 18.7173 106.974 18.484C107.384 18.2413 107.702 17.8867 107.926 17.42H110.18C109.853 18.4187 109.279 19.198 108.458 19.758C107.646 20.3087 106.689 20.584 105.588 20.584C104.654 20.584 103.81 20.374 103.054 19.954C102.307 19.5247 101.714 18.932 101.276 18.176C100.846 17.42 100.632 16.5613 100.632 15.6Z" fill="#979797"/>
<defs>
<clipPath id="clip0_745_1536">
<rect width="23" height="32" fill="white"/>
</clipPath>
</defs>
</svg>
