<svg width="80" height="40" viewBox="0 0 80 40" fill="none" xmlns="http://www.w3.org/2000/svg">
<path d="M6.03583 14.2936C5.9261 14.2936 5.81636 14.1838 5.9261 14.0741L6.69427 12.9767C6.80401 12.8669 6.91375 12.7572 7.13323 12.7572H20.9604C21.0701 12.7572 21.1799 12.8669 21.0701 12.9767L20.4117 13.9643C20.302 14.0741 20.1922 14.1838 19.9727 14.1838L6.03583 14.2936ZM0.219648 17.8052C0.109909 17.8052 0.000169203 17.6955 0.109909 17.5857L0.878085 16.4883C0.987824 16.3786 1.09756 16.2689 1.31704 16.2689H18.9851C19.0948 16.2689 19.2046 16.3786 19.2046 16.4883L18.8753 17.5857C18.8753 17.6955 18.6559 17.8052 18.5461 17.8052H0.219648ZM9.54749 21.4266C9.43776 21.4266 9.32802 21.3169 9.43775 21.2071L9.98645 20.2195C10.0962 20.1097 10.2059 20 10.4254 20H18.1072C18.2169 20 18.3266 20.1097 18.3266 20.2195L18.2169 21.0974C18.2169 21.2071 18.1072 21.3169 17.9974 21.3169L9.54749 21.4266ZM49.7121 13.5254L43.2375 15.1715C42.6888 15.2812 42.579 15.391 42.1401 14.7325C41.5914 14.0741 41.1524 13.6351 40.2745 13.3059C37.8603 12.0988 35.446 12.428 33.2512 13.8546C30.6175 15.5007 29.3006 18.0247 29.3006 21.2071C29.3006 24.2798 31.4954 26.8038 34.5681 27.2428C37.2018 27.572 39.3966 26.6941 41.1524 24.7188C41.4817 24.2798 41.8109 23.8409 42.2498 23.2922H34.7876C34.0194 23.2922 33.7999 22.7435 34.0194 22.0851C34.5681 20.8779 35.446 18.9026 35.9947 17.915C36.1044 17.6955 36.4336 17.2565 36.9823 17.2565H51.029C50.9192 18.3539 50.9192 19.3416 50.8095 20.439C50.3705 23.1824 49.3829 25.8162 47.6271 28.011C44.8836 31.6324 41.2622 33.9369 36.6531 34.5953C32.8122 35.144 29.3006 34.3759 26.2279 32.0713C23.3747 29.8765 21.7286 27.0233 21.2896 23.5117C20.7409 19.3416 22.0578 15.5007 24.5818 12.2085C27.3253 8.58711 30.9467 6.28259 35.446 5.51441C39.0674 4.85597 42.579 5.29493 45.6518 7.37998C47.7368 8.69685 49.1634 10.5624 50.1511 12.8669C50.2608 13.3059 50.1511 13.4156 49.7121 13.5254Z" fill="#00ACD7"/>
<path d="M62.4427 34.9246C58.931 34.8148 55.7486 33.8272 53.0051 31.5227C50.7006 29.5473 49.2739 27.0233 48.835 24.0604C48.1765 19.6708 49.3837 15.8299 52.0174 12.428C54.8706 8.69686 58.2726 6.83129 62.8816 5.95338C66.8322 5.29494 70.5634 5.62416 73.8556 7.92869C76.9283 10.0137 78.7938 12.867 79.3425 16.5981C80.001 21.8656 78.4646 26.0357 74.953 29.6571C72.4289 32.2908 69.2465 33.8272 65.7348 34.5954C64.5277 34.8148 63.4303 34.8148 62.4427 34.9246ZM71.6608 19.3416C71.6608 18.7929 71.6608 18.4637 71.551 18.0247C70.8926 14.1838 67.3809 11.989 63.6498 12.867C60.0284 13.6351 57.7239 15.9397 56.846 19.5611C56.1875 22.524 57.6141 25.5967 60.3576 26.9136C62.4427 27.7915 64.6375 27.6818 66.6128 26.6941C69.7952 25.1578 71.4413 22.6338 71.6608 19.3416Z" fill="#00ACD7"/>
</svg>
