<svg width="80" height="80" viewBox="0 0 80 80" fill="none" xmlns="http://www.w3.org/2000/svg">
<g clip-path="url(#clip0_745_1518)">
<path d="M0 0H80V80H0" fill="#F7DF1E"/>
<path d="M50.625 57.8125C52.3958 60.8333 54.7396 62.3438 57.6562 62.3438C61.3021 62.3438 63.125 60.9375 63.125 58.125C63.125 56.4062 60.7812 54.8438 57.0312 53.2812C50.0521 50.9896 46.6146 47.0833 46.7188 41.5625C46.7188 35.9375 50.9375 31.5625 57.6562 31.5625C62.6562 31.5625 66.1979 33.5938 68.2812 37.6562L62.5 41.4062C61.25 39.1146 59.6354 38.0208 57.6562 38.125C55.3646 38.2292 54.1667 39.3229 54.0625 41.4062C54.0625 43.5938 55.4688 44.5312 60.1562 46.5625C66.875 49.2188 70.625 52.1875 70.625 58.5938C70.3125 65.3646 66.1979 68.8542 58.2812 69.0625C51.7188 69.0625 47.0833 66.5104 44.375 61.4062L50.625 57.8125ZM24.0625 58.4375C25.3125 60.4688 26.0938 62.3438 29.2188 62.3438C31.7188 62.3438 32.9688 60.7812 32.9688 57.6562V31.7188H40.4688V57.3438C40.3646 64.7396 36.6146 68.4896 29.2188 68.5938C23.6979 68.4896 19.9479 66.1979 17.9688 61.7188L24.0625 58.4375Z" fill="black"/>
</g>
<defs>
<clipPath id="clip0_745_1518">
<rect width="80" height="80" fill="white"/>
</clipPath>
</defs>
</svg>
