<svg width="80" height="41" viewBox="0 0 80 41" fill="none" xmlns="http://www.w3.org/2000/svg">
<path d="M33 15.0642H35.4543V19.9432L39.9827 15.0642H42.9457L38.4025 19.7753L43.1531 26.2H40.2025L36.7457 21.4494L35.4543 22.7877V26.2H33V15.0642ZM41.8494 21.9975V21.9654C41.8494 19.5111 43.8247 17.521 46.4914 17.521C49.1383 17.521 51.0988 19.4815 51.0988 21.9654V21.9975C51.0988 24.4519 49.1235 26.442 46.4568 26.442C43.8099 26.442 41.8494 24.4815 41.8494 21.9975ZM48.7037 21.9975V21.9654C48.7037 20.7309 47.7951 19.6049 46.4815 19.6049C45.0938 19.6049 44.2642 20.6741 44.2642 21.9333V21.9654C44.2642 23.2 45.1728 24.3259 46.4864 24.3259C47.8741 24.3259 48.7012 23.2568 48.7012 21.9975H48.7037Z" fill="#000400"/>
<path d="M51.7658 23.8V19.7753H50.7461V17.7013H51.7658V15.5161H54.1856V17.7013H56.1955V19.7753H54.1856V23.4296C54.1856 23.9877 54.4251 24.2593 54.9658 24.2593C55.3835 24.261 55.7947 24.1565 56.1609 23.9556V25.9013C55.6498 26.205 55.0621 26.3951 54.2473 26.3951C52.7658 26.3951 51.7609 25.8025 51.7609 23.8272L51.7658 23.8ZM56.8942 14.5852H59.314V26.2222H56.8942V14.5852ZM60.193 14.5852H62.7436V16.7383H60.1955L60.193 14.5852ZM60.2572 17.679H62.677V26.2222H60.2572V17.679ZM63.6029 17.679H66.0226V18.8889C66.5807 18.1729 67.2992 17.5185 68.5263 17.5185C70.3609 17.5185 71.4276 18.7284 71.4276 20.6914V26.2222H69.0078V21.4543C69.0078 20.3062 68.4646 19.7161 67.5412 19.7161C66.6177 19.7161 66.0276 20.3087 66.0276 21.4543V26.2198H63.6078L63.6029 17.679Z" fill="#000400"/>
<path d="M19.1096 10.0049L8.56641 21.084V30.9926L19.0899 20.4494L29.559 10L19.1096 10.0049Z" fill="url(#paint0_linear_745_1588)"/>
<path d="M8.56641 30.9951L19.0899 20.4518L29.559 30.9951H8.56641Z" fill="url(#paint1_linear_745_1588)"/>
<path d="M8.56641 10.0049H19.1096L8.56641 21.084V10.0049Z" fill="url(#paint2_linear_745_1588)"/>
<defs>
<linearGradient id="paint0_linear_745_1588" x1="5.03554" y1="29.3037" x2="24.5689" y2="9.77037" gradientUnits="userSpaceOnUse">
<stop offset="0.108" stop-color="#C757BC"/>
<stop offset="0.173" stop-color="#CD5CA9"/>
<stop offset="0.492" stop-color="#E8744F"/>
<stop offset="0.716" stop-color="#F88316"/>
<stop offset="0.823" stop-color="#FF8900"/>
</linearGradient>
<linearGradient id="paint1_linear_745_1588" x1="15.2676" y1="34.7827" x2="24.7886" y2="25.2617" gradientUnits="userSpaceOnUse">
<stop offset="0.296" stop-color="#00AFFF"/>
<stop offset="0.694" stop-color="#5282FF"/>
<stop offset="1" stop-color="#945DFF"/>
</linearGradient>
<linearGradient id="paint2_linear_745_1588" x1="8.31702" y1="15.7975" x2="14.996" y2="9.11852" gradientUnits="userSpaceOnUse">
<stop offset="0.296" stop-color="#00AFFF"/>
<stop offset="0.694" stop-color="#5282FF"/>
<stop offset="1" stop-color="#945DFF"/>
</linearGradient>
</defs>
</svg>
