<svg width="80" height="48" viewBox="0 0 80 48" fill="none" xmlns="http://www.w3.org/2000/svg">
<g clip-path="url(#clip0_745_1527)">
<path d="M18.8766 12.5144H33.9654V13.7067H20.2598V22.6802H33.1481V23.8725H20.2598V33.7245H34.1225V34.9168H18.8766V12.5144ZM35.3171 12.5144H36.9202L44.0245 22.3664L51.286 12.5144L61.1627 0L44.9361 23.4018L53.2978 34.9168H51.6318L44.0245 24.4373L36.3858 34.9168H34.7512L43.1758 23.4018L35.3171 12.5144ZM53.8951 13.7067V12.5144H71.0899V13.7067H63.1684V34.9168H61.7852V13.7067H53.8951ZM0 12.5144H1.72892L25.5697 47.982L15.7174 34.9168L1.446 14.2087L1.38313 34.9168H0V12.5144ZM70.9506 33.3647C70.668 33.3647 70.4561 33.1471 70.4561 32.8658C70.4561 32.5844 70.668 32.3668 70.9506 32.3668C71.2365 32.3668 71.4451 32.5844 71.4451 32.8658C71.4451 33.1471 71.2365 33.3647 70.9506 33.3647ZM72.3097 32.052H73.0498C73.0599 32.4505 73.3525 32.7184 73.7831 32.7184C74.2642 32.7184 74.5367 32.4304 74.5367 31.8912V28.4754H75.2903V31.8946C75.2903 32.8658 74.7251 33.425 73.7899 33.425C72.9118 33.425 72.3097 32.8825 72.3097 32.052ZM76.2759 32.0084H77.0228C77.0867 32.4672 77.5375 32.7586 78.1868 32.7586C78.7923 32.7586 79.2364 32.4471 79.2364 32.0185C79.2364 31.6501 78.9538 31.4291 78.3112 31.2784L77.6855 31.1277C76.8075 30.9234 76.4072 30.5015 76.4072 29.7915C76.4072 28.9308 77.1136 28.3582 78.1733 28.3582C79.159 28.3582 79.8789 28.9308 79.9226 29.7446H79.1893C79.1186 29.2992 78.7284 29.0213 78.1632 29.0213C77.5678 29.0213 77.1708 29.3059 77.1708 29.7413C77.1708 30.0862 77.4265 30.2838 78.0589 30.4311L78.5938 30.5617C79.5896 30.7928 80 31.1947 80 31.9214C80 32.8457 79.2801 33.425 78.1296 33.425C77.0531 33.425 76.3298 32.8725 76.2759 32.0084Z" fill="black"/>
</g>
<defs>
<clipPath id="clip0_745_1527">
<rect width="80" height="48" fill="white"/>
</clipPath>
</defs>
</svg>
