<svg width="60" height="31" viewBox="0 0 60 31" fill="none" xmlns="http://www.w3.org/2000/svg">
<path d="M30.5 31C46.7924 31 60 24.2843 60 16C60 7.71573 46.7924 1 30.5 1C14.2076 1 1 7.71573 1 16C1 24.2843 14.2076 31 30.5 31Z" fill="#6181B6"/>
<path d="M38.5269 21.6145L40.0699 13.829C40.4206 12.0722 40.1283 10.7632 39.2051 9.93621C38.3166 9.13244 36.8092 8.74194 34.5884 8.74194H31.9243L32.6836 4.88376C32.7072 4.73447 32.6725 4.58519 32.5789 4.47049C32.4853 4.35579 32.3454 4.28662 32.193 4.28662H28.5117C28.2662 4.28662 28.0674 4.45911 28.0207 4.68851L26.3845 12.956C26.2326 12.0258 25.8703 11.222 25.2862 10.5675C24.211 9.35046 22.4928 8.74194 20.2137 8.74194H13.0729C12.8274 8.74194 12.6287 8.91443 12.5819 9.14383L9.2628 25.8741C9.23963 26.0239 9.27439 26.1731 9.36796 26.2878C9.46153 26.4025 9.60144 26.4717 9.75382 26.4717H13.4704C13.7159 26.4717 13.9146 26.2988 13.9614 26.0698L14.7679 22.016H17.526C18.975 22.016 20.1906 21.8667 21.149 21.5567C22.119 21.2463 23.0186 20.7184 23.8019 19.9952C24.4445 19.4208 24.9707 18.7781 25.3681 18.0777L24.702 21.4193C24.6784 21.5681 24.7136 21.7178 24.8072 21.8321C24.9007 21.9472 25.0411 22.016 25.193 22.016H28.8744C29.1199 22.016 29.3186 21.8435 29.3654 21.6141L31.1771 12.4281H33.7017C34.7765 12.4281 35.0924 12.6347 35.1744 12.7266C35.2564 12.8072 35.4199 13.1058 35.2328 14.0128L33.7949 21.4306C33.7713 21.5804 33.8065 21.7292 33.9 21.8439C33.9936 21.9586 34.1335 22.0278 34.2855 22.0278H38.0256C38.2702 22.0164 38.4801 21.8557 38.5269 21.6145ZM21.4636 15.1839C21.2301 16.355 20.7974 17.1815 20.166 17.664C19.5235 18.1464 18.5063 18.3872 17.1277 18.3872H15.4795L16.6718 12.3703H18.7986C20.3648 12.3703 20.9957 12.7034 21.2412 12.9788C21.5923 13.3584 21.6743 14.1162 21.4636 15.1839Z" fill="white"/>
<path d="M54.2708 10.568C53.1956 9.35095 51.4775 8.74243 49.1984 8.74243H42.058C41.8125 8.74243 41.6138 8.91492 41.567 9.14432L38.259 25.8865C38.2354 26.0353 38.2711 26.185 38.3642 26.2993C38.4577 26.4144 38.5981 26.4832 38.7496 26.4832H42.4666C42.7121 26.4832 42.9104 26.3111 42.9576 26.0813L43.7641 22.0278H46.5222C47.9712 22.0278 49.1868 21.8786 50.1452 21.5682C51.1157 21.2587 52.0153 20.7302 52.7982 20.007C53.4527 19.4099 54.0021 18.744 54.4112 18.0204C54.8202 17.2972 55.112 16.4934 55.2876 15.6318C55.6971 13.4959 55.358 11.7968 54.2708 10.568ZM50.4259 15.184C50.1929 16.355 49.7602 17.1816 49.1293 17.664C48.4863 18.1465 47.4695 18.3872 46.0905 18.3872H44.4427L45.6346 12.3703H47.7618C49.328 12.3703 49.959 12.7035 50.204 12.9789C50.5663 13.3584 50.6362 14.1162 50.4259 15.184Z" fill="white"/>
</svg>
