<svg width="80" height="28" viewBox="0 0 80 28" fill="none" xmlns="http://www.w3.org/2000/svg">
<g clip-path="url(#clip0_745_1512)">
<path d="M79.7492 20.7085L77.8683 20.9592C77.8683 20.9592 77.743 20.2069 77.116 19.7053C76.489 19.2038 74.3574 19.3291 74.3574 20.5831C74.3574 21.7116 75.2351 21.5862 76.9906 21.9624C78.6207 22.3385 80 22.8401 80 25.0972C80 26.3511 79.1223 27.8558 76.3636 27.8558C71.8495 27.8558 72.2257 24.4702 72.2257 24.4702H74.232C74.232 24.4702 74.3574 25.5987 75.1097 25.8495C75.9875 26.2257 77.4922 26.1003 77.743 25.348C77.9937 24.5956 77.9937 23.7179 75.6113 23.4671C73.2288 23.0909 72.2257 22.0878 72.2257 20.4577C72.3511 18.953 73.2288 17.6991 76.3636 17.6991C79.4984 17.8244 79.7492 20.7085 79.7492 20.7085ZM71.0972 20.7085L69.2163 20.9592C69.2163 20.9592 69.0909 20.2069 68.464 19.7053C67.837 19.2038 65.7053 19.3291 65.7053 20.5831C65.7053 21.7116 66.5831 21.5862 68.3386 21.9624C69.9687 22.3385 71.348 22.8401 71.348 25.0972C71.348 26.3511 70.4702 27.8558 67.7116 27.8558C63.1975 27.8558 63.5737 24.4702 63.5737 24.4702H65.7053C65.7053 24.4702 65.8307 25.5987 66.5831 25.8495C67.4608 26.2257 68.9655 26.1003 69.2163 25.348C69.4671 24.5956 69.4671 23.7179 67.0846 23.4671C64.953 23.2163 63.8245 22.3386 63.8245 20.9592V20.4577C63.9498 18.953 64.8276 17.6991 67.837 17.6991C70.721 17.8244 71.0972 20.7085 71.0972 20.7085ZM60.4389 24.2194H62.5705V24.3448C62.4451 25.0972 62.069 27.7304 58.4326 27.7304C55.1724 27.7304 54.0439 25.2226 54.0439 22.5893C54.0439 19.8307 55.674 17.8244 58.6834 17.8244C62.069 17.8244 62.3198 21.0846 62.3198 21.0846L60.3135 21.3354C60.3135 21.3354 60.1881 19.5799 58.4326 19.5799C56.6771 19.5799 56.0502 20.9592 56.0502 22.5893C56.0502 24.2194 56.5517 26.1003 58.3072 26.1003C60.0627 26.1003 60.4389 24.2194 60.4389 24.2194ZM49.7806 18.0752V27.605H48.0251V26.7273C48.0251 26.7273 47.3981 27.8558 45.8934 27.8558C44.2633 27.8558 43.1348 27.1034 43.0094 24.2194C43.0094 21.21 44.8903 20.4577 46.1442 20.4577C47.2727 20.4577 48.0251 21.3354 48.0251 21.3354V18.0752H49.7806ZM48.0251 24.094C48.0251 23.0909 47.8997 21.9624 46.395 21.9624C44.8903 21.9624 44.8903 23.7179 44.8903 24.2194C44.8903 24.8464 45.0157 26.2257 46.395 26.2257C47.7743 26.2257 48.0251 25.0972 48.0251 24.094ZM41.6301 22.8401V27.4796H39.7492V22.9655C39.7492 22.3386 39.373 21.837 38.6207 21.837C37.8683 21.837 37.116 22.4639 37.116 23.0909V27.4796H35.2351V20.4577H37.116V21.4608C37.116 21.4608 37.7429 20.2069 39.6238 20.3323C41.7555 20.5831 41.6301 22.5893 41.6301 22.8401ZM31.8495 20.5831H33.7304V27.605H31.8495V20.5831ZM31.8495 18.0752H33.7304V19.7053H31.8495V18.0752ZM31.0972 20.5831L29.0909 27.605H27.21L25.9561 22.9655L24.7022 27.605H22.9467L20.9404 20.5831H22.9467L23.9498 25.0972L25.3292 20.5831H26.9592L28.0878 25.2226L29.0909 20.5831H31.0972ZM18.1818 17.9498H20.0627V27.4796H18.1818V17.9498ZM14.7962 20.5831H16.6771V27.605H14.7962V20.5831ZM14.7962 18.0752H16.6771V19.7053H14.7962V18.0752ZM13.2915 23.0909V27.4796H11.536V26.6019C11.536 26.6019 11.0345 27.2288 10.2821 27.4796C9.15361 27.8558 7.52351 27.605 7.02194 26.3511C6.64577 25.348 7.02194 24.2194 8.02508 23.7179C9.279 23.0909 11.4107 23.2163 11.4107 23.2163C11.4107 23.2163 11.5361 22.7147 11.2853 22.3386C11.1599 21.9624 10.7837 21.837 10.2821 21.837C9.02821 21.837 9.02821 22.7147 9.02821 22.7147L7.27273 22.5893C7.27273 22.5893 7.27273 21.7116 8.15047 21.0846C8.65204 20.7085 9.279 20.5831 10.4075 20.5831C11.7868 20.5831 13.2915 21.0846 13.2915 23.0909ZM10.4075 26.2257C11.6614 25.9749 11.536 24.4702 11.536 24.4702H11.0345C10.6583 24.4702 10.1567 24.4702 9.78056 24.5956C9.15361 24.721 8.90282 24.9718 8.77743 25.2226C8.65204 25.5987 8.77743 25.9749 9.15361 26.2257C9.40439 26.3511 9.78056 26.3511 10.4075 26.2257ZM7.77429 17.9498V19.8307H4.89028V27.605H2.75862V19.7053H0V17.9498H7.77429Z" fill="#252A2F"/>
<path d="M54.0443 3.02821C54.0443 3.02821 52.2889 5.66144 49.2795 5.15987C46.2701 4.6583 45.7685 0.144196 40.3766 0.144196C33.7309 0.144196 32.9785 5.78683 32.9785 5.78683C32.9785 5.78683 34.8594 3.02821 37.7434 3.52978C40.6274 4.03134 41.7559 8.54545 47.6494 8.54545C53.5428 8.54545 54.0443 3.02821 54.0443 3.02821Z" fill="url(#paint0_linear_745_1512)"/>
<path d="M47.0229 11.4295C47.0229 11.4295 45.2674 14.0627 42.258 13.5611C39.2486 13.0596 38.747 8.54546 33.3552 8.54546C26.7094 8.54546 25.957 14.1881 25.957 14.1881C25.957 14.1881 27.8379 11.4295 30.7219 11.931C33.4805 12.4326 34.7345 16.9467 40.6279 16.9467C46.5213 16.9467 47.0229 11.4295 47.0229 11.4295Z" fill="url(#paint1_linear_745_1512)"/>
</g>
<defs>
<linearGradient id="paint0_linear_745_1512" x1="32.9196" y1="4.34482" x2="54.0331" y2="4.34482" gradientUnits="userSpaceOnUse">
<stop stop-color="#45A9B3"/>
<stop offset="0.389" stop-color="#3FAEB0"/>
<stop offset="1" stop-color="#2CBBAB"/>
</linearGradient>
<linearGradient id="paint1_linear_745_1512" x1="25.8592" y1="12.7461" x2="46.9715" y2="12.7461" gradientUnits="userSpaceOnUse">
<stop stop-color="#45A9B3"/>
<stop offset="0.389" stop-color="#3FAEB0"/>
<stop offset="1" stop-color="#2CBBAB"/>
</linearGradient>
<clipPath id="clip0_745_1512">
<rect width="80" height="27.712" fill="white" transform="translate(0 0.143997)"/>
</clipPath>
</defs>
</svg>
