<svg width="100" height="30" viewBox="0 0 100 30" fill="none" xmlns="http://www.w3.org/2000/svg">
<path d="M41.4075 19.0337C40.8308 19.4233 40.0405 19.6181 39.0362 19.6181C37.6226 19.6181 36.4743 19.1868 35.5908 18.3242C34.7073 17.4524 34.2656 16.2699 34.2656 14.7766C34.2656 13.3668 34.712 12.2214 35.6047 11.3403C36.5067 10.4499 37.6365 10.0047 38.9943 10.0047C39.9707 10.0047 40.7658 10.1717 41.3796 10.5056V11.6603C40.9703 11.447 40.6031 11.2939 40.2776 11.2012C39.9521 11.1085 39.5244 11.0621 38.9943 11.0621C37.9808 11.0621 37.1344 11.4052 36.4556 12.0916C35.7861 12.7779 35.4513 13.6729 35.4513 14.7766C35.4513 15.9267 35.7861 16.8449 36.4556 17.5312C37.1252 18.2176 38.0132 18.5607 39.1198 18.5607C40.0126 18.5607 40.7751 18.3242 41.4075 17.8512V19.0337ZM43.8145 19.5068H42.7126V9.67086H43.8145V19.5068ZM46.7214 19.5068H45.6195V12.4533H46.7214V19.5068ZM46.6796 9.72651C46.8191 9.86563 46.8888 10.0372 46.8888 10.2413C46.8888 10.4453 46.8191 10.6169 46.6796 10.756C46.5401 10.8859 46.3682 10.9508 46.1635 10.9508C45.9589 10.9508 45.7868 10.8859 45.6474 10.756C45.5173 10.6169 45.4521 10.4453 45.4521 10.2413C45.4521 10.0372 45.5173 9.86563 45.6474 9.72651C45.7868 9.58738 45.9589 9.51782 46.1635 9.51782C46.3682 9.51782 46.5401 9.58738 46.6796 9.72651ZM53.3389 19.2563C52.8925 19.5253 52.3438 19.6598 51.6929 19.6598C50.577 19.6598 49.6888 19.3073 49.0287 18.6025C48.3776 17.8883 48.0523 17.0211 48.0523 16.0009C48.0523 14.9992 48.3776 14.1367 49.0287 13.4132C49.6888 12.6898 50.5863 12.3281 51.7208 12.3281C52.3252 12.3281 52.8646 12.4579 53.3389 12.7176V13.761C52.911 13.4735 52.4088 13.3298 51.8324 13.3298C51.0326 13.3298 50.391 13.5894 49.9075 14.1088C49.4332 14.6189 49.1961 15.2543 49.1961 16.0148C49.2053 16.7753 49.4377 17.4107 49.8935 17.9208C50.3491 18.4216 50.9955 18.672 51.8324 18.672C52.3717 18.672 52.8739 18.519 53.3389 18.2129V19.2563ZM55.7756 19.5068H54.6876V9.72651H55.7756V19.5068ZM57.2124 15.8061L60.0859 19.5068H58.7607L55.9151 15.8061L58.691 12.4533H60.0022L57.2124 15.8061ZM67.9179 19.5068H66.788V15.2635H62.2267V19.5068H61.0969V10.13H62.2267V14.248H66.788V10.13H67.9179V19.5068ZM75.8768 16.0009C75.8768 17.0489 75.5792 17.9161 74.9841 18.6025C74.3888 19.2888 73.5705 19.632 72.5291 19.632C71.5153 19.632 70.711 19.2934 70.1159 18.6164C69.5301 17.93 69.2371 17.0675 69.2371 16.0287C69.2371 14.9807 69.5393 14.1088 70.1438 13.4132C70.7576 12.7084 71.5527 12.3559 72.5291 12.3559C73.5984 12.3559 74.4214 12.6991 74.998 13.3854C75.5839 14.0717 75.8768 14.9436 75.8768 16.0009ZM70.3809 16.0148C70.3809 16.7475 70.5762 17.3735 70.9668 17.8929C71.3574 18.4031 71.878 18.6581 72.5291 18.6581C73.2358 18.6581 73.7798 18.4077 74.1611 17.9069C74.5422 17.3967 74.733 16.7661 74.733 16.0148C74.733 15.2357 74.5517 14.5958 74.189 14.0949C73.8263 13.5848 73.2729 13.3298 72.5291 13.3298C71.8595 13.3298 71.334 13.5894 70.9529 14.1088C70.5715 14.6282 70.3809 15.2635 70.3809 16.0148ZM82.6354 19.5068H81.5334V18.2825C81.1615 19.1543 80.4222 19.5902 79.3155 19.5902C78.6181 19.5902 78.0648 19.3862 77.6556 18.9781C77.2558 18.5607 77.0558 18.0042 77.0558 17.3086V12.4533H78.1578V17.0304C78.1578 17.5405 78.288 17.93 78.5483 18.199C78.8087 18.468 79.1621 18.6025 79.6085 18.6025C80.1943 18.6025 80.6593 18.3984 81.0033 17.9903C81.3568 17.5822 81.5334 17.0304 81.5334 16.3348V12.4533H82.6354V19.5068ZM88.5782 17.6286C88.5782 18.2315 88.3643 18.7091 87.9366 19.0616C87.5181 19.414 86.9415 19.5902 86.2069 19.5902C85.3513 19.5902 84.6586 19.4465 84.1285 19.159V18.0877C84.7515 18.4587 85.421 18.6442 86.1371 18.6442C86.5648 18.6442 86.8904 18.5607 87.1136 18.3938C87.3367 18.2268 87.4483 17.9996 87.4483 17.7121C87.4483 17.3782 87.3228 17.1185 87.0717 16.933C86.8299 16.7475 86.4206 16.5388 85.8442 16.307C85.3141 16.1029 84.8863 15.8479 84.5609 15.5418C84.2446 15.2357 84.0866 14.823 84.0866 14.3036C84.0866 13.7193 84.3051 13.2556 84.7423 12.9124C85.1886 12.5599 85.7419 12.3837 86.4022 12.3837C87.1367 12.3837 87.7273 12.4858 88.1737 12.6898V13.7332C87.7458 13.4735 87.1599 13.3437 86.4161 13.3437C86.044 13.3437 85.7466 13.4318 85.5234 13.608C85.3094 13.7749 85.2026 13.9929 85.2026 14.2619C85.2026 14.4288 85.235 14.5772 85.3002 14.7071C85.3652 14.8276 85.4908 14.9482 85.6768 15.0688C85.8721 15.1893 86.0116 15.2728 86.0953 15.3192C86.1882 15.3563 86.3835 15.4398 86.6811 15.5696C87.2762 15.8108 87.7413 16.0844 88.076 16.3904C88.4108 16.6965 88.5782 17.1092 88.5782 17.6286ZM94.8845 19.145C94.336 19.4326 93.6664 19.5763 92.8758 19.5763C91.8065 19.5763 90.9417 19.2517 90.2813 18.6025C89.6305 17.9439 89.3049 17.0768 89.3049 16.0009C89.3049 14.8786 89.5978 13.9929 90.1837 13.3437C90.7696 12.6944 91.5228 12.3698 92.4434 12.3698C93.3269 12.3698 94.0291 12.6527 94.5497 13.2185C95.0705 13.7842 95.3309 14.5865 95.3309 15.6253C95.3309 15.9221 95.3077 16.1957 95.2611 16.4461H90.4348C90.5185 17.1417 90.7835 17.675 91.2299 18.046C91.6762 18.417 92.2621 18.6025 92.9874 18.6025C93.778 18.6025 94.4102 18.4402 94.8845 18.1155V19.145ZM92.4434 13.3298C91.9134 13.3298 91.4625 13.5199 91.0904 13.9002C90.7185 14.2804 90.5 14.823 90.4348 15.5279H94.2289V15.2496C94.2289 14.6653 94.0709 14.2016 93.7546 13.8584C93.4385 13.506 93.0014 13.3298 92.4434 13.3298Z" fill="black"/>
<path d="M5.89028 2.96157H3.7379C3.57954 2.96157 3.45117 3.0896 3.45117 3.24754V27.1436C3.45117 27.3015 3.57954 27.4295 3.7379 27.4295H5.89028C6.04864 27.4295 6.17701 27.3015 6.17701 27.1436V3.24754C6.17701 3.0896 6.04864 2.96157 5.89028 2.96157Z" fill="#FFB200"/>
<path d="M3.45117 24.7115H6.17711V27.1443C6.17711 27.3023 6.04874 27.4304 5.89039 27.4304H3.73789C3.57954 27.4304 3.45117 27.3023 3.45117 27.1443V24.7115Z" fill="#FF0000"/>
<path d="M11.3415 2.96157H9.18907C9.03071 2.96157 8.90234 3.0896 8.90234 3.24754V27.1436C8.90234 27.3015 9.03071 27.4295 9.18907 27.4295H11.3415C11.4998 27.4295 11.6282 27.3015 11.6282 27.1436V3.24754C11.6282 3.0896 11.4998 2.96157 11.3415 2.96157Z" fill="#FFB200"/>
<path d="M16.7946 2.96157H14.6422C14.4838 2.96157 14.3555 3.0896 14.3555 3.24754V27.1436C14.3555 27.3015 14.4838 27.4295 14.6422 27.4295H16.7946C16.9529 27.4295 17.0813 27.3015 17.0813 27.1436V3.24754C17.0813 3.0896 16.9529 2.96157 16.7946 2.96157Z" fill="#FFB200"/>
<path d="M22.2458 2.96157H20.0934C19.935 2.96157 19.8066 3.0896 19.8066 3.24754V27.1436C19.8066 27.3015 19.935 27.4295 20.0934 27.4295H22.2458C22.4041 27.4295 22.5325 27.3015 22.5325 27.1436V3.24754C22.5325 3.0896 22.4041 2.96157 22.2458 2.96157Z" fill="#FFB200"/>
<path d="M27.6989 12.4774H25.5465C25.3881 12.4774 25.2598 12.6054 25.2598 12.7634V17.6287C25.2598 17.7867 25.3881 17.9147 25.5465 17.9147H27.6989C27.8572 17.9147 27.9856 17.7867 27.9856 17.6287V12.7634C27.9856 12.6054 27.8572 12.4774 27.6989 12.4774Z" fill="#FFB200"/>
</svg>
