<svg width="100" height="32" viewBox="0 0 100 32" fill="none" xmlns="http://www.w3.org/2000/svg">
<path fill-rule="evenodd" clip-rule="evenodd" d="M91.6263 13.7046C91.5397 13.7218 91.4528 13.9114 91.4528 14.0147C91.4355 14.7044 91.4182 16.5319 91.4182 17.7731C91.4182 17.8076 91.4701 17.8766 91.5222 17.8766C91.7827 17.8937 92.4077 17.9109 92.9461 17.9109C93.6927 17.9109 94.1269 17.8076 94.3702 17.7043C94.9951 17.3938 95.2903 16.7215 95.2903 15.98C95.2903 14.308 94.1095 13.67 92.3556 13.67C92.2341 13.6529 91.8871 13.6529 91.6263 13.7046ZM96.1066 21.4107C96.1066 19.704 94.8389 18.7557 92.5468 18.7557C92.4426 18.7557 91.7132 18.7385 91.5395 18.7729C91.4874 18.7903 91.4182 18.8248 91.4182 18.8766C91.4182 20.1004 91.4007 22.0487 91.4528 22.8071C91.4874 23.1346 91.7307 23.6002 92.026 23.738C92.3383 23.9105 93.0503 23.9448 93.5366 23.9448C94.9083 23.9448 96.1066 23.1864 96.1066 21.4107ZM88.0842 12.7565C88.2577 12.7565 88.7786 12.8081 90.1157 12.8081C91.3834 12.8081 92.3904 12.7737 93.6233 12.7737C95.1339 12.7737 97.2177 13.308 97.2177 15.5492C97.2177 16.6525 96.4362 17.5319 95.4119 17.9629C95.3599 17.98 95.3599 18.0144 95.4119 18.0316C96.8703 18.3938 98.1555 19.2902 98.1555 20.9795C98.1555 22.6347 97.1136 23.6863 95.6028 24.3415C94.6825 24.7379 93.5366 24.8757 92.3731 24.8757C91.4874 24.8757 89.1086 24.7724 87.789 24.807C87.6501 24.7551 87.9105 24.1345 88.0319 24.0312C88.3446 24.0138 88.5876 23.9966 88.9176 23.8931C89.3865 23.7726 89.4385 23.6345 89.5079 22.9278C89.5427 22.3244 89.5427 20.1865 89.5427 18.6696C89.5427 16.5836 89.5602 15.17 89.5427 14.4805C89.5254 13.9462 89.3344 13.7735 88.9524 13.67C88.657 13.6185 88.171 13.5494 87.7715 13.4978C87.6845 13.4115 87.9798 12.8253 88.0842 12.7565ZM78.0646 23.4795C78.4816 23.8068 79.2977 23.9447 80.0271 23.9447C80.9647 23.9447 81.9023 23.7726 82.8053 22.962C83.7257 22.1348 84.3681 20.859 84.3681 18.8248C84.3681 16.8765 83.6214 15.2905 82.0933 14.3598C81.2251 13.8251 80.1138 13.6013 78.8288 13.6013C78.4468 13.6013 78.0821 13.6185 77.8565 13.7218C77.8042 13.7564 77.6829 13.9114 77.6829 13.9975C77.648 14.3424 77.648 16.9972 77.648 18.5489C77.648 20.1521 77.648 22.3934 77.6829 22.6519C77.6829 22.9106 77.8042 23.3071 78.0648 23.4795H78.0646ZM74.1229 12.7563C74.4529 12.7563 75.7204 12.8081 76.3282 12.8081C77.4224 12.8081 78.2037 12.7565 80.27 12.7565C82.0064 12.7565 83.4651 13.2219 84.507 14.101C85.7745 15.1872 86.4345 16.6871 86.4345 18.5143C86.4345 21.1176 85.2363 22.6175 84.038 23.4795C82.8402 24.3586 81.2772 24.8757 79.0546 24.8757C77.8738 24.8757 75.8422 24.8414 74.1577 24.824H74.1404C74.0537 24.6689 74.2793 24.0655 74.4181 24.0483C74.8697 23.9966 74.9913 23.9792 75.2171 23.8933C75.5816 23.7552 75.6512 23.5656 75.7033 22.9278C75.7553 21.7382 75.7379 20.3074 75.7379 18.6868C75.7379 17.5319 75.7553 15.2733 75.7205 14.5492C75.6685 13.946 75.4081 13.7907 74.8871 13.6872C74.6266 13.6357 74.2793 13.5666 73.7932 13.515C73.7236 13.3941 74.0362 12.8596 74.1229 12.7563Z" fill="#8E714E"/>
<path fill-rule="evenodd" clip-rule="evenodd" d="M53.1123 24.1517C52.6782 24.0999 52.3656 24.0312 51.9836 23.8587C51.9315 23.8242 51.8446 23.6519 51.8446 23.5828C51.8099 22.9794 51.81 21.2555 51.81 20.1006C51.81 19.1695 51.6538 18.3593 51.2543 17.7904C50.7854 17.1351 50.1083 16.756 49.24 16.756C48.476 16.756 47.4514 17.2731 46.6005 17.9972C46.5832 18.0144 46.4443 18.1353 46.4617 17.9455C46.4617 17.7559 46.4965 17.3766 46.5138 17.1179C46.5313 16.8765 46.3922 16.756 46.3922 16.756C45.8366 17.0318 44.2738 17.3938 43.7007 17.4454C43.2841 17.5319 43.1798 17.9283 43.6141 18.0662H43.6314C44.1 18.204 44.4127 18.3593 44.6556 18.5145C44.8293 18.6524 44.812 18.842 44.812 18.9973C44.8293 20.29 44.8293 22.2727 44.7774 23.3588C44.76 23.7898 44.6385 23.9448 44.3258 24.0138L44.3606 23.9966C44.1175 24.0483 43.9265 24.0999 43.6312 24.1345C43.527 24.238 43.527 24.7896 43.6312 24.9103C43.8222 24.9103 44.8293 24.8586 45.6631 24.8586C46.809 24.8586 47.3995 24.9103 47.6945 24.9103C47.8161 24.7724 47.8509 24.2551 47.7815 24.1345C47.4514 24.1173 47.2083 24.0829 46.9827 24.0138C46.6701 23.9447 46.5832 23.7898 46.5657 23.4277C46.5313 22.5138 46.5313 20.5831 46.5313 19.273C46.5313 18.9109 46.6353 18.7385 46.7394 18.635C47.1389 18.2903 47.7815 18.049 48.3544 18.049C48.9101 18.049 49.2746 18.2214 49.5525 18.4456C49.9345 18.7557 50.056 19.2041 50.1082 19.5315C50.1949 20.2728 50.1603 21.7382 50.1603 23.014C50.1603 23.7035 50.1082 23.8759 49.8479 23.962C49.7262 24.0138 49.4136 24.0829 49.049 24.1171C48.9274 24.238 48.9622 24.7724 49.049 24.8931C49.5525 24.8931 50.143 24.8414 51.0112 24.8414C52.0877 24.8414 52.7824 24.8931 53.0603 24.8931C53.1469 24.7896 53.1817 24.2897 53.1123 24.1517ZM57.9222 17.5664C57.0021 17.5664 56.4289 18.2732 56.4289 19.3763C56.4289 20.497 56.9324 21.7899 58.3563 21.7899C58.5994 21.7899 59.051 21.6864 59.2591 21.4451C59.5892 21.135 59.815 20.5142 59.815 19.859C59.815 18.4282 59.103 17.5664 57.9222 17.5664ZM57.8007 25.186C57.4535 25.186 57.2102 25.2895 57.054 25.3758C56.3247 25.841 55.9948 26.2894 55.9948 26.824C55.9948 27.3238 56.1858 27.7202 56.6026 28.065C57.1061 28.496 57.8007 28.703 58.6862 28.703C60.4574 28.703 61.2389 27.7547 61.2389 26.824C61.2389 26.1687 60.9088 25.7377 60.2318 25.4965C59.7456 25.2895 58.86 25.186 57.8007 25.186ZM57.9222 29.6685C56.863 29.6685 56.0989 29.4443 55.4391 28.9444C54.7966 28.4616 54.5188 27.7376 54.5188 27.2376C54.5188 27.0998 54.5536 26.7204 54.8662 26.3757C55.057 26.1687 55.474 25.7723 56.4637 25.0999C56.4983 25.0827 56.5157 25.0655 56.5157 25.0308C56.5157 24.9964 56.4808 24.9619 56.4462 24.9449C55.6301 24.6346 55.387 24.1345 55.3174 23.8587V23.8242C55.3003 23.7207 55.2655 23.6174 55.4218 23.5139C55.5434 23.4277 55.7171 23.3242 55.9079 23.2038C56.2031 23.0311 56.5157 22.8415 56.7066 22.6863C56.7415 22.6519 56.7415 22.6175 56.7415 22.583C56.7415 22.5484 56.7066 22.5138 56.6718 22.4968C55.4566 22.1002 54.8489 21.2037 54.8489 19.859C54.8489 18.9799 55.2482 18.1869 55.96 17.6869C56.4462 17.3077 57.6618 16.8422 58.4606 16.8422H58.5127C59.3288 16.8593 59.7802 17.0318 60.4226 17.256C60.7699 17.3766 61.1 17.4282 61.5516 17.4282C62.2286 17.4282 62.5239 17.2214 62.7668 16.9802C62.7843 17.0146 62.8191 17.1009 62.8364 17.3249C62.8537 17.5491 62.7843 17.8766 62.6106 18.1179C62.4717 18.3075 62.1592 18.4456 61.8466 18.4456H61.7597C61.4472 18.411 61.3081 18.3765 61.3081 18.3765L61.2389 18.411C61.2215 18.4456 61.2389 18.48 61.2562 18.5317L61.2737 18.5663C61.3083 18.7213 61.3777 19.1867 61.3777 19.3076C61.3777 20.7212 60.8048 21.3416 60.197 21.8071C59.6065 22.2381 58.9295 22.5138 58.1653 22.583C58.148 22.583 58.0788 22.583 57.9222 22.6002C57.8355 22.6002 57.7139 22.6175 57.6964 22.6175H57.6791C57.5402 22.6519 57.1931 22.8243 57.1931 23.1173C57.1931 23.3758 57.3492 23.6863 58.0959 23.738C58.2521 23.7552 58.4082 23.7552 58.5821 23.7726C59.5719 23.8414 60.8048 23.9277 61.3777 24.1173C62.1765 24.4102 62.68 25.1171 62.68 25.9619C62.68 27.2378 61.7599 28.4273 60.2318 29.1684C59.4851 29.496 58.7383 29.6685 57.9222 29.6685ZM67.8198 17.6526C67.4554 17.6526 67.1253 17.7385 66.8822 17.9109C66.2052 18.3247 65.8578 19.1523 65.8578 20.3589C65.8578 22.6175 67.0038 24.2036 68.6361 24.2036C69.1223 24.2036 69.5043 24.0655 69.8342 23.7898C70.3377 23.3758 70.5983 22.5484 70.5983 21.3933C70.5983 19.1523 69.4695 17.6524 67.82 17.6524L67.8198 17.6526ZM68.1326 25.031C65.1806 25.031 64.1214 22.8761 64.1214 20.859C64.1214 19.4454 64.6944 18.3593 65.8403 17.5834C66.6566 17.0835 67.629 16.8078 68.4973 16.8078C70.7545 16.8078 72.3347 18.411 72.3347 20.7212C72.3347 22.2899 71.7097 23.5311 70.5114 24.2897C69.9384 24.6689 68.9487 25.031 68.1324 25.031H68.1326ZM37.1891 17.6524C36.8244 17.6524 36.4946 17.7385 36.2513 17.9109C35.5743 18.3247 35.2269 19.1523 35.2269 20.3589C35.2269 22.6175 36.3728 24.2036 38.0052 24.2036C38.4914 24.2036 38.8734 24.0655 39.2034 23.7898C39.7068 23.3758 39.9674 22.5484 39.9674 21.3933C39.9674 19.1523 38.8561 17.6524 37.1891 17.6524ZM37.5017 25.031C34.5497 25.031 33.4905 22.8761 33.4905 20.859C33.4905 19.4454 34.0634 18.3593 35.2094 17.5834C36.0257 17.0835 36.9981 16.8078 37.8663 16.8078C40.1238 16.8078 41.7038 18.411 41.7038 20.7212C41.7038 22.2899 41.0787 23.5311 39.8805 24.2897C39.3248 24.6689 38.3351 25.031 37.5017 25.031ZM17.6541 24.8586C17.6193 24.807 17.5844 24.6518 17.6019 24.4621C17.6019 24.3241 17.6368 24.238 17.6541 24.2036C18.0187 24.1517 18.2097 24.0999 18.418 24.0483C18.7654 23.962 18.9043 23.7726 18.9216 23.3416C18.9739 22.3072 18.9739 20.3418 18.9564 18.9799V18.9453C18.9564 18.7903 18.9564 18.6005 18.7654 18.4626C18.4875 18.2903 18.1576 18.1353 17.7235 18.0142C17.5673 17.9629 17.4631 17.8766 17.4804 17.7732C17.4804 17.6697 17.5846 17.5491 17.8104 17.5145C18.3834 17.4628 19.8765 17.1009 20.467 16.8422C20.5018 16.8765 20.5539 16.9802 20.5539 17.1181L20.5366 17.3075C20.5191 17.4973 20.5018 17.7215 20.5018 17.9455C20.5018 18.0144 20.5714 18.0662 20.6407 18.0662C20.6755 18.0662 20.7103 18.049 20.7449 18.0316C21.8562 17.1696 22.8633 16.8593 23.3842 16.8593C24.2352 16.8593 24.8952 17.256 25.3987 18.0834C25.4333 18.1353 25.4681 18.1525 25.5202 18.1525C25.5549 18.1525 25.6068 18.1353 25.6243 18.1007C26.6489 17.3249 27.6735 16.8593 28.3505 16.8593C29.9653 16.8593 30.9205 18.049 30.9205 20.066C30.9205 20.6349 30.9205 21.3761 30.9032 22.0487C30.9032 22.6519 30.8859 23.2036 30.8859 23.6002C30.8859 23.6861 31.0072 23.962 31.1982 24.0138C31.4413 24.1345 31.7714 24.1862 32.2055 24.2551H32.2228C32.2576 24.3758 32.1882 24.824 32.1187 24.9103C32.0145 24.9103 31.8581 24.9103 31.6846 24.8931C31.2451 24.8703 30.805 24.8588 30.3648 24.8586C29.2883 24.8586 28.7326 24.8757 28.1941 24.9103C28.1597 24.7724 28.1422 24.3586 28.1941 24.2551C28.5068 24.2036 28.663 24.1517 28.8542 24.1001C29.2016 23.9966 29.2883 23.8414 29.3058 23.3932C29.3058 23.0657 29.3751 20.2728 29.2708 19.6005C29.1668 18.9109 28.6457 18.1007 27.4996 18.1007C27.0655 18.1007 26.3885 18.2732 25.7285 18.7729C25.6939 18.8074 25.6589 18.8936 25.6589 18.9453V18.9627C25.7285 19.3246 25.7285 19.7385 25.7285 20.3763V21.4968C25.7285 22.2727 25.711 22.9968 25.7285 23.5482C25.7285 23.9277 25.9543 24.0138 26.1453 24.0829C26.2496 24.0999 26.3188 24.1173 26.4058 24.1345C26.5619 24.169 26.7183 24.2036 26.9614 24.2551C26.9962 24.3243 26.9962 24.5483 26.9441 24.7379C26.9266 24.8414 26.8918 24.8929 26.8745 24.9103C26.2842 24.8931 25.6764 24.8757 24.7909 24.8757C24.5305 24.8757 24.0789 24.8931 23.6969 24.8931C23.3842 24.8931 23.0891 24.9103 22.9156 24.9103C22.8981 24.8757 22.8633 24.7552 22.8633 24.5654C22.8633 24.4104 22.8981 24.2897 22.9329 24.2551C23.0197 24.238 23.0891 24.2208 23.176 24.2208C23.3842 24.1862 23.558 24.1517 23.7315 24.1173C24.0269 24.0312 24.131 23.8759 24.1483 23.4967C24.2004 22.6347 24.2526 20.1695 24.131 19.5487C23.9227 18.5489 23.3497 18.049 22.4292 18.049C21.891 18.049 21.2136 18.3075 20.6582 18.7215C20.5712 18.7903 20.5018 18.9625 20.5018 19.1177V20.135C20.5018 21.3761 20.5018 22.9278 20.5191 23.6002C20.5366 23.8068 20.6059 24.0483 21.0053 24.1345C21.0923 24.1517 21.2311 24.1862 21.4048 24.2036L21.7172 24.2551C21.7522 24.3586 21.7347 24.7724 21.6652 24.9103C21.4916 24.9103 21.2833 24.8931 21.04 24.8931C20.5889 24.8708 20.1373 24.8593 19.6857 24.8586C19.0779 24.8586 18.6438 24.8757 18.2965 24.8931C18.0534 24.8586 17.8624 24.8586 17.6541 24.8586Z" fill="#442D22"/>
<path fill-rule="evenodd" clip-rule="evenodd" d="M8.51877 28.9961L7.80693 28.7546C7.80693 28.7546 7.89386 25.1517 6.59136 24.8931C5.72334 23.8931 6.7306 -17.5162 9.85608 24.7551C9.85608 24.7551 8.77938 25.2894 8.58839 26.2032C8.3799 27.0998 8.51877 28.9961 8.51877 28.9961Z" fill="white"/>
<path fill-rule="evenodd" clip-rule="evenodd" d="M8.51877 28.9961L7.80693 28.7546C7.80693 28.7546 7.89386 25.1517 6.59136 24.8931C5.72334 23.8931 6.7306 -17.5162 9.85608 24.7551C9.85608 24.7551 8.77938 25.2894 8.58839 26.2032C8.3799 27.0998 8.51877 28.9961 8.51877 28.9961Z" fill="#A6A385"/>
<path fill-rule="evenodd" clip-rule="evenodd" d="M8.9026 25.5137C8.9026 25.5137 15.1366 21.4451 13.6777 12.9803C12.2714 6.8261 8.95473 4.80907 8.59006 4.03322C8.19076 3.48156 7.80859 2.51629 7.80859 2.51629L8.06921 19.6349C8.06921 19.6522 7.53086 24.8757 8.90279 25.5139" fill="white"/>
<path fill-rule="evenodd" clip-rule="evenodd" d="M8.9026 25.5137C8.9026 25.5137 15.1366 21.4451 13.6777 12.9803C12.2714 6.8261 8.95473 4.80907 8.59006 4.03322C8.19076 3.48156 7.80859 2.51629 7.80859 2.51629L8.06921 19.6349C8.06921 19.6522 7.53086 24.8757 8.90279 25.5139" fill="#499D4A"/>
<path fill-rule="evenodd" clip-rule="evenodd" d="M7.44337 25.7377C7.44337 25.7377 1.59134 21.7726 1.9387 14.7908C2.26856 7.80874 6.40129 4.37808 7.20007 3.75749C7.7211 3.20582 7.73842 2.99883 7.77323 2.44717C8.1379 3.22301 8.06846 14.0495 8.1204 15.325C8.27658 20.2383 7.84266 24.807 7.44337 25.7377Z" fill="white"/>
<path fill-rule="evenodd" clip-rule="evenodd" d="M7.44337 25.7377C7.44337 25.7377 1.59134 21.7726 1.9387 14.7908C2.26856 7.80874 6.40129 4.37808 7.20007 3.75749C7.7211 3.20582 7.73842 2.99883 7.77323 2.44717C8.1379 3.22301 8.06846 14.0495 8.1204 15.325C8.27658 20.2383 7.84266 24.807 7.44337 25.7377Z" fill="#58AA50"/>
</svg>
