<svg width="100" height="68" viewBox="0 0 100 68" fill="none" xmlns="http://www.w3.org/2000/svg">
<g clip-path="url(#clip0_745_1608)">
<path d="M29.7479 44.8716L32.7871 54.7087C33.4698 56.9421 33.7546 58.5013 33.6407 59.39C35.3029 54.9491 36.4641 50.1095 37.1248 44.8716H40.7791C39.2079 53.3991 37.1354 59.5959 34.5629 63.4617C32.5586 66.4404 30.3628 67.9298 27.9718 67.9298C27.3344 67.9298 26.5485 67.7377 25.6158 67.3562V65.3005C26.0714 65.3673 26.6061 65.4029 27.221 65.4029C28.3364 65.4029 29.2354 65.0945 29.9193 64.479C30.7383 63.7291 31.1482 62.8862 31.1482 61.9521C31.1482 61.314 30.8285 60.0048 30.192 58.0244L25.9575 44.8716H29.7479ZM6.48908 38.8254L12.0556 55.7683H12.0898L17.6905 38.8254H22.2663C23.2683 47.2278 23.8599 54.9158 24.0417 61.8842H20.1838C20.0481 55.37 19.672 49.2446 19.0572 43.5067H19.0233L13.1487 61.8842H10.2109L4.3719 43.5067H4.3375C3.90424 49.0172 3.63167 55.1426 3.518 61.8842H0C0.22734 53.6854 0.796286 45.9997 1.70684 38.8254H6.48908Z" fill="#00758F"/>
<path d="M68.8481 38.4832C74.8357 38.4832 77.8298 42.2996 77.8298 49.9281C77.8298 54.0736 76.9294 57.2049 75.1303 59.3204C74.806 59.707 74.4477 60.0409 74.0704 60.3503L78.3077 62.4404L78.3036 62.4401L76.7991 65.0319L71.281 61.82C70.3663 62.0902 69.3599 62.2252 68.2631 62.2252C65.3231 62.2252 63.1271 61.3704 61.675 59.6631C60.0812 57.7743 59.2849 54.8008 59.2849 50.7476C59.2849 46.6256 60.1836 43.5061 61.9833 41.388C63.6223 39.4505 65.9111 38.4832 68.8481 38.4832ZM50.5121 38.5169C52.6522 38.5169 54.5983 39.0882 56.3509 40.2267L55.4606 42.2056C53.9609 41.5696 52.482 41.2503 51.0239 41.2503C49.8408 41.2503 48.9291 41.5344 48.2935 42.106C47.6543 42.6727 47.2591 43.4019 47.2591 44.2907C47.2591 45.6563 48.2345 46.8408 50.0354 47.8416C50.5199 48.1044 51.1509 48.4548 51.7993 48.818L51.9337 48.8933C51.9561 48.9059 51.9785 48.9185 52.001 48.9311L52.1356 49.0066C52.158 49.0192 52.1805 49.0318 52.2029 49.0444L52.3372 49.1199C53.7006 49.8867 54.9833 50.6186 54.9833 50.6186C56.7842 51.8938 57.6817 53.2533 57.6817 55.4927C57.6817 57.4482 56.9633 59.0536 55.5314 60.3097C54.0984 61.5603 52.1731 62.1873 49.7622 62.1873C47.5073 62.1873 45.322 61.4657 43.2051 60.0342L44.1954 58.0535C46.0171 58.9643 47.6656 59.4192 49.1457 59.4192C50.5341 59.4192 51.6208 59.1101 52.407 58.4995C53.1914 57.8844 53.6615 57.0266 53.6615 55.9386C53.6615 54.5695 52.7069 53.3992 50.9555 52.4174C50.5007 52.1678 49.9182 51.8417 49.3158 51.5021L49.1817 51.4264C48.9353 51.2873 48.6869 51.1468 48.4439 51.009L48.3119 50.9341C47.1294 50.2631 46.1069 49.6768 46.1069 49.6768C44.3561 48.3992 43.4782 47.0285 43.4782 44.7699C43.4782 42.902 44.1329 41.3922 45.4404 40.2435C46.7509 39.0924 48.4416 38.5169 50.5121 38.5169ZM84.8667 38.8254V59.0477H92.1398V61.8842H81.178V38.8254H84.8667ZM96.1813 59.0566V59.5358H95.3814V61.8818H94.7702V59.5358H93.9394V59.0566H96.1813ZM97.6578 59.0566L98.4255 60.9823L99.1308 59.0566H99.9973V61.8818H99.4212V59.7316L98.6184 61.8818H98.203L97.3989 59.7316H97.368V61.8818H96.8229V59.0566H97.6578ZM68.4714 41.319C64.9429 41.319 63.1777 44.224 63.1777 50.0304C63.1777 53.3563 63.6455 55.7683 64.5792 57.2714C65.444 58.6627 66.7985 59.3568 68.6428 59.3568C72.1713 59.3568 73.9365 56.4292 73.9365 50.5764C73.9365 47.2969 73.4687 44.9058 72.5361 43.402C71.6702 42.0138 70.3163 41.319 68.4714 41.319Z" fill="#F29111"/>
<path d="M59.2227 1.42882C60.3933 -1.44044 64.486 0.732342 66.0744 1.7348C66.4636 1.98541 66.91 2.51521 67.3563 2.71106C68.0526 2.73844 68.7483 2.79261 69.4458 2.82178C70.7539 3.12835 71.9793 3.37897 73.0101 3.96472C77.8009 6.77921 80.9194 9.64728 83.7897 14.3845C84.4027 15.3882 84.7092 16.474 85.2103 17.5598C85.9054 19.1783 86.6868 20.8773 87.4938 22.4079C87.855 23.1334 88.1347 23.9404 88.6364 24.5531C88.8322 24.8333 89.3887 24.9158 89.7214 25.0832C90.6408 25.558 91.7549 25.9185 92.6196 26.4758C94.2348 27.4804 95.7965 28.6775 97.2158 29.9029C97.7449 30.3761 98.1056 31.0458 98.6096 31.5462V31.7987C98.1621 31.9357 97.7164 32.076 97.27 32.1882C96.2952 32.4382 95.4316 32.3817 94.486 32.6317C93.9016 32.8007 93.1761 33.0239 92.5631 33.0805C92.5905 33.1079 92.6196 33.1375 92.6196 33.1375C92.9803 34.1652 94.9311 35.0012 95.8232 35.6157C96.907 36.3959 97.911 37.3423 98.7192 38.4287C98.9983 38.7061 99.2774 38.9584 99.5553 39.2349C99.7493 39.5151 99.8041 39.8774 100 40.1274V40.2117C99.7829 40.1351 99.6265 39.9891 99.4781 39.8363L99.3896 39.7442C99.3013 39.6524 99.2119 39.5626 99.1102 39.4883C98.4954 39.0693 97.8848 38.5682 97.27 38.1787C96.213 37.5097 94.9871 37.1214 93.9016 36.4498C93.288 36.0599 92.703 35.6157 92.118 35.1697C91.5877 34.7786 91.0039 34.0276 90.6706 33.4704C90.4742 33.1626 90.4474 32.8007 90.2231 32.5782C90.2632 32.2061 90.6049 32.0955 90.9494 32.0047L91.0289 31.984C91.1477 31.9531 91.2641 31.9224 91.3657 31.8818C92.8137 31.2683 94.5401 31.0458 96.7695 31.1016C96.6856 30.5431 95.2924 29.8474 94.8478 29.513C93.9551 28.8712 93.01 28.2015 92.0632 27.6174C91.5615 27.3114 90.6968 27.0881 90.1409 26.8382C89.3887 26.5315 87.7169 26.225 87.3004 25.6409C86.5923 24.7201 86.0837 23.6218 85.5899 22.5122L85.4555 22.2094C85.4107 22.1085 85.3659 22.0076 85.3209 21.9069C84.7371 20.5709 84.0122 19.1779 83.4272 17.81C83.1213 17.1427 82.9809 16.5569 82.6458 15.917C80.6135 11.9893 77.6051 8.70096 73.9575 6.38829C72.7589 5.63586 71.4222 4.93938 69.9469 4.46613C69.1108 4.21432 68.1074 4.35362 67.2164 4.16015H66.6303C66.1297 4.01967 65.712 3.49046 65.3216 3.21127C64.4592 2.6273 63.5957 2.23501 62.5643 1.81832C62.2031 1.65104 61.1711 1.26173 60.8111 1.5683C60.5879 1.62425 60.4748 1.70819 60.4201 1.93142C60.1981 2.26478 60.3933 2.76661 60.5313 3.07377C60.9497 3.96431 61.5341 4.49352 62.0644 5.24595C62.5363 5.91326 63.1225 6.6657 63.457 7.39135C64.1789 8.95099 64.5152 10.6791 65.1841 12.2387C65.4323 12.8251 65.8244 13.4924 66.1857 14.0216C66.4916 14.4413 67.048 14.7449 67.2165 15.2765C67.5521 15.8336 66.7142 17.6725 66.5202 18.2564C65.7947 20.5413 65.9351 23.7173 66.7707 25.698C66.7856 25.7326 66.8004 25.7674 66.8153 25.8025L66.8598 25.9082C67.1649 26.6335 67.4914 27.4146 68.3026 27.6176C68.3585 27.5622 68.3026 27.5913 68.4133 27.5622C68.6097 26.0291 68.665 24.5528 69.1947 23.3534C69.5006 22.6035 70.1118 22.0733 70.5307 21.4611C70.8099 21.6278 70.8099 22.1308 70.9765 22.4635C71.3389 23.3267 71.7282 24.2731 72.1751 25.1388C73.0922 26.9217 74.1242 28.6501 75.2936 30.2096C75.6852 30.7665 76.241 31.3797 76.7421 31.8815C76.9653 32.0757 77.2153 32.188 77.3831 32.438H77.4378V32.5222C76.6023 32.2148 76.0726 31.3525 75.4061 30.8491C74.1515 29.9027 72.6488 28.4815 71.7841 27.1177C71.4223 26.3349 71.0312 25.5846 70.6414 24.8056V24.7493C70.4748 24.9719 70.5307 25.1928 70.4474 25.5295C70.0856 26.9216 70.3641 28.5098 69.1108 29.0104C67.6902 29.5969 66.6303 28.064 66.1857 27.3676C64.7645 25.0556 64.3753 21.1553 65.3775 18.0068C65.6001 17.3097 65.6304 16.474 66.0191 15.9174C65.9351 15.4144 65.5465 15.2769 65.3216 14.9685C64.9317 14.4417 64.5979 13.8279 64.2926 13.2428C63.7064 12.0998 63.2892 10.7343 62.844 9.50858C62.6482 9.00795 62.5923 8.50553 62.3971 8.03169C62.0644 7.30842 61.4508 6.58277 60.9777 5.94284C60.3367 5.02313 58.4704 3.24086 59.2227 1.42882ZM68.3579 6.8873C68.4323 6.96171 68.5222 7.0268 68.6151 7.0908L68.7273 7.16762C68.8767 7.27075 69.0213 7.37957 69.1102 7.52783C69.2506 7.72367 69.2768 7.91714 69.4452 8.11359C69.4452 8.78328 69.2506 9.22856 68.8578 9.50595C68.8578 9.50595 68.831 9.53514 68.8037 9.56251C68.5811 9.11605 68.3859 8.67198 68.1615 8.2261C67.8854 7.83679 67.495 7.52784 67.27 7.08316H67.2159V7.02721C67.5521 6.94446 67.8854 6.8873 68.3579 6.8873Z" fill="#00758F"/>
</g>
<defs>
<clipPath id="clip0_745_1608">
<rect width="100" height="68" fill="white"/>
</clipPath>
</defs>
</svg>
