<svg width="167" height="32" viewBox="0 0 167 32" fill="none" xmlns="http://www.w3.org/2000/svg">
<path d="M44.9281 16.1029H38.8722V9.87893H45.2569C47.5938 9.87893 48.7623 10.9323 48.7623 13.0395C48.7623 15.0821 47.4837 16.104 44.9281 16.104M49.2805 9.8064C48.4455 9.04693 47.2896 8.6672 45.7975 8.6672L37.125 8.71627V23.6069H38.8722L38.8566 17.2677H45.3101C46.9279 17.2677 48.2023 16.888 49.1318 16.1285C50.0612 15.3691 50.5262 14.3152 50.5262 12.9675C50.5262 11.6197 50.1113 10.5664 49.2816 9.8064H49.2805ZM60.5906 20.48C60.4235 20.9671 60.1382 21.4029 59.7613 21.7467C58.9785 22.5275 57.7845 22.9173 56.1781 22.9173C54.7273 22.9173 53.6147 22.544 52.8381 21.7792C52.0616 21.0144 51.6728 20.0048 51.6728 18.7323C51.6728 18.0699 51.7746 17.4816 51.9776 16.9685C52.1806 16.4555 52.4754 16.0224 52.8616 15.6693C53.6653 14.9211 54.7706 14.5467 56.1787 14.5467C59.2974 14.5467 60.8573 15.9419 60.8573 18.7323C60.8573 19.3952 60.7685 19.9776 60.5963 20.48M60.9131 14.9867C59.8485 13.9947 58.2724 13.4933 56.1839 13.4933C54.2112 13.4933 52.6863 14 51.6112 15.0133C50.6405 15.9307 50.15 17.168 50.15 18.7264C50.15 20.2731 50.651 21.5211 51.653 22.4704C52.2061 22.9824 52.8507 23.3536 53.587 23.5829C54.3234 23.8123 55.1871 23.9269 56.1787 23.9269C58.2557 23.9269 59.8318 23.4363 60.9235 22.4549C61.8942 21.5589 62.3848 20.3216 62.3848 18.7259C62.3848 17.1259 61.8942 15.8779 60.9131 14.9808V14.9867ZM74.1259 20.9104C74.1259 22.9147 72.3688 23.9168 68.855 23.9168C67.781 23.9168 66.8761 23.8475 66.1413 23.7077C65.4065 23.568 64.8089 23.3371 64.3502 23.0155C63.9961 22.7707 63.706 22.4411 63.5053 22.0555C63.2965 21.6608 63.1608 21.1648 63.0982 20.5621L64.7332 20.5461C64.7332 21.3355 65.0192 21.9157 65.5917 22.2891C66.206 22.7371 67.293 22.9611 68.855 22.9611C71.3109 22.9611 72.5394 22.3317 72.5394 21.0741C72.5394 20.3381 72.1219 19.8325 71.3036 19.5541C71.1366 19.5008 70.1435 19.3595 68.3289 19.1307C66.5144 18.9019 65.3751 18.696 64.9274 18.5147C63.9577 18.12 63.4729 17.4107 63.4729 16.3877C63.4729 15.3851 63.9061 14.6384 64.7776 14.1488C65.2055 13.9461 65.7404 13.7893 66.3829 13.6768C67.0253 13.5643 67.769 13.5088 68.6144 13.5088C71.9972 13.5088 73.6886 14.5936 73.6886 16.7621H72.1334C72.1334 15.2368 70.9435 14.4688 68.5664 14.4688C67.3567 14.4688 66.4544 14.6288 65.86 14.9328C65.2655 15.2368 64.9686 15.7168 64.9686 16.3568C64.9686 16.9541 65.3704 17.3861 66.1731 17.6528C66.6428 17.7915 67.722 17.9515 69.4118 18.1328C70.9242 18.2715 71.9622 18.4688 72.5253 18.7195C73.6004 19.1461 74.1369 19.8715 74.1369 20.8939L74.1259 20.9104ZM80.5481 23.6267L79.8827 23.7227L79.4679 23.7547C78.4032 23.7547 77.6413 23.5973 77.1648 23.2816C76.6883 22.9659 76.4587 22.4139 76.4587 21.6283V14.8256H74.5247V13.8261H76.4488L76.4645 10.6155H77.9549V13.8261H80.5507V14.8416L77.9549 14.8256V21.4373C77.9549 21.9296 78.0828 22.2693 78.3385 22.4507C78.5942 22.632 79.0504 22.7312 79.7079 22.7312C79.8018 22.7419 79.9062 22.7387 80.021 22.7205C80.195 22.6889 80.3675 22.6486 80.5377 22.6L80.5534 23.6133L80.5481 23.6267ZM90.8578 21.3707C90.4507 21.712 89.9873 21.9723 89.4659 22.1547C88.9446 22.3371 88.3449 22.4213 87.6675 22.4213C84.5499 22.4213 82.9916 21.1056 82.9916 18.4747C82.9916 17.2496 83.3903 16.2907 84.1882 15.5979C84.9862 14.9051 86.1087 14.5589 87.5585 14.5589C89.0182 14.5589 90.1261 14.9083 90.8818 15.6059C91.6375 16.3035 92.0158 17.2389 92.0158 18.4112C92.0158 19.6896 91.6296 20.6752 90.8583 21.3675M93.5068 13.8288H92.0163L92.0007 15.5088C91.3431 14.8261 90.8734 14.3957 90.5916 14.2144C89.7566 13.7451 88.6774 13.5115 87.3523 13.5115C85.412 13.5115 83.9299 13.9648 82.9081 14.8704C81.9374 15.7024 81.4531 16.9061 81.4531 18.4832C81.4531 19.2619 81.5757 19.9563 81.821 20.5632C82.0663 21.1701 82.4243 21.6955 82.8945 22.1216C83.9184 22.9952 85.3656 23.4325 87.2365 23.4325C89.4826 23.4325 91.0759 22.8048 92.0169 21.5488V23.2875C92.0169 24.3968 91.675 25.2544 90.9919 25.8624C90.3088 26.4704 89.1846 26.7691 87.6195 26.7691C86.1479 26.7691 85.0999 26.5557 84.4742 26.1483C84.0045 25.8299 83.681 25.2779 83.5035 24.4923H81.9692C82.1362 25.5893 82.5954 26.3829 83.3261 26.8725C84.1819 27.4368 85.6223 27.7189 87.6576 27.7189C91.5508 27.7189 93.5026 26.24 93.5026 23.2816V13.8331L93.5068 13.8288ZM101.57 14.8171C101.121 14.7424 100.705 14.7104 100.319 14.7104C97.8692 14.7104 96.6443 16.0837 96.6443 18.8293V23.6048H95.1695L95.1538 13.8331L96.6448 13.848V15.592H96.7231C96.9736 14.9051 97.3703 14.384 97.912 14.0293C98.5059 13.6859 99.392 13.5141 100.57 13.5141H101.571V14.8261L101.57 14.8171ZM102.956 18.1013C103.144 16.9909 103.567 16.1312 104.223 15.5221C104.651 15.1701 105.136 14.9051 105.678 14.7291C106.22 14.5531 106.826 14.4645 107.509 14.4645C108.833 14.4645 109.909 14.8357 110.755 15.5781C111.6 16.3205 112.014 17.1621 112.014 18.1008L102.956 18.1013ZM112.159 15.0864C111.637 14.5515 110.99 14.1563 110.217 13.8992C109.445 13.6421 108.547 13.5141 107.503 13.5141C105.573 13.5141 104.075 13.9728 103.009 14.8901C101.943 15.8075 101.412 17.0555 101.412 18.6352C101.412 20.2149 101.924 21.4619 102.946 22.3952C104.053 23.4192 105.608 23.9312 107.627 23.9312C108.43 23.9312 109.173 23.8379 109.857 23.6523C110.54 23.4667 111.138 23.2032 111.649 22.8629C112.546 22.2043 113.114 21.3909 113.355 20.4256H111.744C111.191 22.0965 109.814 22.9323 107.614 22.9323C106.059 22.9323 104.865 22.5237 104.031 21.7067C103.311 21.0064 102.952 20.0992 102.952 18.9845H113.579C113.579 17.3269 113.109 16.0272 112.154 15.0912L112.159 15.0864Z" fill="#231F20"/>
<path d="M129.33 19.6139C129.33 22.5152 127.041 23.9659 122.462 23.9659C119.718 23.9659 117.715 23.4661 116.453 22.4725C115.42 21.6512 114.904 20.3989 114.904 18.7136H116.748C116.748 21.4219 118.652 22.776 122.461 22.776C124.288 22.776 125.608 22.4987 126.427 21.9451C127.116 21.4555 127.461 20.688 127.461 19.6443C127.461 18.6107 126.991 17.8864 126.052 17.4704C125.519 17.2464 124.225 16.9637 122.153 16.6235C119.554 16.2181 117.87 15.8139 117.097 15.4091C115.98 14.8117 115.427 13.8 115.427 12.3723C115.427 11.0405 115.897 10.0496 116.852 9.39947C117.875 8.68587 119.628 8.32854 122.111 8.32854C126.6 8.32854 128.844 9.85174 128.844 12.8981H126.984C126.984 10.6155 125.318 9.4752 121.986 9.4752C120.314 9.4752 119.092 9.70454 118.319 10.1685C117.587 10.6592 117.223 11.3792 117.223 12.3285C117.223 13.3205 117.693 14.0192 118.632 14.4245C119.133 14.6592 120.605 14.9845 123.047 15.4005C125.343 15.7525 126.893 16.1632 127.692 16.6272C128.788 17.2032 129.336 18.2005 129.336 19.6139H129.33ZM144.308 21.0944C143.619 21.6581 142.841 22.0811 141.974 22.3637C141.107 22.6464 140.135 22.7867 139.06 22.7867C136.866 22.7867 135.094 22.1824 133.74 20.9744C132.386 19.7664 131.711 18.1563 131.711 16.144C131.711 14.0469 132.382 12.4128 133.724 11.2416C135.066 10.0704 136.845 9.48534 139.059 9.48534C141.305 9.48534 143.07 10.0976 144.355 11.3216C145.034 11.9189 145.535 12.6155 145.859 13.4139C146.184 14.2123 146.345 15.1227 146.345 16.1445C146.345 18.2309 145.665 19.8811 144.307 21.0939M145.287 22.0816C146.248 21.3893 146.958 20.5509 147.418 19.5653C147.878 18.5797 148.108 17.4427 148.108 16.1531C148.108 13.8411 147.357 11.9931 145.854 10.5915C145.05 9.82453 144.079 9.2544 142.942 8.8816C141.804 8.5088 140.504 8.3216 139.043 8.3216C136.204 8.3216 133.981 9.0256 132.363 10.4309C130.745 11.8363 129.936 13.744 129.936 16.152C129.936 18.4955 130.753 20.3867 132.386 21.8245C134.018 23.2624 136.249 23.9819 139.076 23.9819C140.182 23.9819 141.147 23.9056 141.971 23.7525C142.795 23.5995 143.495 23.3648 144.069 23.0485L146.792 24.9776L147.93 23.9099L145.293 22.0821L145.287 22.0816ZM161.909 23.6053H149.308V8.69333L151.039 8.66134V22.3557H161.919L161.904 23.6005L161.909 23.6053Z" fill="#367FAF"/>
<path d="M25.1734 21.1024C25.3488 19.8384 25.296 19.6528 26.3831 19.8576L26.6597 19.8789C27.4958 19.912 28.5891 19.7627 29.2315 19.504C30.6145 18.9483 31.4338 18.0203 30.0707 18.264C26.9603 18.8197 26.7463 17.9067 26.7463 17.9067C30.0305 13.6853 31.4036 8.3264 30.2189 7.0144C26.9807 3.43734 21.3914 5.12907 21.2922 5.17333L21.2625 5.17867C20.6477 5.06827 19.9599 5.00267 19.1875 4.992C17.78 4.97173 16.7122 5.312 15.9018 5.84373C15.9018 5.84373 5.92039 2.28107 6.38486 10.3237C6.48402 12.0347 9.21603 23.2693 12.4741 19.8757C13.665 18.6347 14.8163 17.5856 14.8163 17.5856C15.4166 17.9292 16.1039 18.0811 16.7895 18.0219L16.8448 17.9808C16.8276 18.1355 16.8344 18.2848 16.8672 18.464C16.0281 19.2763 16.2744 19.4187 14.596 19.7184C12.8984 20.0213 13.8957 20.5611 14.547 20.7024C15.3366 20.8731 17.1631 21.1157 18.3974 19.6197L18.3483 19.7904C18.6771 20.0187 18.6552 21.4304 18.7022 22.4395C18.7491 23.4485 18.8274 24.3899 19.0643 24.9451C19.3013 25.5003 19.582 26.9291 21.7875 26.5205C23.6307 26.1781 25.0403 25.6859 25.1692 21.1045" fill="#231F20"/>
<path d="M25.1734 21.1024C25.3488 19.8384 25.296 19.6528 26.3831 19.8576L26.6597 19.8789C27.4958 19.912 28.5891 19.7627 29.2315 19.504C30.6145 18.9483 31.4338 18.0203 30.0707 18.264C26.9603 18.8197 26.7463 17.9067 26.7463 17.9067C30.0305 13.6853 31.4036 8.3264 30.2189 7.0144C26.9807 3.43734 21.3914 5.12907 21.2922 5.17333L21.2625 5.17867C20.6477 5.06827 19.9599 5.00267 19.1875 4.992C17.78 4.97173 16.7122 5.312 15.9018 5.84373C15.9018 5.84373 5.92039 2.28107 6.38486 10.3237C6.48402 12.0347 9.21603 23.2693 12.4741 19.8757C13.665 18.6347 14.8163 17.5856 14.8163 17.5856C15.4166 17.9292 16.1039 18.0811 16.7895 18.0219L16.8448 17.9808C16.8276 18.1355 16.8344 18.2848 16.8672 18.464C16.0281 19.2763 16.2744 19.4187 14.596 19.7184C12.8984 20.0213 13.8957 20.5611 14.547 20.7024C15.3366 20.8731 17.1631 21.1157 18.3974 19.6197L18.3483 19.7904C18.6771 20.0187 18.6552 21.4304 18.7022 22.4395C18.7491 23.4485 18.8274 24.3899 19.0643 24.9451C19.3013 25.5003 19.582 26.9291 21.7875 26.5205C23.6307 26.1781 25.0403 25.6859 25.1692 21.1045" stroke="#231F20" stroke-width="4.108"/>
<path d="M30.0712 18.2635C26.9608 18.8192 26.7469 17.9061 26.7469 17.9061C30.031 13.6843 31.4041 8.32533 30.2194 7.01387C26.9869 3.4368 21.3924 5.12907 21.2933 5.17333L21.263 5.17867C20.6482 5.06827 19.9604 5.00267 19.1875 4.992C17.78 4.97227 16.7122 5.312 15.9023 5.84373C15.9023 5.84373 5.92039 2.28107 6.38486 10.3237C6.48402 12.0347 9.21551 23.2699 12.4741 19.8757C13.665 18.6347 14.8158 17.5856 14.8158 17.5856C15.4161 17.9292 16.1033 18.0811 16.789 18.0219L16.8448 17.9808C16.8276 18.1355 16.8354 18.2848 16.8672 18.464C16.0281 19.2763 16.2744 19.4187 14.5971 19.7184C12.8989 20.0213 13.8967 20.5611 14.548 20.7024C15.3376 20.8731 17.1642 21.1157 18.3984 19.6197L18.3494 19.7904C18.6781 20.0187 18.9093 21.2747 18.8712 22.4144C18.8331 23.5541 18.8065 24.3344 19.0659 24.9456C19.3253 25.5568 19.5836 26.9296 21.7901 26.5211C23.6334 26.1787 24.5889 25.2923 24.7215 23.8128C24.8154 22.7611 25.0294 22.9168 25.0424 21.9765L25.2136 21.5317C25.4109 20.1061 25.2449 19.6464 26.3805 19.8603L26.6571 19.8816C27.4931 19.9147 28.587 19.7653 29.2289 19.5067C30.6119 18.9509 31.4312 18.0229 30.0681 18.2667L30.0712 18.2635Z" fill="#417BA2"/>
<path d="M18.5367 19.0811C18.4511 21.7333 18.5576 24.4048 18.8576 25.0544C19.1577 25.704 19.7991 26.9664 22.0056 26.5568C23.8489 26.2144 24.5195 25.552 24.8102 24.0896C25.0189 23.0139 25.438 20.0256 25.4907 19.4139M15.8918 5.78293C15.8918 5.78293 5.89793 2.24693 6.36761 10.2933C6.47199 12.0043 9.19827 23.2395 12.4579 19.84C13.6488 18.5989 14.7254 17.6256 14.7254 17.6256M21.2932 5.1376C20.9472 5.23146 26.8496 3.2688 30.2037 6.98133C31.3884 8.29333 30.0159 13.6523 26.7312 17.8741" stroke="white" stroke-width="1.369" stroke-linecap="round" stroke-linejoin="round"/>
<path d="M26.7254 17.8736C26.7254 17.8736 26.9342 18.7856 30.0497 18.2299C31.4129 17.9861 30.5925 18.9141 29.2095 19.4704C28.075 19.9264 25.5313 20.0432 25.4901 19.4133C25.3831 17.7867 26.8287 18.2811 26.7244 17.8736C26.6304 17.5067 25.9833 17.1467 25.5554 16.2485C25.1822 15.4645 20.4358 9.4528 26.8715 10.3456C27.1074 10.3029 25.1927 5.04213 19.1686 4.9568C13.1446 4.87146 13.3445 11.3728 13.3445 11.3728" stroke="white" stroke-width="1.369" stroke-linecap="round" stroke-linejoin="bevel"/>
<path d="M16.8507 18.4299C16.0105 19.2421 16.2578 19.3845 14.5795 19.6843C12.8813 19.9883 13.8791 20.5269 14.5304 20.6683C15.32 20.8389 17.1466 21.0816 18.3808 19.5845C18.7566 19.1285 18.3787 18.4005 17.8626 18.216C17.6131 18.1264 17.2797 18.0144 16.8502 18.4293L16.8507 18.4299Z" stroke="white" stroke-width="1.369" stroke-linejoin="round"/>
<path d="M16.7959 18.416C16.7113 17.9381 16.977 17.3707 17.2619 16.7051C17.6899 15.7077 18.6772 14.7093 17.8882 11.544C17.2995 9.18506 13.3494 11.0533 13.3479 11.3733C13.3463 11.6933 13.5263 12.9947 13.2816 14.5093C12.9622 16.4869 14.734 18.1589 16.774 17.9883" stroke="white" stroke-width="1.369" stroke-linecap="round" stroke-linejoin="round"/>
<path d="M15.8564 11.3243C15.8386 11.4336 16.0876 11.7243 16.4116 11.7637C16.7357 11.8032 17.0118 11.5749 17.0301 11.4661C17.0483 11.3573 16.7994 11.2368 16.4748 11.1973C16.1502 11.1579 15.8736 11.2155 15.8564 11.3243Z" fill="white" stroke="white" stroke-width="0.456"/>
<path d="M25.7142 11.1019C25.7319 11.2112 25.4835 11.5019 25.1589 11.5413C24.8343 11.5808 24.5577 11.3525 24.54 11.2427C24.5222 11.1328 24.7711 11.0133 25.0952 10.9739C25.4193 10.9344 25.6954 10.9915 25.7137 11.1008L25.7142 11.1019Z" fill="white" stroke="white" stroke-width="0.228"/>
<path d="M26.8731 10.3456C26.9264 11.2027 26.6602 11.7856 26.6263 12.6987C26.5767 14.0245 27.3559 15.5413 26.1816 17.0613" stroke="white" stroke-width="1.369" stroke-linecap="round" stroke-linejoin="round"/>
</svg>
