<svg width="105" height="34" viewBox="0 0 105 34" fill="none" xmlns="http://www.w3.org/2000/svg">
<path d="M57.4681 10.561C57.4681 11.4011 56.7855 12.1508 55.8954 12.1508C55.2129 12.1508 54.6197 12.3309 54.1153 12.7208C53.5516 13.081 53.1065 13.5906 52.7506 14.1604C52.0385 15.1203 51.6831 16.2599 51.5343 16.6795V22.3781C51.5343 23.248 50.7928 23.9679 49.9027 23.9679C49.4865 23.9649 49.0883 23.7964 48.794 23.4989C48.4997 23.2014 48.3331 22.7988 48.3301 22.3781V10.5614C48.3301 9.69157 49.0418 9.00181 49.9027 9.00181C50.7928 9.00181 51.5343 9.69181 51.5343 10.5614V10.7715C51.7123 10.5614 51.9476 10.3217 52.1574 10.1715C53.1366 9.51194 54.4119 8.97164 55.8954 9.00181C56.7855 9.00181 57.4681 9.69181 57.4681 10.5614V10.561ZM56.597 16.4694C56.6269 12.3905 59.7717 8.97141 63.8357 8.97141C67.6926 8.97141 70.746 11.8806 70.986 15.9294V16.0793C70.986 16.1396 70.986 16.2891 70.9561 16.3492C70.8643 17.0691 70.2439 17.5491 69.4133 17.5491H59.979C60.1273 18.2391 60.4535 19.0187 60.9877 19.5288C61.6108 20.2487 62.7975 20.7881 63.8357 20.8781C64.9037 20.968 66.1774 20.6983 66.9212 20.1285C67.5441 19.4685 68.7606 19.5587 69.1463 20.0357C69.532 20.4534 69.8286 21.3558 69.1463 21.9852C67.6924 23.3345 65.9421 23.9649 63.8355 23.9649C59.7714 23.9354 56.6266 20.5463 56.5968 16.4673L56.597 16.4694ZM59.8309 14.9999H68.2266C67.93 13.8 66.4169 12.0308 63.8357 11.8207C61.3142 11.9405 60.0706 13.7703 59.8307 14.9999H59.8309ZM86.1017 22.3477C86.1017 23.2176 85.3896 23.9677 84.4993 23.9677C83.6957 23.9677 83.0754 23.3979 82.9266 22.678C81.8017 23.4578 80.3753 23.9677 78.8918 23.9677C74.8867 23.9677 71.6825 20.5486 71.6825 16.4996C71.6825 12.3905 74.8867 8.97141 78.8918 8.97141C80.3457 8.97141 81.7696 9.45114 82.8672 10.2309V4.59264C82.8672 3.72278 83.5793 2.97267 84.4988 2.97267C85.3889 2.97267 86.1013 3.72231 86.1013 4.59264V22.3479L86.1017 22.3477ZM78.8925 12.2404C77.8245 12.2404 76.8453 12.6901 76.104 13.4699C75.3624 14.2196 74.9171 15.2993 74.9171 16.4991C74.9171 17.6364 75.362 18.7183 76.104 19.4682C76.8455 20.248 77.8245 20.6983 78.8925 20.6983C79.9899 20.6983 80.9396 20.2485 81.6812 19.4682C82.4227 18.7186 82.8681 17.6387 82.8681 16.4991C82.8681 15.2993 82.4232 14.22 81.6812 13.4699C80.9396 12.6901 79.9901 12.2404 78.8925 12.2404ZM91.7489 5.22206C91.7489 6.12186 91.0666 6.87149 90.1465 6.87149C89.2564 6.87149 88.5445 6.12186 88.5445 5.22206V4.59217C88.5436 4.37924 88.5844 4.16823 88.6646 3.97133C88.7448 3.77443 88.8628 3.59553 89.0117 3.44495C89.1606 3.29437 89.3376 3.17509 89.5324 3.09399C89.7271 3.01289 89.9358 2.97158 90.1465 2.97244C91.0664 2.97244 91.7489 3.69237 91.7489 4.5924V5.22206ZM91.7489 10.6529V22.35C91.7489 23.2498 91.0666 23.97 90.1465 23.97C89.9358 23.9709 89.7271 23.9296 89.5324 23.8485C89.3376 23.7674 89.1606 23.6481 89.0117 23.4975C88.8628 23.3469 88.7448 23.168 88.6646 22.9711C88.5844 22.7742 88.5436 22.5632 88.5445 22.3503V10.6531C88.5445 9.69344 89.2562 9.00344 90.1465 9.00344C91.0666 9.00344 91.7489 9.69344 91.7489 10.6531V10.6529ZM93.786 19.6787C94.32 18.9593 95.3586 18.8692 96.0111 19.439C96.7825 20.099 98.1177 20.7883 99.2746 20.7586C100.078 20.7586 100.817 20.4889 101.292 20.1889C101.705 19.8291 101.826 19.5293 101.826 19.289C101.826 19.1391 101.796 19.0792 101.737 18.989C101.707 18.8991 101.589 18.7792 101.351 18.6292C100.938 18.3291 100.046 17.9991 98.978 17.7891H98.9481C98.0282 17.6092 97.1381 17.3713 96.3669 17.0093C95.5634 16.6194 94.8517 16.0798 94.3198 15.27C93.9938 14.7302 93.8156 14.0701 93.8156 13.3808C93.8156 12.0011 94.587 10.8314 95.5659 10.0815C96.6043 9.36201 97.8503 8.97211 99.2153 8.97211C101.262 8.97211 102.716 9.96196 103.666 10.6215C104.378 11.1015 104.585 12.0914 104.14 12.8408C103.666 13.5607 102.686 13.7707 101.945 13.2585C100.995 12.6289 100.165 12.1487 99.2128 12.1487C98.4713 12.1487 97.8183 12.3887 97.4326 12.6885C97.047 12.9587 96.9581 13.2286 96.9581 13.3785C96.9581 13.4983 96.9581 13.5284 97.0173 13.6183C97.0472 13.6781 97.136 13.7981 97.3438 13.9181C97.7295 14.188 98.5009 14.4579 99.5097 14.638L99.5395 14.6682H99.5694C100.549 14.8478 101.468 15.118 102.328 15.5378C103.132 15.8976 103.931 16.4676 104.435 17.3073C104.791 17.907 104.999 18.597 104.999 19.287C104.999 20.7565 104.195 21.9861 103.129 22.7683C102.061 23.5179 100.726 23.9681 99.2725 23.9681C96.9583 23.938 95.1784 22.8588 93.9917 21.8989C93.3388 21.359 93.2502 20.3392 93.7837 19.6792L93.786 19.6787Z" fill="#636466"/>
<path d="M37.5239 26.1727C35.4398 27.271 24.6431 31.7586 22.3446 32.9698C20.046 34.1811 18.7691 34.1697 16.9533 33.2925C15.1376 32.4152 3.64803 27.7233 1.57836 26.7232C0.543875 26.2233 0 25.8019 0 25.4031V21.4124C0 21.4124 14.9576 18.1205 17.3728 17.2446C19.788 16.3687 20.6252 16.3395 22.6802 17.0984C24.7352 17.8573 37.023 20.1007 39.0539 20.8526L39.0529 24.7865C39.0532 25.181 38.5846 25.6139 37.5239 26.1727Z" fill="#A41E11"/>
<path d="M37.5244 22.1811C35.4403 23.2789 24.6436 27.7669 22.3451 28.9782C20.0465 30.1895 18.7696 30.1781 16.9538 29.3008C15.1381 28.4235 3.64852 23.7312 1.57885 22.7316C-0.49081 21.732 -0.534202 21.0432 1.49896 20.2385L17.3733 14.0253C19.788 13.1499 20.6257 13.1202 22.6807 13.8791C24.7357 14.638 35.4683 18.9586 37.4989 19.7105C39.5296 20.4625 39.6083 21.0829 37.5219 22.1811H37.5244Z" fill="#D82C20"/>
<path d="M37.5239 19.6653C35.4398 20.7635 24.6431 25.2511 22.3446 26.4631C20.046 27.675 18.7691 27.6625 16.9533 26.785C15.1376 25.9075 3.64803 21.2158 1.57836 20.2158C0.543875 19.7159 0 19.2944 0 18.8961V14.9049C0 14.9049 14.9576 11.6128 17.3728 10.7371C19.788 9.86147 20.6252 9.832 22.6802 10.5909C24.7352 11.3498 37.023 13.5927 39.0539 14.3449L39.0529 18.2795C39.0532 18.674 38.5846 19.1066 37.5239 19.6655V19.6653Z" fill="#A41E11"/>
<path d="M37.5244 15.6736C35.4403 16.7718 24.6436 21.2595 22.3451 22.4714C20.0465 23.6834 18.7696 23.6708 16.9538 22.7933C15.1381 21.9158 3.64852 17.224 1.57885 16.2241C-0.49081 15.2243 -0.534202 14.5359 1.49896 13.7308L17.3733 7.51809C19.788 6.64243 20.6257 6.61296 22.6807 7.37188C24.7357 8.1308 35.4683 12.4511 37.4989 13.2033C39.5296 13.9555 39.6083 14.5756 37.5219 15.6738L37.5244 15.6736Z" fill="#D82C20"/>
<path d="M37.5239 12.9171C35.4398 14.0154 24.6431 18.5034 22.3446 19.7173C20.046 20.9311 18.7691 20.9167 16.9533 20.0392C15.1376 19.1616 3.64803 14.4698 1.57836 13.47C0.543875 12.97 0 12.5486 0 12.1503V8.15912C0 8.15912 14.9576 4.86488 17.3728 3.98922C19.788 3.11355 20.6252 3.08408 22.6802 3.843C24.7352 4.60193 37.023 6.84481 39.0539 7.597L39.0529 11.5313C39.0532 11.9254 38.5846 12.3583 37.5239 12.9169V12.9171Z" fill="#A41E11"/>
<path d="M37.5244 8.92523C35.4403 10.0235 24.6436 14.5116 22.3451 15.723C20.0465 16.9345 18.7696 16.9225 16.9538 16.0452C15.1381 15.1679 3.64852 10.4758 1.57885 9.47597C-0.49081 8.47614 -0.534202 7.78754 1.49896 6.98267L17.3733 0.76971C19.788 -0.106184 20.6257 -0.135428 22.6807 0.623495C24.7357 1.38242 35.4683 5.70271 37.4989 6.4549C39.5296 7.20709 39.6083 7.827 37.5219 8.925L37.5244 8.92523Z" fill="#D82C20"/>
<path d="M21.2594 5.43604L20.5014 7.27973L19.2765 5.22345L15.3691 4.86836L18.2848 3.8047L17.4123 2.17313L20.1414 3.2528L22.7166 2.40104L22.0196 4.08785L24.6437 5.08071L21.2594 5.43604ZM13.9824 11.3737L23.0325 9.96962L20.2998 14.0218L13.9824 11.3737Z" fill="white"/>
<path d="M11.5441 9.89721C14.2155 9.89721 16.3811 9.04858 16.3811 8.00176C16.3811 6.95493 14.2155 6.10631 11.5441 6.10631C8.87264 6.10631 6.70703 6.95493 6.70703 8.00176C6.70703 9.04858 8.87264 9.89721 11.5441 9.89721Z" fill="white"/>
<path d="M34 7.72604L28.6475 9.86216L28.6445 5.58481L34 7.72604Z" fill="#7A0C00"/>
<path d="M28.6447 5.58458L28.6477 9.86194L28.068 10.0931L22.7188 7.95395L28.6447 5.58458Z" fill="#AD2115"/>
</svg>
