<svg width="141" height="34" viewBox="0 0 141 34" fill="none" xmlns="http://www.w3.org/2000/svg">
<g clip-path="url(#clip0_745_1850)">
<path d="M47.0112 26.37C46.1509 26.3621 45.2923 26.2952 44.4412 26.17C43.5187 26.0445 42.6039 25.8675 41.7012 25.64V24.25C42.5942 24.4758 43.4989 24.6528 44.4112 24.78C45.2388 24.9047 46.0742 24.9715 46.9112 24.98C48.0689 25.0533 49.2203 24.7594 50.2012 24.14C50.5743 23.8672 50.8738 23.506 51.0728 23.0889C51.2718 22.6717 51.364 22.2116 51.3412 21.75C51.3644 21.2636 51.2627 20.7793 51.0456 20.3434C50.8285 19.9075 50.5034 19.5345 50.1012 19.26C49.702 18.9713 49.2687 18.7328 48.8112 18.55C48.2912 18.3567 47.7345 18.1733 47.1412 18C46.343 17.7712 45.564 17.4803 44.8112 17.13C44.2315 16.8672 43.698 16.5127 43.2312 16.08C42.8336 15.7072 42.5259 15.249 42.3312 14.74C42.1321 14.1818 42.034 13.5926 42.0412 13C42.032 12.3341 42.1721 11.6747 42.4512 11.07C42.7246 10.4891 43.1243 9.97661 43.6212 9.57C44.1554 9.11903 44.7741 8.77907 45.4412 8.57C46.2122 8.35532 47.0111 8.25757 47.8112 8.28C49.2975 8.30961 50.7762 8.50074 52.2212 8.85V10.27C51.4868 10.0812 50.7422 9.93427 49.9912 9.83C49.3285 9.73602 48.6604 9.68591 47.9912 9.68C46.8922 9.62265 45.8063 9.93995 44.9112 10.58C44.5261 10.8535 44.2137 11.217 44.0011 11.6387C43.7885 12.0605 43.6821 12.5278 43.6912 13C43.6836 13.413 43.7549 13.8237 43.9012 14.21C44.0522 14.594 44.2921 14.9367 44.6012 15.21C44.9809 15.5377 45.4094 15.8042 45.8712 16C46.5202 16.2756 47.1887 16.5029 47.8712 16.68C48.6112 16.9 49.2978 17.1367 49.9312 17.39C50.5261 17.6169 51.0826 17.9339 51.5812 18.33C52.0439 18.7045 52.4193 19.1754 52.6812 19.71C52.9645 20.3377 53.1013 21.0216 53.0812 21.71C53.1183 22.3725 52.996 23.0343 52.7246 23.6398C52.4532 24.2453 52.0405 24.7769 51.5212 25.19C50.1916 26.0754 48.604 26.4908 47.0112 26.37Z" fill="#01A71C"/>
<path d="M61.4304 26.32C60.6423 26.3757 59.8515 26.2597 59.1125 25.98C58.3736 25.7003 57.7041 25.2636 57.1504 24.7C56.1026 23.366 55.5828 21.6929 55.6904 20C55.5811 18.2188 56.0858 16.454 57.1204 15C57.626 14.4054 58.2638 13.9374 58.9827 13.6336C59.7016 13.3297 60.4817 13.1983 61.2604 13.25C61.9098 13.206 62.5605 13.3122 63.1623 13.5601C63.764 13.8081 64.3006 14.1913 64.7304 14.68C65.5797 15.8797 65.9958 17.3326 65.9104 18.8C65.9104 19.16 65.9104 19.4666 65.9104 19.72C65.902 19.9358 65.8718 20.1502 65.8204 20.36H57.2504C57.2165 21.628 57.6308 22.8673 58.4204 23.86C58.8432 24.2621 59.3454 24.5713 59.8948 24.7676C60.4442 24.964 61.0286 25.0431 61.6104 25C62.2209 24.9962 62.8299 24.9393 63.4304 24.83C64.0874 24.7117 64.733 24.5377 65.3604 24.31L65.4804 25.58C64.8332 25.8278 64.1634 26.012 63.4804 26.13C62.8042 26.2546 62.1181 26.3182 61.4304 26.32ZM61.2104 14.43C58.7571 14.43 57.4438 16.01 57.2704 19.17H64.4204C64.5195 17.9098 64.2484 16.6482 63.6404 15.54C63.3625 15.1644 62.9937 14.8655 62.5687 14.6714C62.1437 14.4772 61.6763 14.3942 61.2104 14.43Z" fill="#01A71C"/>
<path d="M69.4512 7H71.0312V26.11H69.4512V7Z" fill="#01A71C"/>
<path d="M80.3697 26.32C79.5815 26.3757 78.7907 26.2597 78.0518 25.98C77.3128 25.7003 76.6434 25.2636 76.0897 24.7C75.0454 23.3646 74.5292 21.6916 74.6397 20C74.5303 18.2188 75.0351 16.454 76.0697 15C76.5753 14.4054 77.213 13.9374 77.9319 13.6336C78.6508 13.3297 79.4309 13.1983 80.2097 13.25C80.859 13.206 81.5098 13.3122 82.1115 13.5601C82.7132 13.8081 83.2498 14.1913 83.6797 14.68C84.5112 15.8861 84.9095 17.3384 84.8097 18.8C84.8097 19.16 84.8097 19.4666 84.8097 19.72C84.8012 19.9358 84.7711 20.1502 84.7197 20.36H76.1897C76.1565 21.6278 76.5707 22.8669 77.3597 23.86C77.7835 24.2634 78.2874 24.5733 78.8386 24.7697C79.3899 24.9661 79.9762 25.0445 80.5597 25C81.1701 24.9962 81.7791 24.9393 82.3797 24.83C83.0365 24.7115 83.6822 24.5376 84.3097 24.31L84.4297 25.58C83.7824 25.8278 83.1126 26.012 82.4297 26.13C81.7501 26.2552 81.0606 26.3188 80.3697 26.32ZM80.1597 14.43C77.7063 14.43 76.393 16.01 76.2197 19.17H83.3697C83.4687 17.9098 83.1976 16.6482 82.5897 15.54C82.3117 15.1644 81.9429 14.8655 81.5179 14.6714C81.0929 14.4772 80.6255 14.3942 80.1597 14.43Z" fill="#01A71C"/>
<path d="M88.3203 13.37H89.6403L89.7603 14.86H89.8803C90.507 14.56 91.0803 14.3 91.6003 14.08C92.1203 13.86 92.597 13.68 93.0303 13.54C93.4222 13.4073 93.8232 13.3037 94.2303 13.23C94.5938 13.1691 94.9618 13.139 95.3303 13.14C95.7805 13.1061 96.2329 13.1649 96.6595 13.3128C97.0861 13.4607 97.4778 13.6946 97.8103 14C98.4222 14.7333 98.7204 15.6783 98.6403 16.63V26.14H97.0503V17.14C97.1106 16.4292 96.9156 15.7201 96.5003 15.14C96.2773 14.9259 96.0112 14.7616 95.7199 14.6582C95.4285 14.5547 95.1184 14.5145 94.8103 14.54C94.0467 14.5578 93.2907 14.6962 92.5703 14.95C91.6545 15.2587 90.7622 15.633 89.9003 16.07V26.07H88.3203V13.37Z" fill="#01A71C"/>
<path d="M103.561 10.52C103.423 10.5401 103.281 10.5286 103.148 10.4864C103.014 10.4442 102.892 10.3723 102.79 10.2761C102.688 10.18 102.609 10.062 102.559 9.93108C102.509 9.80016 102.489 9.65964 102.501 9.52002C102.501 9.23889 102.613 8.96928 102.812 8.77049C103.011 8.5717 103.28 8.46002 103.561 8.46002C103.843 8.46002 104.112 8.5717 104.311 8.77049C104.51 8.96928 104.621 9.23889 104.621 9.52002C104.633 9.65964 104.614 9.80016 104.564 9.93108C104.514 10.062 104.435 10.18 104.333 10.2761C104.231 10.3723 104.109 10.4442 103.975 10.4864C103.842 10.5286 103.7 10.5401 103.561 10.52ZM102.761 13.37H104.341V26.11H102.761V13.37Z" fill="#01A71C"/>
<path d="M111.62 26.34C109.527 26.34 108.48 25.1833 108.48 22.87V13.37H110.06V22.37C109.993 23.0715 110.162 23.7755 110.54 24.37C110.742 24.5853 110.99 24.7514 111.265 24.8555C111.541 24.9595 111.837 24.9987 112.13 24.97C112.98 24.9656 113.821 24.8028 114.61 24.49C115.444 24.17 116.307 23.79 117.2 23.35V13.37H118.81V26.11H117.49L117.37 24.53H117.28L115.55 25.34C115.057 25.5667 114.597 25.7567 114.17 25.91C113.77 26.0529 113.359 26.1633 112.94 26.24C112.504 26.313 112.063 26.3465 111.62 26.34Z" fill="#01A71C"/>
<path d="M122.99 13.37H124.29L124.43 14.86H124.52C125.347 14.3601 126.209 13.9223 127.1 13.55C127.736 13.2899 128.414 13.1509 129.1 13.14C129.726 13.0583 130.361 13.1881 130.905 13.5088C131.448 13.8295 131.869 14.3227 132.1 14.91H132.22C132.754 14.5767 133.237 14.3 133.67 14.08C134.061 13.8792 134.461 13.699 134.87 13.54C135.194 13.4085 135.529 13.3048 135.87 13.23C136.2 13.1677 136.535 13.1375 136.87 13.14C137.314 13.1075 137.76 13.1652 138.181 13.3096C138.602 13.4539 138.99 13.682 139.32 13.98C139.932 14.7133 140.23 15.6583 140.15 16.61V26.12H138.59V17.12C138.66 16.4083 138.464 15.696 138.04 15.12C137.815 14.9092 137.549 14.7478 137.258 14.6462C136.967 14.5446 136.657 14.505 136.35 14.53C135.739 14.5498 135.136 14.6784 134.57 14.91C133.821 15.2123 133.099 15.5769 132.41 16V26.1H130.81V17.1C130.88 16.3883 130.684 15.676 130.26 15.1C130.035 14.8892 129.769 14.7278 129.478 14.6262C129.187 14.5246 128.878 14.485 128.57 14.51C127.931 14.5287 127.301 14.6643 126.71 14.91C125.967 15.2114 125.251 15.576 124.57 16V26.11H122.99V13.37Z" fill="#01A71C"/>
<path d="M22.2596 21.51C21.6347 21.491 21.0256 21.7078 20.5531 22.1172C20.0807 22.5266 19.7796 23.0988 19.7096 23.72C19.7065 23.732 19.7062 23.7446 19.7088 23.7568C19.7114 23.7689 19.7168 23.7803 19.7246 23.79C19.7323 23.7997 19.7422 23.8075 19.7535 23.8127C19.7648 23.8179 19.7772 23.8204 19.7896 23.82H24.7396C24.751 23.8201 24.7623 23.8178 24.7727 23.8131C24.7831 23.8085 24.7924 23.8017 24.8 23.7932C24.8076 23.7846 24.8132 23.7746 24.8166 23.7637C24.82 23.7528 24.821 23.7413 24.8196 23.73C24.7709 23.0975 24.4749 22.5097 23.9956 22.0941C23.5164 21.6785 22.8926 21.4687 22.2596 21.51Z" fill="#01A71C"/>
<path d="M32.8705 4.91L22.3705 16.7C22.3406 16.7324 22.3042 16.7583 22.2638 16.776C22.2234 16.7937 22.1797 16.8028 22.1355 16.8028C22.0914 16.8028 22.0477 16.7937 22.0073 16.776C21.9669 16.7583 21.9305 16.7324 21.9005 16.7L16.5405 11.17C16.4951 11.1132 16.4703 11.0427 16.4703 10.97C16.4703 10.8973 16.4951 10.8268 16.5405 10.77L18.3105 8.5C18.3402 8.45871 18.3792 8.42507 18.4244 8.40186C18.4696 8.37865 18.5197 8.36655 18.5705 8.36655C18.6214 8.36655 18.6715 8.37865 18.7167 8.40186C18.7619 8.42507 18.8009 8.45871 18.8305 8.5L21.8305 11.82C21.8606 11.8557 21.8981 11.8845 21.9404 11.9042C21.9827 11.9239 22.0289 11.9341 22.0755 11.9341C22.1222 11.9341 22.1684 11.9239 22.2107 11.9042C22.253 11.8845 22.2905 11.8557 22.3205 11.82L30.6805 0.36C30.7038 0.326133 30.7176 0.286655 30.7204 0.245669C30.7232 0.204684 30.715 0.163687 30.6967 0.12694C30.6783 0.0901942 30.6504 0.05904 30.6159 0.0367164C30.5814 0.0143928 30.5416 0.00171465 30.5005 0L1.06055 0C0.994243 0 0.930654 0.0263392 0.88377 0.0732233C0.836886 0.120107 0.810547 0.183696 0.810547 0.25V33.75C0.810547 33.8163 0.836886 33.8799 0.88377 33.9268C0.930654 33.9737 0.994243 34 1.06055 34H33.0605C33.1269 34 33.1904 33.9737 33.2373 33.9268C33.2842 33.8799 33.3105 33.8163 33.3105 33.75V5.06C33.3304 5.00165 33.3263 4.93779 33.2991 4.88247C33.272 4.82715 33.2239 4.78489 33.1655 4.765C33.1072 4.74511 33.0433 4.74921 32.988 4.7764C32.9327 4.8036 32.8904 4.85165 32.8705 4.91ZM9.87055 30.27C7.76983 30.3759 5.71063 29.6584 4.13055 28.27C4.08063 28.2134 4.05309 28.1405 4.05309 28.065C4.05309 27.9895 4.08063 27.9166 4.13055 27.86L5.38055 26.11C5.40119 26.0742 5.42879 26.0428 5.46173 26.0178C5.49468 25.9928 5.53229 25.9746 5.57236 25.9644C5.61243 25.9541 5.65415 25.952 5.69506 25.9581C5.73596 25.9642 5.77523 25.9785 5.81055 26C6.95244 27.0587 8.45341 27.6448 10.0105 27.64C11.6505 27.64 12.4505 26.88 12.4505 26.08C12.4505 23.6 4.37055 25.3 4.37055 20.02C4.37055 17.69 6.37055 15.75 9.69055 15.75C11.5958 15.6823 13.4611 16.3076 14.9405 17.51C14.9962 17.5678 15.0272 17.6448 15.0272 17.725C15.0272 17.8052 14.9962 17.8822 14.9405 17.94L13.7105 19.65C13.6851 19.684 13.653 19.7124 13.6162 19.7335C13.5794 19.7546 13.5386 19.7679 13.4964 19.7726C13.4542 19.7773 13.4115 19.7733 13.3709 19.7608C13.3304 19.7483 13.2928 19.7276 13.2605 19.7C12.1696 18.8329 10.814 18.3669 9.42055 18.38C8.14055 18.38 7.42055 18.95 7.42055 19.79C7.42055 22.02 15.4805 20.53 15.4805 25.79C15.4805 28.33 13.6505 30.27 9.86055 30.27H9.87055ZM27.4905 25.4C27.492 25.4371 27.4857 25.4742 27.4721 25.5088C27.4585 25.5434 27.4379 25.5748 27.4117 25.6011C27.3854 25.6274 27.3539 25.648 27.3193 25.6615C27.2847 25.6751 27.2477 25.6814 27.2105 25.68H19.8105C19.7987 25.6812 19.7872 25.6848 19.7768 25.6905C19.7663 25.6963 19.7571 25.704 19.7497 25.7133C19.7422 25.7226 19.7367 25.7333 19.7334 25.7447C19.7301 25.7562 19.7292 25.7682 19.7305 25.78C19.8505 26.4715 20.225 27.0931 20.7802 27.5224C21.3353 27.9517 22.0311 28.1578 22.7305 28.1C23.6484 28.0806 24.5396 27.7881 25.2905 27.26C25.3199 27.2354 25.354 27.2174 25.3908 27.207C25.4277 27.1966 25.4662 27.1942 25.5041 27.1999C25.5419 27.2056 25.5781 27.2192 25.6102 27.2399C25.6424 27.2606 25.6697 27.2879 25.6905 27.32L26.5905 28.63C26.6281 28.6882 26.6427 28.7582 26.6316 28.8265C26.6205 28.8948 26.5845 28.9567 26.5305 29C25.3424 29.8671 23.901 30.3171 22.4305 30.28C21.696 30.321 20.961 30.208 20.2727 29.9483C19.5843 29.6886 18.9579 29.288 18.4334 28.772C17.909 28.2561 17.4982 27.6362 17.2273 26.9522C16.9565 26.2682 16.8315 25.5351 16.8605 24.8C16.8402 24.0825 16.9655 23.3684 17.2288 22.7007C17.4922 22.033 17.8883 21.4256 18.393 20.9153C18.8977 20.4049 19.5007 20.0022 20.1654 19.7315C20.8302 19.4607 21.5429 19.3275 22.2605 19.34C25.3705 19.34 27.4805 21.67 27.4805 25.08L27.4905 25.4Z" fill="#01A71C"/>
</g>
<defs>
<clipPath id="clip0_745_1850">
<rect width="139.38" height="34" fill="white" transform="translate(0.810547)"/>
</clipPath>
</defs>
</svg>
