<svg width="74" height="74" viewBox="0 0 74 74" fill="none" xmlns="http://www.w3.org/2000/svg">
<g clip-path="url(#clip0_745_1798)">
<path d="M4.79798 73.9195H0V62.8741H4.79798C8.2547 62.8741 9.98537 64.615 9.98537 68.0957C9.98537 71.9761 8.2547 73.9195 4.79798 73.9195ZM2.05165 72.1417H4.4881C6.78487 72.1417 7.93188 70.793 7.93188 68.0939C7.93188 65.7962 6.78487 64.6473 4.4881 64.6473H2.05165V72.1417ZM12.1351 73.9195H10.0289L14.7269 62.8741H16.9321L21.7329 73.9195H19.5258L18.1328 70.9068H14.5872L15.2921 69.1317H17.5917L15.7796 64.9822L12.1351 73.9195ZM20.5729 62.8741H28.9719V64.6501H25.7983V73.9195H23.7475V64.6501H20.572L20.5729 62.8741ZM30.0264 73.9195H27.9202L32.6192 62.8741H34.8244L39.6242 73.9195H37.4172L36.0241 70.9068H32.4786L33.1816 69.1317H35.4811L33.6691 64.9822L30.0264 73.9195ZM45.7829 73.9195H40.9849V62.8741H45.7829C49.2415 62.8741 50.9703 64.615 50.9703 68.0957C50.9703 71.9761 49.2415 73.9195 45.7829 73.9195ZM43.0356 72.1417H45.4739C47.7688 72.1417 48.9186 70.793 48.9186 68.0939C48.9186 65.7962 47.7688 64.6473 45.4739 64.6473H43.0356V72.1417ZM52.3587 68.4121C52.3587 64.6667 54.2133 62.7945 57.918 62.7945C61.5662 62.7945 63.3893 64.6667 63.3893 68.4121C63.3893 72.1352 61.5662 73.9991 57.918 73.9991C54.3771 73.9981 52.5261 72.1352 52.3587 68.4121ZM57.918 72.2185C60.1463 72.2185 61.2609 70.9346 61.2609 68.3649C61.2609 65.835 60.1463 64.5687 57.918 64.5687C55.6314 64.5687 54.489 65.835 54.489 68.3649C54.4899 70.9346 55.6323 72.2185 57.918 72.2185ZM71.9483 69.4499V72.0353C71.4748 72.1593 71.0502 72.2194 70.6792 72.2194C68.1697 72.2194 66.9173 70.8939 66.9173 68.2419C66.9173 65.7934 68.2474 64.5696 70.9031 64.5696C72.0131 64.5696 73.0445 64.7759 73.9991 65.1885V63.3338C73.0454 62.974 71.9622 62.7927 70.7486 62.7927C66.7757 62.7927 64.7879 64.6075 64.7879 68.2409C64.7879 72.076 66.7415 73.9972 70.6478 73.9972C71.9918 73.9972 73.1083 73.8011 74 73.4089V67.6304H70.6876L69.9948 69.4481H71.9483V69.4499Z" fill="#632CA6"/>
<path d="M55.5113 41.6685L50.6291 38.4476L46.5563 45.251L41.8194 43.8663L37.6486 50.2321L37.8623 52.2357L60.5405 48.0565L59.2233 33.8864L55.5113 41.6685ZM34.363 35.5598L38.0019 35.0593C38.5902 35.3239 39 35.4247 39.7058 35.6042C40.8056 35.89 42.0775 36.1647 43.9617 35.2157C44.4002 34.9983 45.3141 34.163 45.6831 33.6866L60.5904 30.9829L62.1111 49.3885L36.571 53.9913L34.363 35.5598ZM62.0538 28.9275L60.5821 29.2078L57.7553 0L9.58594 5.58515L15.5207 53.7425L21.1595 52.9239C20.7091 52.281 20.0079 51.5031 18.811 50.5078C17.1506 49.1286 17.737 46.7846 18.7175 45.3046C20.0135 42.8044 26.691 39.627 26.3127 35.631C26.1767 34.1778 25.9464 32.2871 24.5968 30.9903C24.546 31.5286 24.6375 32.0457 24.6375 32.0457C24.6375 32.0457 24.0835 31.339 23.8078 30.3761C23.534 30.0061 23.3185 29.8886 23.0271 29.3946C22.819 29.9654 22.8467 30.6277 22.8467 30.6277C22.8467 30.6277 22.3935 29.5575 22.3204 28.6537C22.0522 29.058 21.9846 29.8257 21.9846 29.8257C21.9846 29.8257 21.3963 28.1385 21.5305 27.2292C21.2622 26.4384 20.4658 24.8686 20.6906 21.3018C22.1604 22.3314 25.397 22.0871 26.6577 20.2288C27.0758 19.6128 27.3635 17.933 26.4487 14.6215C25.8613 12.4986 24.4072 9.33695 23.8402 8.13723L23.7727 8.18625C24.0714 9.15287 24.6875 11.1777 24.9243 12.161C25.6402 15.1395 25.8317 16.1773 25.4959 17.551C25.2101 18.7451 24.5247 19.5258 22.7875 20.399C21.0504 21.275 18.7444 19.1429 18.5991 19.0254C16.911 17.6804 15.6049 15.4873 15.4597 14.4207C15.308 13.2543 16.1322 12.5541 16.5475 11.6004C15.9527 11.7697 15.2904 12.0722 15.2904 12.0722C15.2904 12.0722 16.0813 11.2535 17.0562 10.5459C17.4605 10.2786 17.6973 10.1084 18.1228 9.75505C17.5067 9.74487 17.0063 9.76245 17.0063 9.76245C17.0063 9.76245 18.034 9.20745 19.0986 8.80322C18.3198 8.769 17.5733 8.79768 17.5733 8.79768C17.5733 8.79768 19.8664 7.77185 21.6766 7.01982C22.9217 6.50922 24.138 6.66 24.8216 7.64883C25.7189 8.94382 26.6614 9.64682 28.6585 10.0825C29.8851 9.5386 30.2569 9.26017 31.798 8.8393C33.154 7.34728 34.2187 7.15488 34.2187 7.15488C34.2187 7.15488 33.6905 7.63958 33.549 8.40085C34.3177 7.79498 35.1603 7.289 35.1603 7.289C35.1603 7.289 34.8338 7.69137 34.5295 8.33147L34.5998 8.43692C35.497 7.89858 36.5515 7.47493 36.5515 7.47493C36.5515 7.47493 36.25 7.85602 35.8966 8.34905C36.5737 8.3435 37.9455 8.37772 38.4783 8.43785C41.6224 8.50723 42.2745 5.08103 43.4807 4.6509C44.9912 4.11162 45.6665 3.7851 48.2408 6.31405C50.4487 8.48595 52.1748 12.3709 51.3173 13.2414C50.5986 13.9638 49.1815 12.9592 47.6108 11.0019C46.7811 9.96502 46.153 8.7394 45.8589 7.1817C45.611 5.86728 44.6453 5.10508 44.6453 5.10508C44.6453 5.10508 45.2049 6.35383 45.2049 7.45365C45.2049 8.0549 45.2798 10.3017 46.2437 11.5634C46.1484 11.7475 46.104 12.4755 45.9986 12.6152C44.8775 11.26 42.4697 10.2906 42.0766 10.0048C43.4058 11.0935 46.4601 13.5947 47.633 15.9932C48.743 18.2604 48.0891 20.3389 48.6505 20.8763C48.8106 21.0299 51.037 23.8049 51.4653 25.1989C52.2127 27.6279 51.5097 30.1818 50.532 31.7654L47.8005 32.1909C47.4009 32.0799 47.1317 32.0244 46.7737 31.8172C46.9717 31.4676 47.3639 30.5962 47.3676 30.4158L47.2131 30.1458C46.363 31.3501 44.9394 32.5193 43.7564 33.1908C42.2079 34.0687 40.4236 33.9327 39.2618 33.5738C35.9651 32.5572 32.8469 30.3289 32.0949 29.7434C32.0949 29.7434 32.0718 30.2105 32.2133 30.316C33.0439 31.2539 34.9485 32.9494 36.7902 34.1325L32.8654 34.5645L34.721 49.0102C33.8986 49.1277 33.7701 49.186 32.87 49.3136C32.0764 46.5099 30.5585 44.6794 28.899 43.6128C27.4357 42.6721 25.4173 42.4603 23.4859 42.8432L23.362 42.9875C24.7051 42.8478 26.2905 43.0421 27.9194 44.0735C29.5178 45.0845 30.8064 47.6958 31.2809 49.2673C31.8886 51.2765 32.3086 53.4262 30.6732 55.7044C29.5104 57.3241 26.1157 58.2186 23.3721 56.2826C24.1047 57.461 25.0945 58.4239 26.4283 58.6052C28.4078 58.8744 30.2865 58.5303 31.5797 57.2029C32.6832 56.068 33.2696 53.6944 33.1152 51.195L34.8625 50.9416L35.4933 55.4278L64.4135 51.9452L62.0538 28.9275ZM44.4584 16.7444C44.378 16.9284 44.2503 17.0496 44.4409 17.649L44.452 17.6832L44.4825 17.7609L44.562 17.9404C44.9052 18.6425 45.2817 19.3038 45.9125 19.6424C46.0753 19.6146 46.2446 19.5961 46.4194 19.5878C47.0114 19.5619 47.3851 19.6553 47.621 19.783C47.6423 19.6646 47.6469 19.4925 47.634 19.2381C47.5877 18.3492 47.8097 16.8378 46.1012 16.0423C45.4565 15.7435 44.5519 15.8351 44.2503 16.2088C44.3049 16.2162 44.3539 16.2273 44.3928 16.2402C44.8497 16.3984 44.5408 16.5557 44.4584 16.7444ZM49.2481 25.0379C49.0242 24.9139 47.9771 24.963 47.2408 25.0508C45.8385 25.2164 44.3243 25.7021 43.9932 25.9611C43.3901 26.4273 43.6639 27.2394 44.1097 27.5733C45.3594 28.5067 46.4546 29.1329 47.6099 28.9802C48.3194 28.8868 48.9456 27.763 49.3887 26.7436C49.6921 26.0415 49.6921 25.2839 49.2481 25.0379ZM36.8337 17.8442C37.2286 17.4686 34.8643 16.9756 33.0291 18.2271C31.6759 19.1503 31.6324 21.1298 32.9283 22.2518C33.0578 22.3628 33.1651 22.4414 33.2641 22.5062C33.6424 22.3277 34.0735 22.1482 34.5702 21.9873C35.4082 21.7153 36.1057 21.5747 36.6783 21.4998C36.9521 21.1936 37.2712 20.6543 37.1916 19.6775C37.0825 18.352 36.0798 18.562 36.8337 17.8442Z" fill="#632CA6"/>
</g>
<defs>
<clipPath id="clip0_745_1798">
<rect width="74" height="74" fill="white"/>
</clipPath>
</defs>
</svg>
