<svg width="80" height="84" viewBox="0 0 80 84" fill="none" xmlns="http://www.w3.org/2000/svg">
<g clip-path="url(#clip0_745_1755)">
<mask id="mask0_745_1755" style="mask-type:luminance" maskUnits="userSpaceOnUse" x="-26" y="-43" width="131" height="169">
<path d="M104.368 -42.1253H-25.2988V126H104.368V-42.1253Z" fill="white"/>
</mask>
<g mask="url(#mask0_745_1755)">
<mask id="mask1_745_1755" style="mask-type:luminance" maskUnits="userSpaceOnUse" x="-26" y="-43" width="131" height="169">
<path d="M104.368 -42.1253H-25.2988V126H104.368V-42.1253Z" fill="white"/>
</mask>
<g mask="url(#mask1_745_1755)">
<path d="M17.015 72.9661C16.8512 77.1899 13.5256 80.4801 9.39308 80.4801C5.03134 80.4801 1.78906 76.9423 1.78906 72.6767C1.78906 68.3693 5.2993 64.8315 9.57767 64.8315C11.5099 64.8315 13.4005 65.6638 14.9993 67.1612L13.7518 68.7004C12.5252 67.6385 11.0514 66.9107 9.57767 66.9107C6.4396 66.9107 3.86424 69.4909 3.86424 72.6767C3.86424 75.9013 6.29371 78.401 9.3901 78.401C12.1739 78.401 14.3562 76.3607 14.7909 73.7386H8.47905V71.8862H17.0179V72.9661H17.015Z" fill="#414042"/>
</g>
<mask id="mask2_745_1755" style="mask-type:luminance" maskUnits="userSpaceOnUse" x="-26" y="-43" width="131" height="169">
<path d="M104.368 -42.1253H-25.2988V126H104.368V-42.1253Z" fill="white"/>
</mask>
<g mask="url(#mask2_745_1755)">
<path d="M24.2648 71.9459H23.1007C21.8145 71.9459 20.7754 72.9899 20.7754 74.2756V80.3518H18.6973V69.9443H20.4003V70.8183C20.96 70.2575 21.8532 69.9443 22.8506 69.9443H25.0925L24.2648 71.9459Z" fill="#414042"/>
</g>
<mask id="mask3_745_1755" style="mask-type:luminance" maskUnits="userSpaceOnUse" x="-26" y="-43" width="131" height="169">
<path d="M104.368 -42.1253H-25.2988V126H104.368V-42.1253Z" fill="white"/>
</mask>
<g mask="url(#mask3_745_1755)">
<path d="M35.5831 80.3548H33.8176V79.0423C32.451 80.3787 30.2984 81.02 28.116 80.0595C26.4994 79.3466 25.2965 77.87 24.975 76.128C24.3557 72.7632 26.94 69.7773 30.2418 69.7773C31.6322 69.7773 32.8797 70.3381 33.7937 71.2538V69.9413H35.5801V80.3548H35.5831ZM33.4573 75.8983C33.9486 73.7834 32.3497 71.8624 30.2656 71.8624C28.4584 71.8624 27.0055 73.3389 27.0055 75.1287C27.0055 77.1541 28.7829 78.7202 30.8492 78.3682C32.1205 78.1504 33.1655 77.1601 33.4573 75.8983Z" fill="#414042"/>
</g>
<mask id="mask4_745_1755" style="mask-type:luminance" maskUnits="userSpaceOnUse" x="-26" y="-43" width="131" height="169">
<path d="M104.368 -42.1253H-25.2988V126H104.368V-42.1253Z" fill="white"/>
</mask>
<g mask="url(#mask4_745_1755)">
<path d="M39.7702 69.3656V69.9473H43.072V71.7788H39.7702V80.3548H37.7129V69.4283C37.7129 67.1374 39.3534 65.7861 41.4107 65.7861H43.9027L43.072 67.7429H41.4137C40.4996 67.7429 39.7702 68.4707 39.7702 69.3656Z" fill="#414042"/>
</g>
<mask id="mask5_745_1755" style="mask-type:luminance" maskUnits="userSpaceOnUse" x="-26" y="-43" width="131" height="169">
<path d="M104.368 -42.1253H-25.2988V126H104.368V-42.1253Z" fill="white"/>
</mask>
<g mask="url(#mask5_745_1755)">
<path d="M54.0811 80.3548H52.3156V79.0423C50.949 80.3787 48.7964 81.02 46.6141 80.0595C44.9974 79.3466 43.7946 77.87 43.473 76.128C42.8537 72.7632 45.438 69.7773 48.7399 69.7773C50.1303 69.7773 51.3778 70.3381 52.2918 71.2538V69.9413H54.0782V80.3548H54.0811ZM51.9583 75.8983C52.4496 73.7834 50.8508 71.8624 48.7667 71.8624C46.9594 71.8624 45.5065 73.3389 45.5065 75.1287C45.5065 77.1541 47.284 78.7202 49.3502 78.3682C50.6185 78.1504 51.6665 77.1601 51.9583 75.8983Z" fill="#414042"/>
</g>
<mask id="mask6_745_1755" style="mask-type:luminance" maskUnits="userSpaceOnUse" x="-26" y="-43" width="131" height="169">
<path d="M104.368 -42.1253H-25.2988V126H104.368V-42.1253Z" fill="white"/>
</mask>
<g mask="url(#mask6_745_1755)">
<path d="M65.1793 74.192V80.3518H63.1011V74.192C63.1011 72.9004 62.0412 71.8624 60.7758 71.8624C59.4658 71.8624 58.4297 72.9034 58.4297 74.192V80.3518H56.3516V69.9443H58.0754V70.8392C58.8227 70.174 59.8201 69.7773 60.8592 69.7773C63.2678 69.7803 65.1793 71.7579 65.1793 74.192Z" fill="#414042"/>
</g>
<mask id="mask7_745_1755" style="mask-type:luminance" maskUnits="userSpaceOnUse" x="-26" y="-43" width="131" height="169">
<path d="M104.368 -42.1253H-25.2988V126H104.368V-42.1253Z" fill="white"/>
</mask>
<g mask="url(#mask7_745_1755)">
<path d="M77.3936 80.3548H75.6281V79.0423C74.2615 80.3787 72.1089 81.02 69.9266 80.0595C68.3099 79.3466 67.1071 77.87 66.7855 76.128C66.1662 72.7632 68.7505 69.7773 72.0524 69.7773C73.4428 69.7773 74.6902 70.3381 75.6043 71.2538V69.9413H77.3907V80.3548H77.3936ZM75.2679 75.8983C75.7591 73.7834 74.1603 71.8624 72.0762 71.8624C70.269 71.8624 68.816 73.3389 68.816 75.1287C68.816 77.1541 70.5935 78.7202 72.6597 78.3682C73.9281 78.1504 74.9761 77.1601 75.2679 75.8983Z" fill="#414042"/>
</g>
</g>
<mask id="mask8_745_1755" style="mask-type:luminance" maskUnits="userSpaceOnUse" x="-26" y="-43" width="131" height="169">
<path d="M104.368 -42.1253H-25.2988V126H104.368V-42.1253Z" fill="white"/>
</mask>
<g mask="url(#mask8_745_1755)">
<mask id="mask9_745_1755" style="mask-type:luminance" maskUnits="userSpaceOnUse" x="12" y="3" width="55" height="60">
<path d="M36.6087 9.80199C36.6087 9.80199 36.5878 9.88849 36.561 10.0347C36.3139 10.1062 36.0668 10.1749 35.8197 10.2554C35.4773 10.3598 35.1409 10.4851 34.7985 10.6074C34.462 10.7386 34.1196 10.8699 33.7862 11.019C33.1133 11.3084 32.4464 11.6335 31.7944 12.0004C31.1632 12.3554 30.5409 12.7462 29.9365 13.1697C29.8502 13.128 29.7817 13.0982 29.7817 13.0982C23.6098 10.7357 18.1286 13.5784 18.1286 13.5784C17.6284 20.1558 20.5938 24.3021 21.1803 25.0538C21.0344 25.4595 20.8975 25.8712 20.7724 26.2858C20.3169 27.7773 19.9745 29.3075 19.7631 30.8885C19.7333 31.1152 19.7065 31.3449 19.6797 31.5746C13.9782 34.3964 12.2871 40.1804 12.2871 40.1804C17.0478 45.666 22.5975 46.0061 22.5975 46.0061C22.6034 46.0031 22.6064 45.9972 22.6124 45.9942C23.318 47.256 24.1338 48.4581 25.0538 49.5767C25.4378 50.045 25.8427 50.4984 26.2625 50.9369C24.5268 55.9095 26.5067 60.0469 26.5067 60.0469C31.8063 60.2467 35.2867 57.7232 36.0192 57.1415C36.5461 57.3205 37.082 57.4785 37.6209 57.6187C39.2495 58.0393 40.9168 58.2869 42.5841 58.3585C43.0009 58.3764 43.4177 58.3854 43.8316 58.3824H44.034L44.165 58.3794L44.427 58.3705L44.6861 58.3585L44.692 58.3675C47.187 61.9351 51.5785 62.4392 51.5785 62.4392C54.7017 59.1401 54.8803 55.8678 54.8803 55.1608C54.8803 55.1608 54.8803 55.1369 54.8803 55.1131C54.8803 55.0534 54.8774 55.0146 54.8774 55.0146C54.8744 54.9639 54.8744 54.9162 54.8684 54.8625C55.5234 54.4031 56.1487 53.908 56.7411 53.377C57.9916 52.2435 59.0843 50.9548 59.9894 49.5618C60.0757 49.4305 60.1591 49.2993 60.2395 49.1651C63.7735 49.3679 66.2655 46.9726 66.2655 46.9726C65.679 43.2827 63.58 41.484 63.1423 41.1439C63.1423 41.1439 63.1245 41.129 63.0977 41.1111C63.0739 41.0932 63.056 41.0812 63.056 41.0812C63.0352 41.0663 63.0084 41.0484 62.9786 41.0305C62.9994 40.8068 63.0203 40.5861 63.0322 40.3653C63.059 39.9686 63.0679 39.5689 63.0709 39.1751L63.0679 38.8798L63.0649 38.7307V38.6561C63.0649 38.5547 63.062 38.5935 63.062 38.5547L63.05 38.3071L63.0322 37.973C63.0262 37.8567 63.0173 37.7582 63.0084 37.6538C62.9994 37.5524 62.9905 37.448 62.9786 37.3466L62.9429 37.0393L62.9012 36.7351C62.8416 36.3294 62.7642 35.9267 62.6719 35.53C62.3027 33.9401 61.6835 32.4307 60.8647 31.0734C60.0459 29.7162 59.0277 28.5141 57.8814 27.5028C56.7352 26.4886 55.449 25.6743 54.1003 25.0658C52.7516 24.4572 51.3344 24.0665 49.9231 23.8875C49.2175 23.795 48.5149 23.7592 47.8182 23.7682L47.5592 23.7741L47.4937 23.7771C47.4758 23.7771 47.3954 23.7801 47.4043 23.7801L47.2972 23.7861L47.0381 23.804C46.9399 23.8099 46.8387 23.8189 46.7523 23.8278C46.395 23.8636 46.0407 23.9114 45.6894 23.977C44.2901 24.2395 42.9682 24.7466 41.804 25.4446C40.6399 26.1426 39.6276 27.0166 38.8029 28.007C37.9812 28.9943 37.3411 30.0891 36.9004 31.2226C36.4598 32.3561 36.2127 33.5254 36.1442 34.6619C36.1263 34.9453 36.1204 35.2287 36.1263 35.5091C36.1263 35.5777 36.1293 35.6493 36.1323 35.7179L36.1412 35.9446C36.1502 36.0818 36.1621 36.216 36.174 36.3503C36.2305 36.926 36.3347 37.4778 36.4896 38.0118C36.7962 39.0767 37.2905 40.0402 37.8978 40.8575C38.5052 41.6778 39.2317 42.355 40.0028 42.883C40.7739 43.4109 41.5986 43.7898 42.4144 44.0314C43.2331 44.273 44.0459 44.3774 44.8111 44.3744C44.9064 44.3744 45.0017 44.3714 45.0969 44.3685C45.1475 44.3685 45.1982 44.3625 45.2488 44.3625C45.2994 44.3595 45.35 44.3565 45.4006 44.3535C45.481 44.3446 45.5644 44.3386 45.6448 44.3297C45.6626 44.3297 45.6894 44.3237 45.7132 44.3207L45.7877 44.3118C45.8383 44.3058 45.8859 44.2969 45.9365 44.2909C46.0378 44.279 46.1241 44.2581 46.2134 44.2432C46.3027 44.2253 46.3921 44.2074 46.4814 44.1835C46.657 44.1447 46.8267 44.0911 46.9965 44.0403C47.3299 43.93 47.6425 43.7957 47.9343 43.6466C48.2261 43.4974 48.494 43.3274 48.7441 43.1514C48.8156 43.1007 48.8841 43.047 48.9525 42.9933C49.2205 42.7845 49.2622 42.3908 49.0478 42.1283C48.8602 41.8986 48.5387 41.8389 48.2826 41.9821C48.2201 42.0179 48.1546 42.0507 48.0891 42.0835C47.8658 42.1909 47.6336 42.2923 47.3865 42.3729C47.1394 42.4504 46.8833 42.5161 46.6154 42.5638C46.4814 42.5817 46.3474 42.6026 46.2104 42.6145C46.142 42.6234 46.0735 42.6264 46.002 42.6264C45.9336 42.6294 45.8591 42.6354 45.7966 42.6324C45.7311 42.6324 45.6656 42.6294 45.5971 42.6294C45.5138 42.6264 45.4304 42.6205 45.347 42.6175C45.347 42.6175 45.3053 42.6175 45.3381 42.6145L45.3113 42.6115L45.2547 42.6055C45.216 42.6026 45.1803 42.5996 45.1416 42.5936C45.0672 42.5847 44.9927 42.5757 44.9183 42.5638C44.3199 42.4803 43.7125 42.3043 43.1289 42.0388C42.5424 41.7733 41.9827 41.4094 41.4765 40.953C40.9704 40.4996 40.5298 39.9507 40.1844 39.3303C39.839 38.7128 39.5979 38.0237 39.4847 37.3018C39.4282 36.9409 39.4043 36.568 39.4133 36.2041C39.4192 36.1027 39.4222 36.0043 39.4282 35.9028C39.4282 35.9297 39.4311 35.8879 39.4311 35.8849L39.4341 35.8491L39.4401 35.7746C39.443 35.7239 39.449 35.6761 39.455 35.6254C39.4758 35.4286 39.5056 35.2287 39.5413 35.0348C39.8182 33.4628 40.6042 31.9295 41.8189 30.7632C42.1226 30.4739 42.4501 30.2024 42.7985 29.9638C43.1468 29.7251 43.519 29.5104 43.906 29.3314C44.2931 29.1524 44.698 29.0062 45.1118 28.8929C45.5257 28.7825 45.9514 28.708 46.3831 28.6692C46.5975 28.6513 46.8148 28.6423 47.0322 28.6423C47.0887 28.6423 47.1334 28.6453 47.1781 28.6453L47.3537 28.6513L47.4639 28.6543C47.5085 28.6543 47.4639 28.6543 47.4847 28.6572L47.5294 28.6602L47.705 28.6722C48.1725 28.7109 48.6399 28.7766 49.0984 28.881C50.0184 29.0868 50.9116 29.4239 51.7452 29.8862C53.4125 30.8109 54.8327 32.2577 55.705 34.0027C56.1457 34.8707 56.4494 35.8074 56.6042 36.7739C56.6399 37.0155 56.6697 37.2601 56.6905 37.5047L56.7054 37.6896L56.7143 37.8746C56.7173 37.9372 56.7173 37.9969 56.7203 38.0595C56.7203 38.1192 56.7233 38.1878 56.7233 38.2325V38.3906L56.7203 38.5696C56.7143 38.6889 56.7054 38.8828 56.6995 39.0021C56.6786 39.2676 56.6578 39.5361 56.6221 39.8016C56.5893 40.0641 56.5446 40.3266 56.497 40.5891C56.4434 40.8486 56.3898 41.1081 56.3213 41.3646C56.1933 41.8807 56.0266 42.3848 55.8331 42.88C55.443 43.8703 54.922 44.8099 54.2938 45.678C53.0344 47.4111 51.3165 48.828 49.3634 49.7169C48.3868 50.1584 47.3567 50.4835 46.2968 50.6595C45.7668 50.749 45.2309 50.8027 44.695 50.8206L44.5967 50.8236H44.5104L44.3377 50.8266H44.0727H43.9417C44.0162 50.8266 43.9298 50.8266 43.9328 50.8236L43.8792 50.8206C43.5904 50.8146 43.3046 50.7997 43.0188 50.7788C41.8725 50.6923 40.7382 50.4895 39.6395 50.1673C38.5409 49.8482 37.4751 49.4216 36.4657 48.8847C34.4501 47.8048 32.6488 46.3253 31.2376 44.5415C30.529 43.6526 29.9097 42.698 29.3976 41.6928C28.8855 40.6875 28.4836 39.6345 28.1859 38.5577C27.8911 37.4808 27.7065 36.3771 27.6351 35.2675L27.6232 35.0587L27.6202 35.008V34.9632L27.6172 34.8707L27.6113 34.6888L27.6083 34.644V34.5814V34.4531L27.6053 34.1936V34.1429C27.6053 34.1518 27.6053 34.1518 27.6053 34.125V34.0236C27.6053 33.8893 27.6113 33.7521 27.6142 33.6179C27.6351 33.069 27.6797 32.5053 27.7512 31.9415C27.8226 31.3777 27.9149 30.8109 28.0311 30.2472C28.1472 29.6864 28.2841 29.1285 28.439 28.5827C28.7516 27.4879 29.1416 26.426 29.6031 25.4237C30.529 23.4162 31.7437 21.6473 33.2026 20.2214C33.5659 19.8635 33.944 19.5264 34.337 19.2102C34.73 18.894 35.1379 18.6017 35.5577 18.3273C35.9745 18.0499 36.4062 17.7993 36.8498 17.5666C37.0701 17.4473 37.2964 17.3429 37.5227 17.2325C37.6358 17.1818 37.7519 17.1311 37.8651 17.0804C37.9782 17.0297 38.0943 16.979 38.2104 16.9342C38.6719 16.7374 39.1483 16.5733 39.6247 16.4182C39.7467 16.3824 39.8658 16.3436 39.9849 16.3078C40.104 16.269 40.229 16.2422 40.3481 16.2064C40.5893 16.1378 40.8364 16.0811 41.0806 16.0185C41.2026 15.9857 41.3277 15.9648 41.4497 15.9379C41.5748 15.9111 41.6969 15.8842 41.8219 15.8604C41.947 15.8365 42.072 15.8156 42.1941 15.7918L42.3816 15.7589L42.5692 15.7291C42.6943 15.7112 42.8193 15.6903 42.9443 15.6724C43.0843 15.6486 43.2272 15.6366 43.3671 15.6158C43.4832 15.6009 43.6708 15.58 43.7869 15.5651C43.8762 15.5561 43.9626 15.5472 44.0519 15.5382L44.2276 15.5203L44.3169 15.5114L44.4211 15.5054C44.564 15.4964 44.7039 15.4875 44.8468 15.4786L45.0582 15.4636C45.0582 15.4636 45.1356 15.4607 45.0672 15.4607L45.1118 15.4577L45.2011 15.4547C45.3232 15.4487 45.4423 15.4428 45.5644 15.4368C46.0467 15.4219 46.526 15.4219 46.9994 15.4368C47.9492 15.4756 48.8811 15.58 49.7862 15.747C51.5994 16.0841 53.3053 16.6687 54.8476 17.4324C56.3928 18.1901 57.7772 19.1207 58.9801 20.132C59.0545 20.1946 59.1289 20.2602 59.2034 20.3229C59.2778 20.3885 59.3493 20.4511 59.4207 20.5168C59.5666 20.645 59.7065 20.7793 59.8465 20.9075C59.9864 21.0388 60.1204 21.173 60.2573 21.3043C60.3883 21.4385 60.5223 21.5697 60.6503 21.707C61.1595 22.2469 61.6328 22.7957 62.0586 23.3476C62.9131 24.4483 63.5949 25.558 64.1397 26.608C64.1755 26.6736 64.2082 26.7392 64.241 26.8048C64.2737 26.8705 64.3065 26.9361 64.3362 27.0017C64.3988 27.13 64.4643 27.2582 64.5208 27.3865C64.5804 27.5148 64.6399 27.6401 64.6965 27.7653C64.7501 27.8906 64.8037 28.0159 64.8573 28.1352C65.0597 28.6274 65.2443 29.0928 65.3962 29.5372C65.6462 30.2501 65.8279 30.8945 65.9708 31.4523C66.0273 31.676 66.2387 31.8251 66.468 31.8043C66.7062 31.7834 66.8878 31.5865 66.8937 31.3479C66.9056 30.7483 66.8908 30.0413 66.8223 29.2359C66.733 28.2396 66.5633 27.0852 66.2268 25.8175C65.8963 24.5497 65.4051 23.1626 64.6905 21.7219C63.973 20.2841 63.0381 18.7866 61.8234 17.3399C61.35 16.7732 60.832 16.2124 60.2722 15.6665C61.1059 12.3435 59.257 9.46193 59.257 9.46193C56.0653 9.26207 54.0348 10.4553 53.2815 11.0011C53.1565 10.9474 53.0285 10.8937 52.9004 10.8401C52.3556 10.6193 51.7988 10.4135 51.2242 10.2315C50.6496 10.0496 50.0631 9.88253 49.4646 9.74233C48.8632 9.60213 48.2529 9.48281 47.6306 9.38736C47.5205 9.37244 47.4133 9.35753 47.3031 9.33963C45.9157 4.8831 41.9172 3.01875 41.9172 3.01875C37.4572 5.83764 36.6087 9.80199 36.6087 9.80199Z" fill="white"/>
</mask>
<g mask="url(#mask9_745_1755)">
<path d="M66.9027 3.00682H12.2871V62.4362H66.9027V3.00682Z" fill="url(#paint0_linear_745_1755)"/>
</g>
</g>
</g>
<defs>
<linearGradient id="paint0_linear_745_1755" x1="39.5885" y1="75.8026" x2="39.5885" y2="21.5078" gradientUnits="userSpaceOnUse">
<stop stop-color="#FFF200"/>
<stop offset="1" stop-color="#F15A29"/>
</linearGradient>
<clipPath id="clip0_745_1755">
<rect width="80" height="84" fill="white"/>
</clipPath>
</defs>
</svg>
