<svg width="134" height="70" viewBox="0 0 134 70" fill="none" xmlns="http://www.w3.org/2000/svg">
<path d="M68.9992 7.05933C58.3847 7.05933 49.7793 15.6636 49.7793 26.2793C49.7793 36.8949 58.3847 45.4992 68.9992 45.4992C79.6137 45.4992 88.2192 36.8938 88.2192 26.2793C88.2192 15.6648 79.6137 7.05933 68.9992 7.05933ZM68.9992 43.0313C65.9793 43.0313 63.531 41.0142 63.531 38.5256H74.4675C74.4675 41.0131 72.018 43.0313 68.9992 43.0313ZM78.0313 37.0341H59.9648V33.7566H78.0198V37.0341H78.0313ZM77.9669 32.0718H60.0177L59.8395 31.8648C57.9903 29.6189 57.5544 28.447 57.1324 27.2533C57.1255 27.2142 59.3749 27.7133 60.9699 28.0721C61.6405 28.2225 62.3142 28.3586 62.9905 28.4804C61.8382 27.1303 61.1539 25.4133 61.1539 23.6584C61.1539 19.8059 64.1094 16.4387 63.0422 13.7178C64.0795 13.8018 65.1893 15.9074 65.264 19.1999C66.368 17.6761 66.828 14.892 66.828 13.1854C66.828 11.4178 67.993 9.36508 69.1568 9.29493C68.1183 11.0061 69.4259 12.4735 70.5874 16.1121C71.0244 17.4806 70.9669 19.7806 71.3038 21.2377C71.4154 18.2074 71.9363 13.7857 73.8591 12.2608C73.0116 14.1813 73.9856 16.5882 74.6503 17.744C75.7244 19.6093 76.3753 21.0215 76.3753 23.6964C76.3753 25.4904 75.7141 27.1763 74.5974 28.4953C75.867 28.2573 76.7433 28.0422 76.7433 28.0422L80.8649 27.2372C80.8649 27.2372 80.2669 29.6982 77.9646 32.0718H77.9669Z" fill="#DA4E31"/>
<path d="M16.4355 49.5196C17.3302 49.3701 18.5021 49.2436 19.9925 49.2436C21.8244 49.2436 23.1665 49.6691 24.0175 50.4362C24.7845 51.1181 25.2744 52.1612 25.2744 53.44C25.2744 54.7395 24.8915 55.763 24.167 56.507C23.1665 57.5512 21.591 58.0826 19.7786 58.0826C19.2243 58.0826 18.7137 58.0595 18.287 57.9675V63.7175H16.447L16.4355 49.5196ZM18.2755 56.4426C18.6803 56.5496 19.1921 56.5921 19.8096 56.5921C22.0464 56.5921 23.4091 55.4847 23.4091 53.5446C23.4091 51.6276 22.0464 50.7122 20.0224 50.7122C19.2128 50.7122 18.5964 50.7766 18.2744 50.8617L18.2755 56.4426ZM27.3525 56.6129L27.2674 53.3963H28.9073L28.9924 55.441H29.0568C29.526 54.0564 30.676 53.1824 31.9318 53.1824C32.1238 53.1824 32.2722 53.2054 32.4435 53.2249V54.9925C32.2515 54.9499 32.0606 54.9499 31.8041 54.9499C30.4839 54.9499 29.5467 55.9297 29.2902 57.3362C29.246 57.6254 29.2245 57.9176 29.2258 58.2102V63.7072H27.3513V56.614L27.3525 56.6129ZM43.4456 58.4528C43.4456 62.2662 40.7833 63.9268 38.312 63.9268C35.5428 63.9268 33.3704 61.8821 33.3704 58.623C33.3704 55.1937 35.6497 53.1698 38.4833 53.1698C41.4446 53.1698 43.4456 55.3202 43.4456 58.4528ZM35.2875 58.5598C35.2875 60.8184 36.5525 62.5216 38.3971 62.5216C40.1865 62.5216 41.5285 60.8391 41.5285 58.5172C41.5285 56.7692 40.6545 54.5762 38.4396 54.5762C36.2454 54.5762 35.2886 56.6209 35.2886 58.5598H35.2875ZM45.8123 56.1724L45.7272 53.3825H47.3671L47.4522 55.0649H47.5166C48.0916 54.0851 49.0507 53.1674 50.7757 53.1674C52.1603 53.1674 53.2252 54.0184 53.6737 55.234H53.7162C54.003 54.7056 54.4032 54.2473 54.8881 53.8919C55.5056 53.4239 56.1531 53.1674 57.1455 53.1674C58.5301 53.1674 60.5541 54.0621 60.5541 57.6524V63.7014H58.7222V57.887C58.7222 55.886 57.9747 54.713 56.4855 54.713C55.3987 54.713 54.5879 55.5008 54.2487 56.3955C54.1527 56.6988 54.1023 57.0146 54.0992 57.3327V63.7014H52.2661V57.5259C52.2661 55.886 51.5416 54.7142 50.1156 54.7142C48.9656 54.7142 48.0916 55.6515 47.7926 56.5887C47.6856 56.844 47.6431 57.1867 47.6431 57.5052V63.7152H45.8111V56.1942L45.8123 56.1724ZM64.6228 58.8806C64.6654 61.4152 66.2627 62.4594 68.1591 62.4594C69.5011 62.4594 70.3441 62.2248 71.0134 61.927L71.3538 63.269C70.6937 63.568 69.5437 63.9291 67.9038 63.9291C64.7298 63.9291 62.8346 61.82 62.8346 58.7104C62.8346 55.6008 64.6665 53.172 67.6703 53.172C71.0571 53.172 71.9311 56.1114 71.9311 58.0078C71.937 58.3005 71.9155 58.5931 71.8667 58.8818L64.6228 58.8806ZM70.1198 57.5386C70.1428 56.3656 69.6299 54.5141 67.5208 54.5141C65.6038 54.5141 64.7953 56.2391 64.6458 57.5386H70.1198ZM76.5081 50.9146V53.3871H79.1922V54.8131H76.5081V60.3734C76.5081 61.6384 76.8703 62.3743 77.9145 62.3743C78.4263 62.3743 78.7241 62.3318 79.0013 62.2593L79.0864 63.6853C78.7242 63.8003 78.1491 63.9406 77.4246 63.9406C76.5506 63.9406 75.8491 63.6417 75.4006 63.1529C74.8889 62.5779 74.6761 61.6613 74.6761 60.4469V54.8119H73.0811V53.386H74.6911V51.4815L76.5081 50.9146ZM81.3036 48.5605H83.1781V55.0155H83.2206C83.5371 54.454 84.0012 53.9899 84.5627 53.6734C85.1459 53.3379 85.8069 53.1614 86.4798 53.1617C87.8643 53.1617 90.0792 54.0127 90.0792 57.5501V63.6842H88.2048V57.772C88.2048 56.1103 87.5872 54.7245 85.8185 54.7245C84.6041 54.7245 83.668 55.5756 83.3046 56.5646C83.1988 56.8406 83.1896 57.1188 83.1896 57.4592V63.6692H81.3151V48.572L81.3036 48.5605ZM94.1698 58.8691C94.2123 61.4037 95.8097 62.4479 97.7061 62.4479C99.0481 62.4479 99.891 62.2133 100.56 61.9155L100.901 63.2575C100.241 63.5565 99.0907 63.9176 97.4508 63.9176C94.2767 63.9176 92.3907 61.8085 92.3907 58.6989C92.3907 55.5893 94.2227 53.1605 97.2265 53.1605C100.613 53.1605 101.487 56.0999 101.487 57.9963C101.494 58.289 101.472 58.5817 101.423 58.8703L94.1698 58.8691ZM99.6668 57.5271C99.6898 56.3541 99.1769 54.5026 97.0678 54.5026C95.1507 54.5026 94.3423 56.2276 94.1928 57.5271H99.6668ZM112.425 60.8736L112.51 63.7072H110.847L110.74 62.0247H110.686C110.217 62.855 109.111 63.9418 107.277 63.9418C105.658 63.9418 103.721 63.0252 103.721 59.4257V53.3974H105.595V59.0842C105.595 61.0438 106.213 62.3847 107.895 62.3847C109.152 62.3847 110.025 61.5107 110.368 60.6597C110.485 60.3537 110.543 60.0282 110.538 59.7006V53.3951H112.412L112.425 60.8736ZM115.28 61.8097C115.855 62.1501 116.835 62.5342 117.772 62.5342C119.114 62.5342 119.753 61.8741 119.753 61.0001C119.753 60.1054 119.22 59.6373 117.855 59.1256C115.981 58.4436 115.095 57.4431 115.095 56.2069C115.095 54.5451 116.458 53.1824 118.652 53.1824C119.696 53.1824 120.612 53.4584 121.166 53.8218L120.706 55.1845C120.301 54.9292 119.556 54.567 118.597 54.567C117.489 54.567 116.893 55.2064 116.893 55.9735C116.893 56.8245 117.488 57.2085 118.83 57.741C120.598 58.4011 121.535 59.2958 121.535 60.8299C121.535 62.6618 120.109 63.9395 117.701 63.9395C116.572 63.9395 115.516 63.6405 114.803 63.215L115.28 61.8097Z" fill="#E6522C"/>
</svg>
