<svg width="72" height="72" viewBox="0 0 72 72" fill="none" xmlns="http://www.w3.org/2000/svg">
<g clip-path="url(#clip0_745_1832)">
<path fill-rule="evenodd" clip-rule="evenodd" d="M71.6955 54.816C71.4741 54.6136 71.2131 54.4594 70.929 54.363C70.6012 54.249 70.2615 54.1725 69.9165 54.135C69.5755 54.0938 69.2325 54.0723 68.889 54.0705C67.503 54.061 66.1556 54.5269 65.0715 55.3905V55.179C65.0732 55.0325 65.0445 54.8873 64.9872 54.7525C64.9299 54.6177 64.8452 54.4963 64.7385 54.396C64.6342 54.2909 64.5098 54.2079 64.3727 54.1519C64.2356 54.096 64.0886 54.0683 63.9405 54.0705C63.7905 54.0675 63.6415 54.0947 63.5023 54.1506C63.3631 54.2066 63.2367 54.29 63.1305 54.396C63.0239 54.4964 62.9392 54.6178 62.8819 54.7526C62.8246 54.8874 62.7958 55.0326 62.7975 55.179V64.893C62.7975 65.1975 62.9085 65.4585 63.129 65.6745C63.2352 65.7805 63.3616 65.8639 63.5008 65.9199C63.64 65.9758 63.789 66.003 63.939 66C64.0873 66.0024 64.2346 65.9748 64.372 65.9189C64.5094 65.8629 64.634 65.7798 64.7385 65.6745C64.8451 65.5744 64.9297 65.4532 64.987 65.3187C65.0444 65.1842 65.0731 65.0392 65.0715 64.893V60.036C65.0715 59.517 65.1705 59.031 65.37 58.5765C65.7614 57.675 66.4897 56.9622 67.3995 56.5905C67.863 56.3955 68.3595 56.2965 68.889 56.2965C69.426 56.2965 69.9225 56.3865 70.3785 56.5635C70.56 56.6415 70.7205 56.6805 70.8585 56.6805C71.0112 56.6819 71.1627 56.6529 71.304 56.595C71.4391 56.5403 71.5616 56.4587 71.664 56.355C71.7654 56.2512 71.8477 56.1304 71.907 55.998C71.9693 55.8615 72.001 55.713 72 55.563C72.0052 55.424 71.9807 55.2855 71.9282 55.1567C71.8757 55.0279 71.7964 54.9118 71.6955 54.816ZM52.05 58.9275C52.1655 58.5375 52.344 58.1805 52.5825 57.8565C52.8225 57.534 53.1045 57.2565 53.4315 57.0255C53.7585 56.796 54.117 56.616 54.5085 56.4885C55.2911 56.2324 56.1349 56.2324 56.9175 56.4885C57.6822 56.7353 58.3511 57.2139 58.8315 57.858C59.0745 58.1805 59.2575 58.5375 59.3805 58.9275H52.05ZM60.0225 55.818C58.818 54.6525 57.3825 54.0705 55.716 54.0705C54.033 54.0705 52.596 54.6525 51.408 55.818C50.2185 56.982 49.623 58.3875 49.623 60.036C49.623 61.683 50.2185 63.0885 51.408 64.254C52.5975 65.418 54.033 66 55.716 66C57.246 66 58.572 65.517 59.697 64.551C59.8025 64.447 59.8857 64.3226 59.9417 64.1854C59.9976 64.0482 60.0251 63.9011 60.0225 63.753C60.027 63.6055 60.0008 63.4586 59.9455 63.3218C59.8903 63.1849 59.8072 63.061 59.7015 62.958C59.5945 62.854 59.4676 62.7726 59.3284 62.7187C59.1893 62.6649 59.0407 62.6396 58.8915 62.6445C58.6172 62.6491 58.3527 62.747 58.1415 62.922C57.8123 63.1991 57.4365 63.4155 57.0315 63.561C56.6085 63.7069 56.1635 63.779 55.716 63.774C54.8985 63.7735 54.1016 63.5181 53.436 63.0435C53.1136 62.813 52.8296 62.5331 52.5945 62.214C52.3541 61.8902 52.17 61.5281 52.05 61.143H60.6645C60.9825 61.143 61.2525 61.038 61.4745 60.828C61.5827 60.727 61.6682 60.6041 61.7253 60.4676C61.7824 60.3311 61.81 60.184 61.806 60.036C61.806 59.211 61.656 58.446 61.3605 57.741C61.0497 57.0158 60.5945 56.3615 60.0225 55.818ZM48.5955 55.179C48.5955 55.029 48.5655 54.888 48.5025 54.753C48.4395 54.618 48.36 54.498 48.258 54.396C48.1532 54.2894 48.0276 54.2056 47.8891 54.1496C47.7505 54.0936 47.6019 54.0667 47.4525 54.0705C47.2373 54.0683 47.026 54.1276 46.8435 54.2415L40.3395 58.3845V50.076C40.3422 49.928 40.3141 49.7811 40.257 49.6445C40.2 49.5079 40.1152 49.3846 40.008 49.2825C39.9034 49.1775 39.7786 49.0947 39.6413 49.0391C39.5039 48.9834 39.3567 48.956 39.2085 48.9585C39.0586 48.9552 38.9096 48.9822 38.7704 49.0378C38.6312 49.0935 38.5047 49.1767 38.3985 49.2825C38.2909 49.3847 38.2057 49.5081 38.1484 49.645C38.091 49.7818 38.0628 49.9291 38.0655 50.0775V64.8825C38.0655 65.187 38.1765 65.4495 38.3985 65.67C38.619 65.8905 38.889 66 39.2085 66C39.3572 66.0023 39.5048 65.9743 39.6423 65.9175C39.7798 65.8608 39.9042 65.7766 40.008 65.67C40.1145 65.5683 40.1988 65.4457 40.2559 65.31C40.3129 65.1743 40.3414 65.0282 40.3395 64.881V61.0365L41.667 60.1845L46.692 65.712C46.8973 65.905 47.1709 66.0085 47.4525 66C47.6052 66.0011 47.7566 65.9721 47.898 65.9145C48.0331 65.8599 48.1556 65.7782 48.258 65.6745C48.36 65.5725 48.441 65.4525 48.5025 65.319C48.564 65.1855 48.5955 65.0415 48.5955 64.893C48.5959 64.6024 48.4829 64.3231 48.2805 64.1145L43.602 58.9605L48.1605 56.0625C48.45 55.8705 48.5955 55.578 48.5955 55.179ZM29.913 57.3885C30.261 57.051 30.666 56.7855 31.131 56.5905C31.596 56.3955 32.091 56.2965 32.622 56.2965C33.1005 56.2965 33.5415 56.376 33.948 56.5305C34.353 56.688 34.743 56.919 35.112 57.2235C35.3295 57.3945 35.577 57.4785 35.8515 57.4785C36 57.4828 36.1479 57.4569 36.2862 57.4024C36.4244 57.348 36.5502 57.266 36.6559 57.1616C36.7616 57.0571 36.8451 56.9323 36.9012 56.7947C36.9573 56.6571 36.985 56.5096 36.9825 56.361C36.9843 56.2004 36.9501 56.0414 36.8823 55.8958C36.8146 55.7501 36.715 55.6216 36.591 55.5195C35.4735 54.5535 34.152 54.0705 32.622 54.0705C30.939 54.0705 29.502 54.6525 28.314 55.818C27.1245 56.982 26.529 58.3875 26.529 60.036C26.529 61.683 27.1245 63.0885 28.314 64.254C29.502 65.418 30.939 66 32.622 66C34.143 66 35.4675 65.517 36.591 64.551C36.7045 64.4469 36.7951 64.3203 36.857 64.1793C36.919 64.0383 36.951 63.886 36.951 63.732C36.9555 63.5845 36.9293 63.4376 36.874 63.3008C36.8188 63.1639 36.7357 63.04 36.63 62.937C36.5231 62.8328 36.3962 62.7512 36.2571 62.6971C36.1179 62.6429 35.9692 62.6174 35.82 62.622C35.5613 62.6234 35.3095 62.7058 35.1 62.8575C34.758 63.1506 34.3684 63.3829 33.948 63.5445C33.5235 63.7005 33.0742 63.7782 32.622 63.774C32.091 63.774 31.5945 63.6765 31.131 63.4815C30.666 63.2865 30.261 63.0195 29.913 62.682C29.5636 62.3439 29.2843 61.9402 29.091 61.494C28.8907 61.0342 28.789 60.5375 28.7925 60.036C28.7925 59.517 28.8915 59.031 29.0925 58.5765C29.2905 58.122 29.565 57.726 29.913 57.3885ZM22.8855 61.479C22.585 62.1618 22.0922 62.7424 21.4674 63.1499C20.8425 63.5575 20.1125 63.7743 19.3665 63.774C18.354 63.7777 17.3809 63.3815 16.659 62.6715C16.3151 62.3309 16.0397 61.9277 15.8475 61.4835C15.6474 61.0273 15.5452 60.5342 15.5475 60.036C15.5475 59.5245 15.648 59.0415 15.8475 58.587C16.0397 58.1432 16.3145 57.74 16.6575 57.399C16.998 57.063 17.4015 56.7945 17.865 56.595C18.3394 56.3943 18.8499 56.2928 19.365 56.2965C19.896 56.2965 20.3925 56.397 20.856 56.595C21.7632 56.9769 22.4895 57.6919 22.8855 58.593C23.0835 59.043 23.184 59.523 23.184 60.036C23.184 60.546 23.0835 61.0275 22.884 61.479H22.8855ZM23.673 55.818C22.47 54.6525 21.033 54.0705 19.3665 54.0705C17.6835 54.0705 16.2465 54.6525 15.0585 55.818C13.869 56.982 13.275 58.3875 13.275 60.036C13.275 61.683 13.869 63.0885 15.06 64.254C16.248 65.418 17.685 66 19.365 66C21.033 66 22.47 65.418 23.673 64.254C24.8625 63.1035 25.458 61.6965 25.458 60.036C25.4581 59.2504 25.3048 58.4723 25.0065 57.7455C24.6967 57.0195 24.2431 56.3639 23.673 55.818ZM9.6075 61.479C9.30757 62.1619 8.81516 62.7427 8.19048 63.1503C7.56579 63.5578 6.83589 63.7746 6.09 63.774C5.07725 63.7788 4.10379 63.3824 3.3825 62.6715C3.03867 62.3309 2.76321 61.9277 2.571 61.4835C2.37085 61.0273 2.26865 60.5342 2.271 60.036C2.271 59.5245 2.3715 59.0415 2.571 58.587C2.76315 58.1432 3.03805 57.74 3.381 57.399C3.7215 57.063 4.1235 56.7945 4.5885 56.595C5.0535 56.397 5.553 56.2965 6.0885 56.2965C6.6195 56.2965 7.116 56.397 7.5795 56.595C8.48635 56.9768 9.21221 57.6919 9.6075 58.593C9.807 59.043 9.9075 59.523 9.9075 60.036C9.9075 60.546 9.807 61.0275 9.6075 61.479ZM11.0385 48.9585C10.8892 48.9539 10.7406 48.9794 10.6014 49.0336C10.4623 49.0877 10.3354 49.1693 10.2285 49.2735C10.1231 49.3761 10.0402 49.4995 9.98495 49.6358C9.9297 49.7722 9.90333 49.9185 9.9075 50.0655V55.38C8.805 54.507 7.533 54.0705 6.09 54.0705C4.407 54.0705 2.97 54.6525 1.782 55.818C0.594 56.982 0 58.3875 0 60.036C0 61.683 0.594 63.0885 1.7835 64.254C2.973 65.418 4.4085 66 6.0915 66C7.758 66 9.195 65.418 10.398 64.254C11.5875 63.1035 12.183 61.6965 12.183 60.036V50.0655C12.187 49.9172 12.1593 49.7697 12.1019 49.6329C12.0445 49.4961 11.9586 49.3731 11.85 49.272C11.7423 49.1689 11.6153 49.088 11.4763 49.0339C11.3373 48.9799 11.1891 48.9537 11.04 48.957L11.0385 48.9585ZM42.6045 24.3555H48.174V19.398H42.6045V24.3555ZM36.0225 24.3555H41.592V19.398H36.0225V24.3555ZM29.442 24.3555H35.01V19.398H29.445L29.442 24.3555ZM22.86 24.3555H28.4295V19.398H22.86V24.3555ZM16.278 24.3555H21.8475V19.398H16.278V24.3555ZM22.86 18.4065H28.4295V13.449H22.86V18.4065ZM29.442 18.4065H35.01V13.449H29.445L29.442 18.4065ZM36.0225 18.4065H41.592V13.449H36.0225V18.4065ZM36.0225 12.4575H41.592V7.5H36.0225V12.4575ZM66.036 22.2L64.911 21.465C63.696 20.6685 60.9015 20.376 58.7505 20.775C58.473 18.7905 57.3435 17.07 55.29 15.516L54.1095 14.745L53.322 15.9015C52.314 17.391 51.81 19.455 51.975 21.4335C52.05 22.1295 52.2825 23.3745 53.0145 24.468C52.284 24.8535 50.8395 25.383 48.9345 25.347H12.309L12.237 25.761C11.892 27.7485 11.8995 33.954 16.014 38.724C19.1415 42.348 23.829 44.187 29.949 44.187C43.215 44.187 53.0295 38.2065 57.6255 27.3375C59.433 27.372 63.3255 27.348 65.3235 23.607C65.5074 23.2729 65.681 22.9333 65.844 22.5885L66.036 22.2Z" fill="#066DA5"/>
<path d="M66.9878 65.484H67.0403C67.1003 65.484 67.1498 65.4645 67.1498 65.4165C67.1498 65.373 67.1183 65.3445 67.0478 65.3445C67.0276 65.3441 67.0075 65.3461 66.9878 65.3505V65.484ZM66.9848 65.7465H66.8753V65.283C66.9352 65.2724 66.9959 65.2674 67.0568 65.268C67.1139 65.2635 67.1712 65.2755 67.2218 65.3025C67.2473 65.322 67.2668 65.3595 67.2668 65.4045C67.2668 65.4555 67.2278 65.4945 67.1693 65.5125V65.517C67.2143 65.535 67.2413 65.568 67.2563 65.631C67.2713 65.7015 67.2788 65.7285 67.2908 65.7465H67.1723C67.1573 65.7285 67.1498 65.6865 67.1348 65.6325C67.1258 65.583 67.0973 65.559 67.0373 65.559H66.9848V65.7465ZM66.6938 65.5035C66.6938 65.709 66.8498 65.8725 67.0628 65.8725C67.2713 65.8725 67.4228 65.709 67.4228 65.5065C67.4228 65.2995 67.2713 65.133 67.0598 65.133C66.8483 65.133 66.6938 65.2995 66.6938 65.5035ZM67.5443 65.5035C67.5443 65.766 67.3343 65.9715 67.0598 65.9715C66.9969 65.9731 66.9344 65.9622 66.8758 65.9395C66.8173 65.9168 66.7637 65.8827 66.7184 65.8392C66.6731 65.7957 66.6368 65.7436 66.6117 65.686C66.5867 65.6284 66.5732 65.5663 66.5723 65.5035C66.5723 65.247 66.7883 65.04 67.0598 65.04C67.3343 65.04 67.5443 65.247 67.5443 65.5035Z" fill="#066DA5"/>
</g>
<defs>
<clipPath id="clip0_745_1832">
<rect width="72" height="72" fill="white"/>
</clipPath>
</defs>
</svg>
