<svg width="59" height="58" viewBox="0 0 59 58" fill="none" xmlns="http://www.w3.org/2000/svg">
<path d="M54.875 32.3531C54.875 39.73 51.7213 46.4 46.6825 51.0219H40.5925C40.7194 50.4419 40.4113 50.025 39.9944 49.7531C39.5654 49.4748 39.2205 49.0846 38.9969 48.6246C38.7733 48.1647 38.6795 47.6525 38.7256 47.1431C39.07 44.4244 40.7194 40.9806 46.6825 37.8269C50.7244 35.6519 51.4675 31.2113 51.7575 30.5769C52.1563 29.4894 52.0475 28.5831 51.1956 27.695C49.703 26.0641 47.9208 24.7244 45.9394 23.7438C44.5897 23.1154 43.1241 22.7748 41.6356 22.7436C40.1472 22.7124 38.6686 22.9913 37.2938 23.5625C36.7863 23.7438 36.895 23.3631 36.8588 23.2C36.4721 21.3 35.8064 19.4676 34.8831 17.7625C33.0163 14.355 30.3881 11.8719 26.4731 11.02C25.8931 10.8931 25.295 10.8569 24.6969 10.7844C24.425 10.7481 24.28 10.8206 24.3344 11.1469C24.7371 13.6629 25.7173 16.0514 27.1981 18.125C27.9231 19.0675 28.92 19.7019 29.8806 20.3544C30.9138 21.0794 31.9831 21.7138 32.9619 22.5294C33.8681 23.3088 34.6113 24.215 34.9556 25.52L34.7381 25.3025C31.7656 20.5719 25.9294 18.4694 20.0569 20.1913C19.5131 20.3363 19.6038 20.5175 19.8756 20.9163C21.5709 23.4456 23.9027 25.4837 26.6363 26.825C28.6523 27.938 30.8489 28.6866 33.125 29.0363C34.1581 29.1631 33.6688 29.87 33.8319 30.7219C34.0494 32.0088 34.5931 32.4256 34.4119 32.3169C31.5916 31.0986 28.5653 30.4282 25.4944 30.3413C15.4169 30.3413 13.7675 39.9475 13.84 40.0563C13.695 40.0019 11.2844 39.1138 10.7406 41.5425C10.1788 43.9894 13.4594 45.6025 13.4594 45.6025C13.5862 44.7272 13.9768 43.9113 14.5791 43.2637C15.1814 42.616 15.9668 42.1674 16.8306 41.9775C16.5588 42.1225 14.8731 43.1194 14.3475 45.82C13.8944 48.1944 15.7975 50.315 16.4863 51.04H12.3175C9.21392 48.184 6.87117 44.5995 5.50111 40.6106C4.13104 36.6216 3.77688 32.3541 4.47064 28.1939C5.1644 24.0336 6.8842 20.112 9.47453 16.7835C12.0649 13.4549 15.444 10.8246 19.3064 9.13029C23.1688 7.43597 27.3926 6.73112 31.5958 7.07947C35.7991 7.42783 39.8492 8.81841 43.38 11.1254C46.9108 13.4325 49.8108 16.5832 51.8178 20.2928C53.8248 24.0023 54.8756 28.1536 54.875 32.3713V32.3531ZM36.4419 51.0219H33.7594C33.8913 50.8809 33.9795 50.7046 34.0131 50.5144C34.2488 49.2094 33.1069 48.9556 33.1069 48.9556H26.9444C26.9444 48.9556 29.3913 48.8288 31.6569 47.9044C33.3039 47.1966 34.7854 46.1534 36.0069 44.8413C35.6177 45.7176 35.4076 46.6629 35.389 47.6215C35.3703 48.5802 35.5434 49.5329 35.8981 50.4238C35.9888 50.6775 36.1881 50.895 36.4419 51.04V51.0219Z" fill="#FF4702"/>
</svg>
