<svg width="117" height="18" viewBox="0 0 117 18" fill="none" xmlns="http://www.w3.org/2000/svg">
<g clip-path="url(#clip0_745_1811)">
<path d="M29.118 0.5C32.9542 0.5 36.0641 3.5203 36.0641 7.24603C36.0641 10.9718 32.9542 13.9921 29.118 13.9921C25.2818 13.9921 22.1719 10.9718 22.1719 7.24603C22.1719 5.71095 22.7111 4.2218 23.7003 3.02449C24.1028 3.47388 24.2484 3.73998 24.6725 4.4127H24.9156C24.7008 3.89755 24.385 3.39641 23.9595 2.72883C25.2766 1.3101 27.1511 0.500146 29.118 0.5ZM29.118 3.46825C26.9697 3.46825 25.2282 5.15962 25.2282 7.24603C25.2282 9.33244 26.9697 11.0238 29.118 11.0238C31.2663 11.0238 33.0078 9.33244 33.0078 7.24603C33.0078 5.15962 31.2663 3.46825 29.118 3.46825Z" fill="#13BF95"/>
<path d="M18.282 0.5C14.4458 0.5 11.3359 3.52031 11.3359 7.24603C11.3365 8.78022 11.8755 10.2684 12.8641 11.4651C12.867 11.4616 12.8689 11.4588 12.8718 11.4553C12.8727 11.4564 12.8735 11.4574 12.8744 11.4585C12.9411 11.3771 13.0052 11.2937 13.068 11.2093C13.3595 10.8386 13.5612 10.5277 13.7576 10.0572C13.7752 10.0197 13.7931 9.98234 13.8101 9.94444H14.0449C13.9946 10.146 13.924 10.3436 13.8369 10.5438C13.6428 10.9482 13.4014 11.3789 13.1562 11.7655C13.1522 11.7717 13.1492 11.7772 13.1452 11.7834C14.4609 13.1892 16.3259 13.9912 18.282 13.9921C20.2382 13.9912 22.1032 13.1892 23.4189 11.7834C23.4149 11.7772 23.4119 11.7717 23.4079 11.7655C23.1626 11.3789 22.9213 10.9482 22.7271 10.5438C22.6401 10.3436 22.5695 10.146 22.5192 9.94444H22.754C22.771 9.98234 22.7889 10.0197 22.8065 10.0572C23.0029 10.5277 23.2046 10.8386 23.4961 11.2093C23.5589 11.2937 23.623 11.3771 23.6897 11.4585C23.6906 11.4574 23.6914 11.4564 23.6923 11.4553C23.6951 11.4588 23.6971 11.4616 23.7 11.4651C24.6885 10.2684 25.2276 8.78022 25.2282 7.24603C25.2282 3.52031 22.1183 0.5 18.282 0.5ZM18.282 3.46825C20.4303 3.46825 22.1719 5.15962 22.1719 7.24603C22.1719 9.33244 20.4303 11.0238 18.282 11.0238C16.1338 11.0238 14.3922 9.33244 14.3922 7.24603C14.3922 7.18083 14.3939 7.11608 14.3972 7.05169C14.5014 5.05563 16.2009 3.46825 18.282 3.46825Z" fill="#13BF95"/>
<path d="M7.44611 0.5C3.60988 0.5 0.5 3.5203 0.5 7.24603C0.5 10.9718 3.60988 13.9921 7.44611 13.9921C11.2823 13.9921 14.3922 10.9718 14.3922 7.24603C14.3921 5.71095 13.853 4.2218 12.8638 3.02449C12.4613 3.47388 12.3157 3.73998 11.8916 4.4127H11.6485C11.8633 3.89755 12.1791 3.39641 12.6045 2.72883C11.2875 1.3101 9.41295 0.500146 7.44611 0.5ZM7.44611 3.46825C9.5944 3.46825 11.3359 5.15962 11.3359 7.24603C11.3359 9.33244 9.5944 11.0238 7.44611 11.0238C5.29782 11.0238 3.55629 9.33244 3.55629 7.24603C3.55629 5.15962 5.29782 3.46825 7.44611 3.46825Z" fill="#13BF95"/>
<path d="M46.3127 13.6194C45.5987 13.6194 44.9393 13.5312 44.3342 13.3549C43.7292 13.1668 43.1847 12.8964 42.7008 12.5437C42.2168 12.1792 41.7873 11.7325 41.4121 11.2035L42.8459 9.61634C43.4388 10.4276 44.0136 10.9919 44.5703 11.3093C45.1269 11.615 45.7742 11.7678 46.5124 11.7678C46.9481 11.7678 47.3413 11.7032 47.6922 11.5738C48.0431 11.4445 48.3214 11.2623 48.527 11.0272C48.7328 10.792 48.8356 10.5275 48.8356 10.2336C48.8356 10.0219 48.7993 9.82796 48.7267 9.65161C48.6541 9.46351 48.5392 9.29892 48.3818 9.15784C48.2245 9.01676 48.0309 8.88744 47.801 8.76988C47.5711 8.64055 47.3049 8.52887 47.0024 8.43482C46.6999 8.34077 46.3551 8.26435 45.9678 8.20556C45.3144 8.06448 44.7397 7.88814 44.2435 7.67653C43.7596 7.46491 43.3482 7.20038 43.0093 6.88293C42.6826 6.5655 42.4406 6.20104 42.2834 5.78954C42.1261 5.37806 42.0474 4.91956 42.0474 4.41403C42.0474 3.90853 42.1624 3.44416 42.3923 3.02091C42.6222 2.58593 42.9368 2.20972 43.3361 1.89231C43.7354 1.57488 44.2073 1.33387 44.7518 1.16927C45.2963 0.992927 45.8771 0.904755 46.4942 0.904755C47.1839 0.904755 47.8011 0.987049 48.3456 1.15164C48.9022 1.31623 49.3922 1.56311 49.8158 1.89228C50.2393 2.20971 50.5962 2.60354 50.8867 3.07377L49.4165 4.46689C49.1624 4.09068 48.8841 3.77913 48.5816 3.53223C48.2912 3.27359 47.9645 3.07961 47.6015 2.95029C47.2385 2.82096 46.8573 2.7563 46.458 2.7563C46.0103 2.7563 45.6171 2.82684 45.2783 2.96792C44.9516 3.09725 44.6914 3.27947 44.4979 3.51459C44.3043 3.74972 44.2075 4.02601 44.2075 4.34347C44.2075 4.5786 44.2559 4.79609 44.3527 4.99595C44.4616 5.18405 44.6128 5.35452 44.8064 5.50735C45.0121 5.66019 45.2783 5.79539 45.605 5.91295C45.9317 6.03052 46.3129 6.13045 46.7485 6.21275C47.414 6.35383 48.0069 6.53605 48.5273 6.75942C49.0597 6.97103 49.5074 7.22378 49.8704 7.51767C50.2455 7.81158 50.5238 8.14665 50.7053 8.52289C50.8989 8.89909 50.9957 9.30471 50.9957 9.73973C50.9957 10.5392 50.8021 11.2328 50.4149 11.8207C50.0398 12.3967 49.5013 12.8435 48.7995 13.1609C48.0977 13.4666 47.2688 13.6194 46.3128 13.6194L46.3127 13.6194Z" fill="#293331"/>
<path d="M57.1617 13.6194C56.1695 13.6194 55.2922 13.4196 54.5298 13.0198C53.7675 12.6084 53.1686 12.0499 52.7329 11.3445C52.3094 10.6273 52.0977 9.81025 52.0977 8.89325C52.0977 8.16432 52.2187 7.50006 52.4607 6.90048C52.7027 6.3009 53.0354 5.78361 53.4589 5.34863C53.8945 4.90188 54.4088 4.56094 55.0017 4.3258C55.6067 4.07892 56.2601 3.95547 56.962 3.95547C57.5911 3.95547 58.172 4.07304 58.7044 4.30817C59.2489 4.53154 59.7208 4.84896 60.1201 5.26043C60.5194 5.66015 60.8219 6.13631 61.0276 6.6889C61.2455 7.24149 61.3483 7.84107 61.3362 8.48765L61.3181 9.26364H53.5501L53.1326 7.7999H59.558L59.2858 8.09969V7.69409C59.2495 7.31788 59.1224 6.98867 58.9046 6.70647C58.6868 6.41256 58.4085 6.18331 58.0697 6.01872C57.743 5.84237 57.38 5.7542 56.9807 5.7542C56.3515 5.7542 55.8252 5.87177 55.4016 6.10689C54.9781 6.33026 54.6514 6.66534 54.4215 7.11212C54.2037 7.55886 54.0948 8.10556 54.0948 8.7522C54.0948 9.37531 54.2279 9.91611 54.4941 10.3746C54.7724 10.8331 55.1596 11.1917 55.6557 11.4503C56.1518 11.6972 56.7265 11.8207 57.38 11.8207C57.8398 11.8207 58.2633 11.7501 58.6504 11.609C59.0377 11.4562 59.4611 11.1917 59.9209 10.8154L60.9373 12.2086C60.6348 12.4907 60.2718 12.7376 59.8483 12.9492C59.4248 13.1608 58.9832 13.3254 58.5234 13.443C58.0636 13.5605 57.6098 13.6193 57.1622 13.6193L57.1617 13.6194Z" fill="#293331"/>
<path d="M62.9629 13.4433V4.1676H65.014V6.08981L64.6691 6.26616C64.778 5.96049 64.9353 5.67245 65.141 5.40206C65.3588 5.13166 65.619 4.89065 65.9214 4.67902C66.2239 4.46741 66.5506 4.30282 66.9015 4.18526C67.2524 4.0677 67.6094 4.00892 67.9724 4.00891C68.5048 4.00891 68.9707 4.09708 69.37 4.27343C69.7814 4.43802 70.1203 4.69077 70.3865 5.03168C70.6648 5.37261 70.8705 5.80762 71.0036 6.33669L70.6769 6.28379L70.8039 5.98399C70.9491 5.71359 71.1367 5.46084 71.3666 5.22574C71.6086 4.97886 71.8809 4.76724 72.1833 4.5909C72.4858 4.4028 72.8065 4.26172 73.1453 4.16767C73.4841 4.06186 73.8108 4.00896 74.1254 4.00896C74.8514 4.00896 75.4504 4.15003 75.9223 4.43219C76.3942 4.71434 76.7512 5.14345 76.9932 5.71952C77.2352 6.29559 77.3563 7.00686 77.3563 7.85335V13.4436H75.287V7.99448C75.287 7.48898 75.2204 7.07749 75.0873 6.76003C74.9542 6.44256 74.7545 6.20744 74.4883 6.05467C74.2221 5.89008 73.8773 5.80778 73.4538 5.80778C73.1392 5.80778 72.8366 5.86069 72.5462 5.96649C72.2679 6.0723 72.0259 6.21926 71.8203 6.40736C71.6146 6.59546 71.4512 6.81883 71.3302 7.07747C71.2213 7.32436 71.1669 7.60065 71.1669 7.90635V13.4436H69.0977V7.95924C69.0977 7.50074 69.0251 7.11278 68.8799 6.79536C68.7468 6.46617 68.5472 6.21929 68.2809 6.05471C68.0147 5.89012 67.688 5.80783 67.3008 5.80783C66.9862 5.80783 66.6898 5.86073 66.4115 5.96654C66.1332 6.07235 65.8912 6.21931 65.6856 6.40741C65.4799 6.58375 65.3165 6.80124 65.1955 7.05989C65.0866 7.30677 65.0322 7.57717 65.0322 7.87109V13.4436L62.9629 13.4433Z" fill="#293331"/>
<path d="M83.791 17.4997C83.1013 17.4997 82.4115 17.3939 81.7217 17.1823C81.032 16.9707 80.4694 16.7003 80.0338 16.3711L80.796 14.8545C81.0381 15.0308 81.3164 15.1837 81.6309 15.313C81.9576 15.4541 82.2964 15.5599 82.6474 15.6304C83.0104 15.7127 83.3734 15.7538 83.7364 15.7538C84.3898 15.7538 84.9343 15.648 85.3699 15.4364C85.8055 15.2366 86.1322 14.9309 86.35 14.5194C86.5799 14.1197 86.6948 13.6201 86.6948 13.0205V11.2922L86.9489 11.398C86.8884 11.7742 86.6888 12.1269 86.35 12.4561C86.0233 12.7853 85.6119 13.0557 85.1158 13.2673C84.6197 13.4672 84.1115 13.5671 83.5911 13.5671C82.6957 13.5671 81.891 13.3614 81.1771 12.9499C80.4753 12.5384 79.9186 11.9741 79.5072 11.2569C79.1079 10.5398 78.9082 9.71683 78.9082 8.78804C78.9082 7.85926 79.1079 7.03631 79.5072 6.31921C79.9065 5.59029 80.4571 5.02009 81.1589 4.60863C81.8607 4.1854 82.6533 3.97379 83.5367 3.97379C83.8997 3.97379 84.2506 4.02081 84.5894 4.11486C84.9282 4.19715 85.2428 4.31472 85.5332 4.46755C85.8236 4.62039 86.0777 4.79086 86.2954 4.97895C86.5253 5.16705 86.7129 5.36691 86.8581 5.57852C87.0033 5.79014 87.0941 5.99 87.1304 6.1781L86.7129 6.31917L86.731 4.16767H88.7458V12.8444C88.7458 13.585 88.6308 14.2434 88.4009 14.8195C88.1831 15.3955 87.8564 15.8834 87.4208 16.2832C86.9973 16.6829 86.477 16.9827 85.8599 17.1826C85.2549 17.3942 84.5651 17.5 83.7906 17.5L83.791 17.4997ZM83.8636 11.8038C84.4323 11.8038 84.9345 11.6744 85.3701 11.4158C85.8178 11.1571 86.1627 10.8044 86.4046 10.3577C86.6467 9.91094 86.7677 9.38776 86.7677 8.78816C86.7677 8.20031 86.6406 7.67714 86.3865 7.21864C86.1445 6.76013 85.8057 6.40156 85.3701 6.14292C84.9345 5.88427 84.4323 5.75495 83.8636 5.75495C83.307 5.75495 82.8109 5.89015 82.3753 6.16055C81.9397 6.4192 81.6008 6.77777 81.3588 7.23627C81.1168 7.69477 80.9958 8.21206 80.9958 8.78812C80.9958 9.37596 81.1168 9.89914 81.3588 10.3576C81.6008 10.8044 81.9397 11.1571 82.3753 11.4158C82.8109 11.6744 83.307 11.8038 83.8636 11.8038Z" fill="#293331"/>
<path d="M90.6465 13.4434V4.16761H92.6794L92.7157 7.0949L92.4616 6.42478C92.5947 5.96628 92.8246 5.5548 93.1513 5.19033C93.478 4.81413 93.8531 4.5202 94.2766 4.30856C94.7002 4.0852 95.1358 3.97351 95.5834 3.97351C95.7891 3.97351 95.9888 3.99115 96.1824 4.02641C96.376 4.06168 96.5273 4.10283 96.6362 4.14986L96.0917 6.31897C95.9464 6.26018 95.7831 6.21316 95.6016 6.17789C95.4201 6.13087 95.2386 6.10736 95.0571 6.10736C94.7425 6.10736 94.4399 6.16614 94.1495 6.2837C93.8712 6.40127 93.6232 6.56586 93.4054 6.77748C93.1997 6.97733 93.0303 7.21835 92.8972 7.50051C92.7762 7.77092 92.7157 8.07071 92.7157 8.39989V13.4433L90.6465 13.4434Z" fill="#293331"/>
<path d="M101.511 13.6194C100.519 13.6194 99.6418 13.4196 98.8794 13.0198C98.1171 12.6084 97.5181 12.0499 97.0825 11.3445C96.659 10.6273 96.4473 9.81025 96.4473 8.89325C96.4473 8.16432 96.5683 7.50006 96.8103 6.90048C97.0523 6.3009 97.385 5.78361 97.8085 5.34863C98.2441 4.90188 98.7584 4.56094 99.3513 4.3258C99.9563 4.07892 100.61 3.95547 101.311 3.95547C101.941 3.95547 102.521 4.07304 103.054 4.30817C103.598 4.53154 104.07 4.84896 104.47 5.26043C104.869 5.66015 105.171 6.13631 105.377 6.6889C105.595 7.24149 105.698 7.84107 105.686 8.48765L105.668 9.26364H97.8996L97.4822 7.7999H103.908L103.635 8.09969V7.69409C103.599 7.31788 103.472 6.98867 103.254 6.70647C103.036 6.41256 102.758 6.18331 102.419 6.01872C102.093 5.84237 101.73 5.7542 101.33 5.7542C100.701 5.7542 100.175 5.87177 99.7512 6.10689C99.3277 6.33026 99.001 6.66534 98.7711 7.11212C98.5533 7.55886 98.4444 8.10556 98.4444 8.7522C98.4444 9.37531 98.5775 9.91611 98.8437 10.3746C99.122 10.8331 99.5092 11.1917 100.005 11.4503C100.501 11.6972 101.076 11.8207 101.73 11.8207C102.189 11.8207 102.613 11.7501 103 11.609C103.387 11.4562 103.811 11.1917 104.27 10.8154L105.287 12.2086C104.984 12.4907 104.621 12.7376 104.198 12.9492C103.774 13.1608 103.333 13.3254 102.873 13.443C102.413 13.5605 101.959 13.6193 101.512 13.6193L101.511 13.6194Z" fill="#293331"/>
<path d="M106.971 17.323V4.16762H109.004L109.022 6.28384L108.695 6.12513C108.768 5.76068 108.973 5.41974 109.312 5.1023C109.651 4.77312 110.062 4.50859 110.546 4.3087C111.042 4.10884 111.557 4.00891 112.089 4.00891C112.936 4.00891 113.686 4.21465 114.34 4.62612C115.005 5.0376 115.532 5.60192 115.919 6.3191C116.306 7.03624 116.5 7.85919 116.5 8.78793C116.5 9.71672 116.306 10.5455 115.919 11.2744C115.544 11.9915 115.024 12.5617 114.358 12.985C113.705 13.3964 112.96 13.6022 112.125 13.6022C111.569 13.6022 111.03 13.4964 110.51 13.2847C110.002 13.0731 109.566 12.7968 109.203 12.4559C108.84 12.1149 108.616 11.7564 108.532 11.3801L109.04 11.1333V17.323L106.971 17.323ZM111.744 11.8034C112.277 11.8034 112.749 11.6741 113.16 11.4155C113.584 11.1568 113.916 10.8041 114.158 10.3573C114.4 9.89884 114.521 9.37567 114.521 8.78782C114.521 8.21176 114.4 7.70035 114.158 7.25358C113.928 6.80683 113.602 6.45413 113.178 6.19547C112.767 5.93683 112.289 5.80751 111.744 5.80751C111.2 5.80751 110.716 5.93683 110.292 6.19547C109.881 6.44236 109.554 6.79506 109.312 7.25358C109.07 7.70033 108.949 8.21174 108.949 8.78782C108.949 9.37567 109.07 9.89884 109.312 10.3573C109.554 10.8041 109.881 11.1568 110.292 11.4155C110.716 11.6741 111.2 11.8034 111.744 11.8034Z" fill="#293331"/>
</g>
<defs>
<clipPath id="clip0_745_1811">
<rect width="116" height="17" fill="white" transform="translate(0.5 0.5)"/>
</clipPath>
</defs>
</svg>
