<svg width="80" height="112" viewBox="0 0 80 112" fill="none" xmlns="http://www.w3.org/2000/svg">
<path fill-rule="evenodd" clip-rule="evenodd" d="M78.7661 53.5191C78.7661 75.5236 61.41 93.362 40.0001 93.362C18.5905 93.362 1.23438 75.5236 1.23438 53.5191C1.23438 31.5141 18.5905 13.6754 40.0001 13.6754C61.41 13.6754 78.7661 31.5141 78.7661 53.5191Z" fill="#D33833"/>
<path d="M2.81385 63.387C2.81385 63.387 0.00746435 21.8374 38.1091 20.6501L35.451 16.1983L14.7759 23.1729L8.86862 29.9988L3.69993 39.9414L0.746094 51.516L1.63217 59.2322" fill="#EF3D3A"/>
<path d="M13.4482 26.3389C6.64668 33.3318 2.43781 42.9867 2.43781 53.6679C2.43781 64.3467 6.64668 74.003 13.4482 80.9945C20.2531 87.986 29.6311 92.3003 39.999 92.3003C50.3671 92.3003 59.7458 87.986 66.55 80.9945C73.3512 74.003 77.5609 64.3467 77.5609 53.6679C77.5609 42.9867 73.3512 33.3318 66.55 26.3389C59.7458 19.3488 50.3671 15.0346 39.999 15.0337C29.6311 15.0346 20.2531 19.3488 13.4482 26.3389ZM11.7266 82.6858C4.49811 75.2577 0.0292969 64.9918 0.0292969 53.6679C0.0292969 42.3421 4.49811 32.0773 11.7266 24.6486C18.9534 17.2186 28.9571 12.6133 39.999 12.6146C51.041 12.6133 61.0457 17.2186 68.2713 24.6486C75.5003 32.0773 79.9697 42.343 79.9688 53.6679C79.9697 64.9918 75.5003 75.2577 68.2713 82.6858C61.0457 90.1154 51.041 94.7202 39.999 94.7202C28.9571 94.7202 18.9534 90.1154 11.7266 82.6858Z" fill="#231F20"/>
<path fill-rule="evenodd" clip-rule="evenodd" d="M56.3183 53.7401L50.4108 54.6304L42.436 55.5208L37.2669 55.669L32.246 55.5208L28.4061 54.3335L25.0094 50.6239L22.3512 43.0559L21.7605 41.4234L18.2162 40.2366L16.1486 36.8234L14.6719 31.9265L16.2966 27.6229L20.136 26.2874L23.2373 27.7716L24.7144 31.0361L26.4865 30.7392L27.077 29.9975L26.4865 26.5843L26.3385 22.2808L27.2246 16.3453L27.19 12.9548L29.8829 8.62905L34.6087 5.21588L42.879 1.65447L52.035 2.99L60.0097 8.77729L63.702 14.7128L66.0647 19.0163L66.6553 29.7006L64.8831 38.901L61.6343 47.0624L58.5331 51.366" fill="#F0D6B7"/>
<path fill-rule="evenodd" clip-rule="evenodd" d="M51.2963 79.4114L30.1777 80.3018V83.8632L31.9499 96.3281L31.0638 97.3672L16.296 92.3216L15.2619 90.5409L13.7852 73.7728L10.389 63.682L9.65039 61.3079L21.4645 53.1465L25.1568 51.6623L28.4055 55.6689L31.2114 58.1917L34.4607 59.2303L35.9372 59.6755L37.7094 67.3917L39.0385 69.0241L42.4354 67.8369L40.0722 72.4373L52.9205 78.5211L51.2963 79.4114Z" fill="#335061"/>
<path fill-rule="evenodd" clip-rule="evenodd" d="M16.2961 27.6229L20.1355 26.2874L23.2368 27.7716L24.7139 31.0361L26.486 30.7392L26.9291 28.9585L26.043 25.5457L26.9291 17.3839L26.1904 12.9321L28.8487 9.81589L34.6082 5.21588L32.9837 2.99L24.8613 6.99659L21.4646 9.66764L19.5448 13.8225L16.5912 17.8291L15.7051 22.5778L16.2961 27.6229Z" fill="#6D6B6D"/>
<path fill-rule="evenodd" clip-rule="evenodd" d="M22.3514 13.6741C22.3514 13.6741 24.5666 8.18378 33.4274 5.51272C42.2882 2.84166 33.8705 3.58333 33.8705 3.58333L24.2716 7.29343L20.5793 11.0031L18.9551 13.9711L22.3514 13.6741Z" fill="#DCD9D8"/>
<path fill-rule="evenodd" clip-rule="evenodd" d="M17.9203 26.5843C17.9203 26.5843 14.819 16.1965 26.6335 14.7128L26.1904 12.932L18.0683 14.8614L15.7051 22.5777L16.2961 27.6229L17.9203 26.5843Z" fill="#DCD9D8"/>
<path fill-rule="evenodd" clip-rule="evenodd" d="M22.6465 40.3847L24.5801 38.5021C24.5801 38.5021 25.4529 38.604 25.6003 39.6426C25.7478 40.6817 26.1908 50.0304 32.541 55.076C33.1202 55.5363 27.8155 54.3334 27.8155 54.3334L23.0895 46.9141" fill="#F7E4CD"/>
<path fill-rule="evenodd" clip-rule="evenodd" d="M49.8218 37.5653C49.8218 37.5653 50.166 33.0673 51.3715 33.4132C52.577 33.7591 52.577 34.9704 52.577 34.9704C52.577 34.9704 49.6494 36.8735 49.8218 37.5653Z" fill="#F7E4CD"/>
<path d="M62.0769 21.094C62.0769 21.094 59.6428 21.6104 59.4187 23.765C59.1945 25.9201 62.0769 24.2102 62.5199 24.0619" fill="#F7E4CD"/>
<path d="M44.2082 21.2425C44.2082 21.2425 40.959 21.6877 40.959 23.7649C40.959 25.8425 44.6514 25.6943 45.685 24.804" fill="#F7E4CD"/>
<path fill-rule="evenodd" clip-rule="evenodd" d="M24.1243 30.8879C24.1243 30.8879 18.5122 27.4747 17.9217 30.7396C17.3311 34.0041 16.0016 36.3787 18.8078 39.7914L16.888 39.198L15.1159 34.598L14.5254 30.1462L17.9217 26.5843L21.7615 26.8813L23.9767 28.662L24.1243 30.8879Z" fill="#F7E4CD"/>
<path fill-rule="evenodd" clip-rule="evenodd" d="M26.7809 21.539C26.7809 21.539 29.2916 8.48065 41.9923 5.95783C52.4486 3.88109 57.9414 6.40301 60.0091 8.77713C60.0091 8.77713 50.7052 -2.35183 41.8443 1.0609C32.9835 4.47406 26.4859 10.7065 26.6333 14.7127C26.8848 21.5363 26.7809 21.539 26.7809 21.539Z" fill="#F7E4CD"/>
<path fill-rule="evenodd" clip-rule="evenodd" d="M61.0437 10.2609C61.0437 10.2609 56.7613 10.1127 56.6133 13.971C56.6133 13.971 56.6128 14.5644 56.9083 15.1579C56.9083 15.1579 60.3056 11.2995 62.3728 13.3772" fill="#F7E4CD"/>
<path fill-rule="evenodd" clip-rule="evenodd" d="M42.2903 15.5599C42.2903 15.5599 41.5531 9.63775 36.5282 13.0807C33.2793 15.3066 33.5749 18.4229 34.1654 19.0163C34.756 19.6101 34.5954 20.8054 35.0451 19.985C35.4945 19.1645 35.3465 16.4935 36.9712 15.7518C38.5958 15.0097 41.2589 14.1808 42.2903 15.5599Z" fill="#F7E4CD"/>
<path fill-rule="evenodd" clip-rule="evenodd" d="M28.4055 55.6689L14.5238 61.9014C14.5238 61.9014 20.2834 84.9023 17.3295 92.0251L15.2619 91.2835L15.1143 82.5281L11.2751 65.9084L9.65039 61.308L24.1227 51.5146L28.4055 55.6689Z" fill="#49728B"/>
<path fill-rule="evenodd" clip-rule="evenodd" d="M29.8333 68.3908L31.8028 70.8053V79.7089H29.4396C29.4396 79.7089 29.1445 73.4764 29.1445 72.7342C29.1445 71.9922 29.4396 69.3211 29.4396 69.3211" fill="#49728B"/>
<path fill-rule="evenodd" clip-rule="evenodd" d="M29.8819 81.0445L23.2363 81.341L25.1565 82.6765L29.8819 83.4185" fill="#49728B"/>
<path fill-rule="evenodd" clip-rule="evenodd" d="M52.625 79.5602L58.089 79.4118L59.4181 93.0642L53.8061 93.8058L52.625 79.5602Z" fill="#335061"/>
<path fill-rule="evenodd" clip-rule="evenodd" d="M54.1016 79.5602L62.3718 79.115C62.3718 79.115 65.7681 70.5083 65.7681 70.0631C65.7681 69.6179 68.7219 57.5983 68.7219 57.5983L62.0763 50.6241L60.7472 49.4369L57.2028 52.9983V66.7987L54.1016 79.5602Z" fill="#335061"/>
<path fill-rule="evenodd" clip-rule="evenodd" d="M57.7935 78.5215L52.625 79.5602L53.3631 83.7155C55.2828 84.6059 58.5321 82.2313 58.5321 82.2313" fill="#49728B"/>
<path fill-rule="evenodd" clip-rule="evenodd" d="M57.9414 52.5532L68.2789 60.2695L68.5744 56.7081L60.7472 49.437L57.9414 52.5532Z" fill="#49728B"/>
<path fill-rule="evenodd" clip-rule="evenodd" d="M35.0074 108.795L31.9499 96.3282L30.4292 87.1296L30.1777 80.3018L44.016 79.5616L52.6254 79.5602L51.8426 95.1427L53.1717 107.162L53.0242 109.388L41.8008 110.279L35.0074 108.795Z" fill="white"/>
<path fill-rule="evenodd" clip-rule="evenodd" d="M50.7035 79.4119C50.7035 79.4119 49.9654 94.8449 52.1806 105.826C52.1806 105.826 47.7502 108.645 41.252 109.387L53.6573 108.942L55.1339 108.051L53.3618 83.7155L52.9187 78.5212" fill="#DCD9D8"/>
<path fill-rule="evenodd" clip-rule="evenodd" d="M59.6706 91.8782L65.4301 90.2458L76.3582 89.6523L77.9828 84.6072L75.029 75.8518L71.6327 75.4067L66.9068 76.8905L62.3727 79.115L59.9657 78.6712L58.0898 79.4118" fill="white"/>
<path fill-rule="evenodd" clip-rule="evenodd" d="M59.5664 88.9089C59.5664 88.9089 63.4058 87.1286 63.9968 87.2769L62.3726 79.115L64.2923 78.3734C64.2923 78.3734 65.6214 86.0895 65.6214 86.9799C65.6214 86.9799 73.8912 87.4251 74.6298 87.4251C74.6298 87.4251 76.4019 84.012 75.9589 80.4506L77.5835 85.1992L77.7311 87.8702L75.3683 91.4316L72.7101 92.0251L68.2797 91.8768L66.803 89.948L61.6341 90.6896L60.0094 91.2835" fill="#DCD9D8"/>
<path d="M53.7628 78.3747L50.514 70.0646L47.1172 65.1676C47.1172 65.1676 47.8553 63.09 48.8893 63.09C49.9234 63.09 52.2861 63.09 52.2861 63.09L55.535 64.2773L55.2399 69.7677L53.7628 78.3747Z" fill="white"/>
<path fill-rule="evenodd" clip-rule="evenodd" d="M54.3989 75.5536C54.3989 75.5536 50.2635 67.5408 50.2635 66.3536C50.2635 66.3536 51.0016 64.5729 52.0357 65.0181C53.0698 65.4633 55.285 66.6501 55.285 66.6501V63.8308L50.2635 62.7918L46.8672 63.2369L52.6267 76.8892L53.8079 77.0378" fill="#DCD9D8"/>
<path d="M36.3374 55.9676L32.2462 55.5207L28.4062 54.3334V55.6689L30.2824 57.7479L36.1896 60.4189" fill="white"/>
<path fill-rule="evenodd" clip-rule="evenodd" d="M29.736 56.4124C29.736 56.4124 34.3144 58.3418 35.7911 57.8966L35.938 59.6756L31.8038 58.787L29.293 57.0063L29.736 56.4124Z" fill="#DCD9D8"/>
<path fill-rule="evenodd" clip-rule="evenodd" d="M59.6538 63.5953C57.148 63.5214 54.8841 63.2222 52.9019 62.6604C53.0366 61.8439 52.7845 61.0426 52.987 60.4546C53.5394 60.0548 54.4654 60.061 55.3005 59.9671C54.5784 59.6105 53.5638 59.4694 52.7304 59.6755C52.711 59.1088 52.458 58.7575 52.3047 58.3142C53.7136 57.8089 57.0395 54.4963 58.9104 55.5932C59.8018 56.115 60.1806 59.095 60.2497 60.544C60.3073 61.746 60.1412 62.9587 59.6538 63.5953Z" fill="#D33833"/>
<path d="M59.6538 63.5953C57.148 63.5214 54.8841 63.2222 52.9019 62.6604C53.0366 61.8439 52.7845 61.0426 52.987 60.4546C53.5394 60.0548 54.4654 60.061 55.3005 59.9671C54.5784 59.6105 53.5638 59.4694 52.7304 59.6755C52.711 59.1088 52.458 58.7575 52.3047 58.3142C53.7136 57.8089 57.0395 54.4963 58.9104 55.5932C59.8018 56.115 60.1806 59.095 60.2497 60.544C60.3073 61.746 60.1412 62.9587 59.6538 63.5953Z" stroke="#D33833" stroke-width="2.5"/>
<path fill-rule="evenodd" clip-rule="evenodd" d="M47.6727 59.4792C47.666 59.6697 47.6581 59.8616 47.6505 60.0539C46.8681 60.5703 45.605 60.5641 44.7464 60.9981C46.0122 61.0538 47.0086 61.3601 47.8707 61.7919C47.8517 62.2718 47.8335 62.7512 47.8149 63.2311C46.3808 64.2177 45.0707 65.6867 43.3822 66.6119C42.5838 67.0494 39.782 68.1752 38.9326 67.9762C38.452 67.8641 38.4087 67.2648 38.2166 66.7C37.8073 65.4904 36.865 63.565 36.7828 61.7443C36.6781 59.4445 36.4471 55.5901 38.9136 56.0638C40.9034 56.4453 43.2178 57.3664 44.7584 58.2122C45.6998 58.7295 46.2443 59.3688 47.6727 59.4792Z" fill="#D33833"/>
<path d="M47.6727 59.4792C47.666 59.6697 47.6581 59.8616 47.6505 60.0539C46.8681 60.5703 45.605 60.5641 44.7464 60.9981C46.0122 61.0538 47.0086 61.3601 47.8707 61.7919C47.8517 62.2718 47.8335 62.7512 47.8149 63.2311C46.3808 64.2177 45.0707 65.6867 43.3822 66.6119C42.5838 67.0494 39.782 68.1752 38.9326 67.9762C38.452 67.8641 38.4087 67.2648 38.2166 66.7C37.8073 65.4904 36.865 63.565 36.7828 61.7443C36.6781 59.4445 36.4471 55.5901 38.9136 56.0638C40.9034 56.4453 43.2178 57.3664 44.7584 58.2122C45.6998 58.7295 46.2443 59.3688 47.6727 59.4792Z" stroke="#D33833" stroke-width="2.5"/>
<path fill-rule="evenodd" clip-rule="evenodd" d="M49.0968 62.2232C48.8779 60.9705 48.6249 60.613 48.7229 59.5201C52.0479 57.2924 52.6721 63.3464 49.0968 62.2232Z" fill="#D33833"/>
<path d="M49.0968 62.2232C48.8779 60.9705 48.6249 60.613 48.7229 59.5201C52.0479 57.2924 52.6721 63.3464 49.0968 62.2232Z" stroke="#D33833" stroke-width="2.5"/>
<path fill-rule="evenodd" clip-rule="evenodd" d="M53.9114 63.2387C53.9114 63.2387 52.8774 61.7545 53.6159 61.3093C54.3545 60.8641 55.093 61.3098 55.536 60.5677C55.9791 59.8255 55.536 59.3804 55.6836 58.49C55.8311 57.5997 56.5701 57.451 57.3082 57.3027C58.0463 57.1545 60.1144 56.8576 60.4095 57.5997L59.5234 54.9286L57.7513 54.3352L52.1393 57.5997L51.8438 59.2321V62.4966" fill="#EF3D3A"/>
<path fill-rule="evenodd" clip-rule="evenodd" d="M38.4037 68.1358C38.2263 65.8199 38.0386 63.5072 37.8297 61.1936C37.5171 57.7391 38.6555 58.3419 41.6357 58.3419C42.0908 58.3419 44.4383 58.8872 44.6062 59.2322C45.4116 60.8851 43.2594 60.5179 45.5339 61.7644C47.4541 62.8163 50.846 61.1255 50.0702 58.787C49.636 58.2671 47.8081 58.625 47.1528 58.2835C45.9991 57.6825 44.8454 57.0816 43.6916 56.4806C42.2237 55.7153 38.8312 54.5997 37.2662 55.669C33.3008 58.3788 37.5164 65.1495 38.931 67.9763" fill="#EF3D3A"/>
<path fill-rule="evenodd" clip-rule="evenodd" d="M42.2894 15.5598C38.2642 14.6178 36.2642 17.2524 35.0441 19.9849C33.9547 19.7196 34.3882 18.2309 34.6633 17.4723C35.3838 15.4815 38.2873 12.8314 40.6596 13.1906C41.6805 13.3451 43.0621 14.2831 42.2894 15.5598Z" fill="#231F20"/>
<path fill-rule="evenodd" clip-rule="evenodd" d="M61.9017 20.1657C61.965 20.1684 62.0293 20.1706 62.0926 20.1733C63.0022 22.0719 63.7895 24.0832 64.9369 25.7593C64.1683 27.5583 59.1163 29.1502 59.1943 25.92C60.2868 25.4401 62.1728 25.8221 63.1413 25.2091C62.5813 23.6648 61.7732 22.3502 61.9017 20.1657Z" fill="#231F20"/>
<path fill-rule="evenodd" clip-rule="evenodd" d="M44.351 20.215C45.2141 21.8048 45.495 23.4751 46.7217 24.6766C47.2742 25.2175 48.3486 25.8768 47.8161 27.381C47.6916 27.7358 46.782 28.5269 46.257 28.6823C44.3391 29.2512 39.87 28.7998 41.3835 26.3972C42.9696 26.4715 45.1015 27.4322 46.2871 26.2752C45.3767 24.8128 43.7536 21.9196 44.351 20.215Z" fill="#231F20"/>
<path fill-rule="evenodd" clip-rule="evenodd" d="M61.1828 36.3723C58.295 38.2363 55.075 40.2632 50.3433 39.7931C49.3323 38.9098 48.9469 36.9444 49.9291 35.6462C50.4404 36.5295 50.1192 38.1539 51.544 38.3983C54.2288 38.86 57.3536 36.7481 59.2848 36.01C60.4823 33.9813 59.1815 33.2352 58.1027 31.9295C55.8942 29.2544 52.9316 25.9387 53.0392 21.9339C53.932 21.2835 54.009 22.9267 54.1371 23.2258C55.2903 25.9378 58.1927 29.4062 60.3109 31.7274C60.831 32.299 61.6874 32.8474 61.7826 33.2254C62.0573 34.3245 61.068 35.6413 61.1828 36.3723Z" fill="#231F20"/>
<path fill-rule="evenodd" clip-rule="evenodd" d="M23.1139 34.41C22.2088 33.8909 21.9933 31.6045 20.9307 31.5395C19.4121 31.4469 19.689 34.5057 19.6951 36.2944C18.6497 35.3409 18.4659 32.4049 19.2338 30.8971C18.3587 30.4653 17.9679 31.3735 17.4824 31.6935C18.1063 27.1394 24.1125 29.5812 23.1139 34.41Z" fill="#231F20"/>
<path fill-rule="evenodd" clip-rule="evenodd" d="M63.0202 38.2689C61.676 40.8397 59.7745 43.6711 55.8301 43.7534C55.7499 42.9232 55.6883 41.6598 55.8345 41.1598C58.8498 40.8687 60.7115 39.3266 63.0202 38.2689Z" fill="#231F20"/>
<path fill-rule="evenodd" clip-rule="evenodd" d="M44.125 39.9355C46.6408 41.2648 51.2643 41.4077 54.6837 41.3071C54.8671 42.0599 54.8627 42.9898 54.8698 43.9078C50.4744 44.1281 45.2775 43.0352 44.125 39.9355Z" fill="#231F20"/>
<path fill-rule="evenodd" clip-rule="evenodd" d="M43.6444 42.4143C45.3841 46.8033 51.3634 46.2981 56.4056 46.177C56.1837 46.7468 55.7025 47.4199 55.1044 47.6634C53.4886 48.3241 49.0321 48.8253 46.789 47.6282C45.3664 46.8683 44.4524 45.1513 43.6729 44.1447C43.2965 43.6586 41.4223 42.417 43.6444 42.4143Z" fill="#231F20"/>
<path fill-rule="evenodd" clip-rule="evenodd" d="M60.9717 66.6242C58.9302 70.1377 56.9768 73.7462 54.5547 76.8452C55.5701 73.8451 56.0048 68.8239 56.1581 64.9959C58.2824 63.9969 60.1016 65.2207 60.9717 66.6242Z" fill="#81B0C4"/>
<path fill-rule="evenodd" clip-rule="evenodd" d="M71.9574 79.2518C69.6718 79.7116 68.0658 81.9437 65.8359 81.8005C67.0614 80.0646 69.2088 79.3329 71.9574 79.2518Z" fill="#231F20"/>
<path fill-rule="evenodd" clip-rule="evenodd" d="M72.9661 82.8461C71.1031 83.0438 68.915 83.347 67.0254 83.1908C67.9199 81.8179 71.3663 82.2916 72.9661 82.8461Z" fill="#231F20"/>
<path fill-rule="evenodd" clip-rule="evenodd" d="M73.6122 85.9448C71.5183 85.9903 68.9159 85.9484 66.9258 85.7806C68.1029 84.5101 72.2542 85.3092 73.6122 85.9448Z" fill="#231F20"/>
<path fill-rule="evenodd" clip-rule="evenodd" d="M57.0342 94.4251C57.3346 97.0673 58.377 99.7445 58.2463 102.638C57.0887 103.03 56.4237 103.374 54.8726 103.371C54.7632 100.912 54.4358 97.1527 54.5337 94.8084C55.2966 94.8592 56.4215 94.2608 57.0342 94.4251Z" fill="#DCD9D8"/>
<path fill-rule="evenodd" clip-rule="evenodd" d="M53.6582 55.4847C52.6068 56.1743 51.7114 57.0352 50.7017 57.7716C48.4626 57.8829 47.2407 57.6158 45.5957 56.3239C45.6227 56.2201 45.788 56.2664 45.7942 56.1391C48.191 57.2124 51.2378 55.7019 53.6582 55.4847Z" fill="#F0D6B7"/>
<path fill-rule="evenodd" clip-rule="evenodd" d="M41.0742 71.9019C41.7328 69.0345 44.3131 67.5494 46.6563 65.9704C49.0749 69.0547 50.5458 73.0211 52.1655 76.8487C48.3385 75.6895 44.4283 73.8087 41.0742 71.9019Z" fill="#81B0C4"/>
<path fill-rule="evenodd" clip-rule="evenodd" d="M54.5325 94.8083C54.4346 97.1526 54.762 100.912 54.8714 103.371C56.4225 103.373 57.0875 103.03 58.2452 102.638C58.3759 99.7444 57.3334 97.0672 57.033 94.425C56.4203 94.2607 55.2954 94.8591 54.5325 94.8083ZM30.3805 81.4758C31.4033 90.9238 32.8847 98.866 35.6018 107.232C41.6322 109.072 48.9019 109.233 54.2321 107.572C53.2534 102.85 53.681 97.1015 53.109 92.0625C52.6779 88.275 52.8977 84.4642 52.3067 80.6001C45.848 79.25 36.7189 80.2845 30.3805 81.4758ZM53.8338 80.6594C53.7793 84.7171 54.0146 88.7197 54.3229 92.7824C55.8736 92.5485 56.9258 92.3924 58.3666 92.075C57.8987 88.1637 57.9563 83.7626 57.0033 80.3027C55.9019 80.3133 54.9321 80.2898 53.8338 80.6594ZM61.7 80.0053C60.9641 79.8358 60.1073 79.9987 59.4042 80.0124C59.7347 83.3202 60.5366 86.9701 60.8188 90.4421C61.9251 90.4767 62.5161 89.9524 63.4261 89.7761C63.4748 86.7284 63.1611 82.5295 61.7 80.0053ZM73.6107 90.9401C75.9167 90.3774 77.3668 87.5394 76.7217 84.6249C76.2889 82.6661 75.518 78.9778 74.693 77.7247C74.0834 76.7978 72.4304 75.5844 71.1106 76.4337C68.9636 77.8151 65.1814 78.2161 63.6157 79.8883C64.4008 82.5148 64.6444 86.1225 64.9683 89.4505C67.6505 89.6185 70.9507 88.7089 73.1814 89.6742C71.6241 90.1811 69.6034 90.1851 68.2579 90.9238C69.3575 91.4575 71.932 91.3497 73.6107 90.9401ZM52.1662 76.8486C50.5465 73.021 49.0756 69.0545 46.657 65.9703C44.3138 67.5493 41.7335 69.0344 41.0749 71.9017C44.429 73.8085 48.3392 75.6894 52.1662 76.8486ZM56.1589 64.9958C56.0056 68.8237 55.571 73.845 54.5555 76.8451C56.9776 73.7461 58.931 70.1376 60.9725 66.6241C60.1024 65.2206 58.2833 63.9968 56.1589 64.9958ZM51.6328 63.3798C50.7153 63.2805 49.9364 64.4397 48.7433 63.9385C48.4699 64.2421 48.2214 64.5711 47.9427 64.8676C50.5779 68.0586 51.7754 72.586 53.8108 76.3361C54.9029 72.7338 54.777 68.7872 55.0176 64.8555C53.517 64.9512 52.6846 63.492 51.6328 63.3798ZM48.7225 59.5201C48.6245 60.613 48.8775 60.9705 49.0964 62.2232C52.6717 63.3464 52.0475 57.2924 48.7225 59.5201ZM44.7577 58.2122C43.2171 57.3663 40.9028 56.4453 38.9129 56.0638C36.4464 55.5896 36.6774 59.4444 36.7821 61.7442C36.8643 63.565 37.8067 65.4904 38.2159 66.6999C38.408 67.2648 38.4513 67.864 38.9319 67.9762C39.7813 68.1751 42.5832 67.0493 43.3815 66.6118C45.07 65.6867 46.3801 64.2176 47.8142 63.2311C47.8328 62.7512 47.851 62.2717 47.87 61.7918C47.0079 61.36 46.0115 61.0537 44.7457 60.9981C45.6043 60.564 46.8674 60.5703 47.6499 60.0539C47.6574 59.8615 47.6654 59.6697 47.672 59.4791C46.2436 59.3687 45.6992 58.7295 44.7577 58.2122ZM30.0427 55.5264C28.7641 56.8308 33.6289 58.6088 35.1778 58.7045C35.1692 57.8792 35.6459 57.101 35.5499 56.5089C33.7103 56.1844 31.2926 56.3985 30.0427 55.5264ZM45.7935 56.139C45.7873 56.2663 45.6221 56.22 45.595 56.3237C47.24 57.6156 48.462 57.8827 50.7011 57.7714C51.7108 57.0351 52.6061 56.1742 53.6575 55.4846C51.2372 55.7018 48.1904 57.2123 45.7935 56.139ZM60.2508 60.544C60.1817 59.095 59.8029 56.1149 58.9115 55.5932C57.0405 54.4958 53.7146 57.8088 52.3058 58.3141C52.4591 58.7575 52.712 59.1088 52.7315 59.6755C53.5649 59.4693 54.5794 59.6105 55.3016 59.9671C54.4665 60.061 53.5405 60.0548 52.988 60.4545C52.7856 61.0426 53.0377 61.8439 52.903 62.6604C54.8852 63.2222 57.1491 63.5213 59.6549 63.5952C60.1423 62.9586 60.3084 61.746 60.2508 60.544ZM27.8902 56.7881C27.4886 56.5005 24.7724 52.9493 24.4003 53.0967C19.4854 55.0443 14.8897 58.4121 10.7829 61.5973C14.6985 70.0397 16.2791 80.3829 16.5583 90.352C21.0438 92.46 24.9836 95.4989 31.0702 95.8162C30.3658 90.8089 29.7229 86.3414 29.3231 81.6271C27.7938 80.9793 25.5996 81.6565 24.1684 81.4262C24.1563 79.6932 26.3542 80.6673 26.5373 79.5019C26.6753 78.6204 25.328 78.5537 25.7667 77.1656C26.8855 77.5743 27.4731 78.4769 28.6663 78.8159C29.7567 76.4191 28.6511 72.1782 28.8082 70.1749C28.838 69.7988 28.9952 68.0911 29.8337 68.3908C30.5757 68.656 29.7913 72.9324 29.8726 74.8284C29.9467 76.5752 29.6626 78.2655 30.3667 79.3621C36.2482 78.5577 42.2249 78.0377 48.5887 77.8622C47.1886 77.2586 45.5255 76.6874 43.702 75.6546C42.7135 75.0947 39.5975 73.9296 39.3123 72.9861C38.8571 71.4828 40.5064 70.682 40.7885 69.3933C37.8196 71.0202 37.2404 67.8338 36.5381 65.5763C35.9018 63.5316 35.5395 62.0042 35.3834 60.8249C32.8259 59.5998 30.0915 58.3591 27.8902 56.7881ZM57.6533 53.5262C61.7483 51.531 62.4864 60.9834 60.8813 64.0284C61.1294 64.9366 61.9827 65.2842 62.3309 66.1007C60.0457 70.2141 57.5075 74.0537 55.1758 78.1187C56.9103 77.0338 59.3878 77.9247 61.4289 77.1126C62.1749 76.8161 62.715 75.0999 63.2799 73.727C64.8336 69.9497 66.4649 65.1876 67.1906 61.583C67.3545 60.7617 67.8011 58.9721 67.701 58.2411C67.5224 56.9323 65.7551 55.9618 64.8562 55.1525C63.2001 53.6576 62.1572 52.3421 60.4298 50.9442C59.7294 51.9833 58.2261 52.6813 57.6533 53.5262ZM18.5249 17.036C16.5736 19.1934 16.982 23.2356 17.2183 26.1114C20.7453 23.882 25.4266 26.2877 25.3825 30.0797C27.0664 30.0347 26.0115 27.9665 25.707 26.634C24.7115 22.282 27.3839 17.5538 25.8281 13.5739C22.8073 13.8041 20.3256 15.0439 18.5249 17.036ZM32.4867 4.51502C28.0693 5.77309 22.4079 8.99839 20.5926 12.9858C21.9982 12.7806 22.974 12.0683 24.3605 11.9802C24.8846 11.9459 25.5711 12.201 26.1734 12.0505C27.3736 11.7514 28.3865 9.04736 29.2919 8.04126C30.1746 7.05875 31.2354 6.63896 31.9614 5.74326C32.4279 5.51711 33.1175 5.5327 33.144 4.82887C32.9418 4.61163 32.729 4.44602 32.4867 4.51502ZM55.4819 5.6983C50.8969 3.09892 43.1361 1.1437 38.2589 3.58683C34.3234 5.55851 29.0038 8.82076 27.1901 12.9547C28.8844 16.9439 26.6882 20.5992 26.5481 24.6495C26.4736 26.8046 27.5579 28.6859 27.641 31.0319C27.0612 31.9931 25.2899 32.1115 24.0637 32.0456C23.651 29.9702 22.9284 27.6375 20.8015 27.4033C17.7919 27.0725 15.5915 29.5753 15.4547 32.1907C15.2929 35.2665 17.8058 40.3642 21.3674 40.0103C22.7433 39.8736 23.0813 38.4878 24.5803 38.502C25.3928 40.1309 23.327 40.6424 23.1145 41.8074C23.0591 42.1084 23.2858 43.2845 23.4177 43.8361C24.0646 46.5218 25.5067 49.9978 26.9262 52.0425C28.7278 54.6361 32.2673 55.0269 36.0752 55.2811C36.7553 53.8089 39.2607 53.93 40.8932 54.3151C38.9368 53.5365 37.1179 51.6489 35.6105 49.9782C33.879 48.0613 32.125 46.005 32.0364 43.4995C35.3085 48.0608 38.0117 52.0443 43.9616 54.0507C48.4637 55.5678 53.7217 53.3553 57.181 50.9144C58.6164 49.8998 59.4733 48.2901 60.4936 46.8166C64.3113 41.2986 66.0927 33.4225 65.7011 25.7887C65.5398 22.6404 65.5469 19.5028 64.4956 17.3846C63.3968 15.1699 59.6806 13.1884 57.5053 15.1917C57.1021 13.0379 59.3142 11.706 61.9127 12.481C60.0599 10.0784 58.1154 7.19141 55.4819 5.6983ZM64.0242 76.7338C67.6071 74.9441 74.3014 71.9165 76.5476 76.7404C77.3765 78.5185 78.349 81.5243 78.7783 83.3598C79.3848 85.9493 78.1208 91.3921 75.4719 92.2611C73.1322 93.0285 70.4022 92.9817 67.584 92.4129C67.2522 92.1355 66.8827 91.6521 66.6244 91.1481C64.6121 91.0697 62.7278 91.2567 61.1382 92.0879C61.2889 93.5832 60.2823 93.8232 59.3386 94.1312C58.639 96.9184 60.7382 100.558 60.2358 103.1C59.8773 104.91 57.6604 105.19 56.0309 105.529C55.9777 106.535 56.1022 107.375 56.2134 108.226C55.8408 109.606 54.1696 110.391 52.5862 110.584C47.3765 111.213 39.4663 111.496 34.4553 109.685C33.0569 106.239 31.9554 102.047 30.7907 98.1115C25.9034 98.636 21.9506 95.9925 18.2243 94.2607C16.9341 93.6597 15.1493 93.3286 14.6673 92.2967C14.2 91.2977 14.3913 89.3829 14.2753 87.5742C13.9802 82.9546 13.7276 78.4989 12.5135 73.7689C11.9684 71.6463 11.0183 69.7734 10.3554 67.7282C9.74279 65.8327 8.6724 63.4902 8.39324 61.6C7.97931 58.7985 10.6046 58.6427 12.2834 57.4287C14.8784 55.5514 16.9154 54.5132 19.7259 52.8189C20.5583 52.3171 23.0686 51.0471 23.3542 50.4621C23.9218 49.3024 22.3799 47.6673 21.9676 46.7582C21.3155 45.3208 20.9754 44.0996 20.882 42.6813C18.5243 42.3069 16.7371 40.897 15.6576 39.3073C13.8717 36.6763 12.6333 31.8088 14.1784 28.1062C14.2995 27.8147 14.9039 27.2413 14.993 26.7934C15.1688 25.9115 14.6621 24.7389 14.6306 23.8009C14.4683 18.9886 15.4409 14.8422 18.665 13.3909C19.9739 8.15166 24.6585 6.40969 29.0722 3.80585C30.722 2.8327 32.5407 2.21078 34.4189 1.51631C41.1568 -0.975342 51.4946 -0.506119 57.0866 3.74353C59.4578 5.5456 63.248 9.35052 64.6037 12.1053C68.1843 19.3781 67.93 31.5328 65.4255 40.3797C65.0888 41.5675 64.6006 43.3135 63.9187 44.7402C63.4434 45.7366 61.9658 47.73 62.1453 48.6097C62.33 49.5192 65.5141 51.9485 66.1969 52.6101C67.4263 53.8018 69.762 55.3835 69.9512 56.8873C70.1545 58.4877 69.2494 60.6771 68.7909 62.2214C67.2579 67.3752 65.7622 72.1391 64.0242 76.7338Z" fill="#231F20"/>
<path fill-rule="evenodd" clip-rule="evenodd" d="M40.1218 41.0582C40.3162 40.7983 41.3848 40.4034 42.8801 41.1268C42.8801 41.1268 41.1079 41.4237 41.2554 44.3926L40.5169 44.2439C40.5169 44.2439 39.7537 41.5519 40.1218 41.0582Z" fill="#F7E4CD"/>
<path fill-rule="evenodd" clip-rule="evenodd" d="M53.0699 66.5763C53.0699 67.0269 52.7062 67.3922 52.2574 67.3922C51.809 67.3922 51.4453 67.0269 51.4453 66.5763C51.4453 66.1258 51.809 65.7598 52.2574 65.7598C52.7062 65.7598 53.0699 66.1258 53.0699 66.5763Z" fill="#1D1919"/>
<path fill-rule="evenodd" clip-rule="evenodd" d="M53.8824 70.3601C53.8824 70.8107 53.5187 71.1761 53.0699 71.1761C52.6215 71.1761 52.2578 70.8107 52.2578 70.3601C52.2578 69.9096 52.6215 69.5437 53.0699 69.5437C53.5187 69.5437 53.8824 69.9096 53.8824 70.3601Z" fill="#1D1919"/>
</svg>
