<svg width="122" height="21" viewBox="0 0 122 21" fill="none" xmlns="http://www.w3.org/2000/svg">
<path d="M113.102 0C117.403 0 119.706 3.89059 119.706 9.9607C119.706 14.1274 118.735 17.017 116.917 18.5654L121.094 18.2596V19.9017H112.983C108.648 19.9017 106.26 16.662 106.26 9.9607C106.26 3.25942 109.069 0 113.102 0ZM90.0339 0.340242L95.5235 17.4559H95.583L101.092 0.340242H103.847V19.8918H102.291V1.90338L96.4748 19.8918H94.6813L88.7854 1.90338V19.8918H87.2148V0.340242H90.0339ZM113.082 1.68642C109.728 1.68642 108.128 4.39356 108.128 9.96563C108.128 15.5377 109.396 18.2596 112.998 18.2596C116.6 18.2596 117.819 15.0101 117.819 9.96563C117.819 4.92118 116.436 1.68642 113.082 1.68642Z" fill="#A9B5AF"/>
<path d="M80.4677 2.34226V6.39558H84.0894V7.74668H80.4727V16.4253C80.4727 16.8149 80.3785 18.8267 82.5238 18.8267C83.0546 18.8213 83.5819 18.7399 84.0894 18.5851V20.0792C83.6097 20.1452 83.1268 20.1864 82.6427 20.2025C81.6801 20.2605 80.7266 19.9872 79.9425 19.4283C79.348 18.9352 79.0557 18.0674 79.0557 16.879V7.75161H76.8856V6.40051H79.0557V3.28409L80.4677 2.34226ZM49.621 0.335327V8.95479H49.6706C50.1421 7.26383 51.6926 6.09634 53.4558 6.10464C54.5458 6.10464 58.1626 6.79006 58.1626 13.299C58.1626 19.808 54.0405 20.2025 52.9108 20.2025C48.3079 20.2025 48.1921 15.3294 48.1893 14.4197L48.1892 0.335327H49.621ZM61.7942 0.335327V8.95479H61.8537C62.3252 7.26383 63.8757 6.09634 65.6389 6.10464C66.7289 6.10464 70.3457 6.79006 70.3457 13.299C70.3457 19.808 66.2235 20.2025 65.0939 20.2025C60.491 20.2025 60.3751 15.3294 60.3724 14.4197L60.3723 0.335327H61.7942ZM41.6146 6.09478C45.8922 6.09478 45.854 9.17777 45.8508 10.5959L45.8507 19.8918H44.4387V17.9835H44.3792C43.9183 18.6711 43.2958 19.2364 42.5659 19.6305C41.8268 20.0163 41.0023 20.2113 40.1679 20.1976C39.6031 20.1976 36.6997 20.0792 36.6997 16.593C36.6997 13.1067 40.4949 12.5051 42.8185 12.3276C43.3499 12.2764 44.1629 12.2695 44.3729 12.2686L44.405 12.2685C44.4091 12.2685 44.4125 12.2685 44.4153 12.2685L44.4238 12.2684L44.4238 11.054C44.4238 11.0436 44.4239 11.0329 44.4239 11.0222L44.4241 10.9557C44.4241 10.9443 44.4241 10.9328 44.4241 10.9211L44.4241 10.8495C44.4223 9.71479 44.3099 7.44589 41.4808 7.44589C39.1572 7.44589 38.8203 8.8463 38.6617 9.63527H36.9177C36.9177 8.99424 37.2497 6.09478 41.6146 6.09478ZM28.1879 0.374775C33.3505 0.374775 34.4752 3.07205 34.4752 5.37978C34.4752 7.89461 33.2762 9.73882 30.5116 10.2763C30.5116 10.2763 32.1961 10.7694 32.7857 11.6817C33.2316 12.372 33.4496 13.0525 33.7766 14.6403L34.8913 19.9165H33.1771L32.1862 15.2912C31.8741 14.0091 31.6759 12.0022 29.9369 11.3463C29.3486 11.1389 28.7276 11.0387 28.1037 11.0505H25.7454V19.8918H24.041V0.374775H28.1879ZM74.1805 6.40051V19.8918H72.7585V6.40051H74.1805ZM53.2973 7.44096C51.8208 7.44096 49.6755 9.04355 49.6755 13.4815C49.6755 18.7247 52.3259 18.8295 52.8796 18.8316L52.9259 18.8316C53.4474 18.8289 56.4483 18.6637 56.4483 13.2596L56.4478 13.1361C56.4149 8.92466 54.759 7.44096 53.2973 7.44096ZM65.4804 7.44096C64.0039 7.44096 61.8586 9.04355 61.8586 13.4815C61.8586 18.7247 64.509 18.8295 65.0627 18.8316L65.109 18.8316C65.6305 18.8289 68.6314 18.6637 68.6314 13.2596L68.6265 13.2645C68.6265 8.95479 66.9568 7.44096 65.4804 7.44096ZM44.4188 13.6196L44.3989 13.6198C44.1682 13.6224 41.9997 13.65 41.4511 13.7527C38.6914 14.2803 38.414 15.9519 38.414 16.6669C38.4117 17.1836 38.629 17.6771 39.0121 18.0256C39.3953 18.3741 39.9087 18.5451 40.4255 18.4963C42.3698 18.5016 44.0255 17.0906 44.3197 15.1778C44.3851 14.6609 44.4182 14.1405 44.4188 13.6196ZM27.9947 1.89354H25.7454V9.49227H27.3011C32.5875 9.49227 32.751 6.23778 32.751 5.34526L32.7509 5.31263C32.7453 4.223 32.4435 1.89354 27.9947 1.89354ZM74.5074 0.340258V2.63319H72.4067V0.340258H74.5074Z" fill="#FF6600"/>
<path d="M19.8889 8.08691H13.562C13.3514 8.08823 13.149 8.00553 13 7.85729C12.851 7.70904 12.768 7.50759 12.7693 7.29794V1.001C12.7693 0.792207 12.6856 0.592033 12.5368 0.444856C12.388 0.297678 12.1863 0.215654 11.9766 0.216968H9.60832C9.39853 0.215654 9.19689 0.297678 9.04808 0.444856C8.89927 0.592033 8.8156 0.792207 8.8156 1.001V7.29794C8.81693 7.50759 8.73384 7.70904 8.58489 7.85729C8.43593 8.00553 8.23353 8.08823 8.02288 8.08691H5.65464C5.44399 8.08823 5.24158 8.00553 5.09263 7.85729C4.94368 7.70904 4.86059 7.50759 4.86192 7.29794V1.001C4.86325 0.791353 4.78015 0.589907 4.6312 0.44166C4.48225 0.293412 4.27985 0.210714 4.0692 0.212021H1.696C1.48621 0.212021 1.28508 0.295312 1.13721 0.443416C0.989328 0.591519 0.906915 0.792211 0.908218 1.001V19.1078C0.906905 19.3174 0.989997 19.5189 1.13895 19.6671C1.2879 19.8154 1.49031 19.8981 1.70095 19.8968H19.8889C20.0995 19.8981 20.3019 19.8154 20.4509 19.6671C20.5998 19.5189 20.6829 19.3174 20.6816 19.1078V8.89067C20.687 8.67847 20.6057 8.47318 20.4563 8.3217C20.3069 8.17022 20.1021 8.08551 19.8889 8.08691ZM16.7081 14.7734C16.7094 15.0868 16.5852 15.3878 16.363 15.6099C16.1408 15.832 15.8389 15.9568 15.524 15.9568H13.9385C13.6236 15.9568 13.3217 15.832 13.0995 15.6099C12.8773 15.3878 12.7531 15.0868 12.7544 14.7734V13.2004C12.7531 12.887 12.8773 12.586 13.0995 12.3639C13.3217 12.1418 13.6236 12.0169 13.9385 12.0169H15.524C15.8389 12.0169 16.1408 12.1418 16.363 12.3639C16.5852 12.586 16.7094 12.887 16.7081 13.2004V14.7734Z" fill="#FF6600"/>
</svg>
